<?xml  version="1.0" encoding="UTF-8"?>
<!DOCTYPE svg PUBLIC "-//W3C//DTD SVG 1.0//EN" "http://www.w3.org/TR/2001/REC-SVG-20010904/DTD/svg10.dtd" >
<svg xmlns="http://www.w3.org/2000/svg" >
<metadata>
<version>1.0</version>
<id><![CDATA[Garamond Prmr W01 Md]]></id>
<vendor>Monotype Imaging Inc.</vendor>
<credits>
<name>Fonts.com WebFonts</name>
<URL>http://webfonts.fonts.com</URL>
<role>Home of the Web fonts</role>
</credits>
<license>
<URL>http://webfonts.fonts.com/Legal</URL>
</license>
<copyright><![CDATA[© 2005, 2007 Adobe Systems Incorporated. All rights reserved.]]></copyright>
<trademark></trademark>
<licensee>
<name></name>
</licensee>
</metadata>
<defs >
<font horiz-adv-x="515" id="52d2afe4-7fc2-421f-9b36-cbd9da1a9fc6">
<font-face font-family="" panose-1="2 2 5 2 6 5 6 2 4 3" ascent="750" descent="-250" units-per-em="1000" alphabetic="0">
</font-face>
<missing-glyph horiz-adv-x="209" />

<glyph unicode="&#xA;" horiz-adv-x="0" />
<glyph unicode="&#xD;" horiz-adv-x="209" />
<glyph unicode=" " horiz-adv-x="209" />
<glyph unicode="!" horiz-adv-x="339" d="M190 583Q209 583 221 574T239 552T248 525T250 500Q250 482 245 444T233 363T219 284T208 229Q205 215 198 207T183 198Q175 198 169 205T161 222Q157 242 151 279T140 358T130 438T126 497Q126 511 129 526T141 554T161 575T190 583ZM184 121Q200 121 212 115T232 99T243 78T247 55Q247 25 229 7T182 -12Q157 -12 138 5T119 55Q119 72 125 84T141 105T162 117T184 121Z"  />
<glyph unicode="&quot;" horiz-adv-x="311" d="M108 678Q127 678 127 635Q127 621 124 596T117 546T107 499T97 468Q92 460 85 451T70 441Q59 441 55 450T50 469Q49 487 47 509T43 554T39 596T35 630Q34 638 38 644T45 653Q57 663 76 670T108 678ZM258 683Q269 683 275 671T281 639Q281 622 278 597T269 546T259 499T249 470Q245 462 238 453T223 442Q216 442 210 450T204 469Q199 518 197 560T189 637Q188 641 192 649T201 661Q212 670 229 676T258 683Z"  />
<glyph unicode="#" horiz-adv-x="511" d="M474 421Q473 417 470 407T464 392Q457 379 453 379L378 377Q376 376 375 375Q372 372 372 370L346 266Q344 259 352 259L431 260Q435 260 437 253T439 241Q439 238 438 232T434 219T429 206T425 196Q423 193 417 191T413 188L334 186Q329 186 327 179L288 9Q287 8 286 6Q284 2 281 2Q275 -1 267 -2T251 -3Q247 -3 243 0T239 6L279 178Q281 186 274 186L172 184Q170 184 168 182T165 179L126 10Q125 7 122 5T116 0Q106 -4 92 -4Q87 -4 82 -1T77 8L119 177Q120 179 118 180T114 182L39 180Q38 180 35 183T32 192Q32 197 33 205T37 221T41 236T46 245Q54 253 59 253L130 255Q136 255 138 261L164 366Q165 369 163 371T159 373L85 372Q82 372 78 375T73 383Q71 392 73 409Q74 412 76 417T80 429T86 439T91 444L173 446Q175 446 179 449T184 455L223 604Q223 607 226 610T231 616Q236 618 245 618T262 619Q266 619 270 616T272 609L231 454Q229 447 237 447L332 450Q340 450 342 455L380 607Q381 609 384 612T392 617Q402 619 416 619Q419 619 423 616T427 609L388 457Q387 455 388 453T391 450L466 452Q470 452 474 446T474 421ZM325 371Q327 377 321 377L219 374Q211 374 209 364L184 264Q184 262 185 260T189 257L293 259Q294 260 296 261Q299 262 300 265L325 371Z"  />
<glyph unicode="$" horiz-adv-x="494" d="M65 434Q65 473 82 502T127 550T189 580T257 593Q261 593 263 601L271 674Q271 676 274 678T279 680Q284 680 292 679T305 676Q309 675 310 673T312 670L305 600Q305 598 306 595T312 592Q340 589 367 582T408 571Q413 570 418 564T426 548Q427 543 429 533T432 510T434 486T435 469Q436 453 431 444T417 435Q408 435 403 442T394 456Q381 492 359 515T308 549Q307 549 304 549T301 546L281 350Q281 343 288 340Q317 328 346 313T399 278T438 230T453 166Q453 125 435 96T389 47T325 16T256 2Q249 0 248 -4L239 -94Q237 -99 232 -100Q221 -106 212 -104Q208 -104 204 -102T197 -97L205 -4Q205 1 200 1Q181 3 162 6T128 12Q114 16 96 20T71 27Q65 29 61 32T53 45Q51 52 49 66T44 95T40 126T38 150Q38 156 45 162T57 168Q63 168 69 162T82 147Q90 136 99 122T118 94Q132 74 154 61T203 41Q208 41 210 46L229 248Q229 257 222 261Q190 276 162 291T112 326T78 372T65 434ZM150 460Q150 426 175 403T236 362Q237 361 239 363T241 368L258 546Q259 549 257 552T252 555Q201 552 176 525T150 460ZM359 138Q359 155 355 168T341 192T316 213T276 236Q274 238 272 235T270 230L253 47Q253 45 254 43T258 40Q274 43 291 49T324 68T349 97T359 138Z"  />
<glyph unicode="%" horiz-adv-x="765" d="M196 602Q233 602 260 587T305 547T331 493T340 435Q340 401 330 368T301 309T253 266T186 250Q149 250 122 264T76 303T48 357T39 420Q39 457 49 490T80 548T129 587T196 602ZM183 561Q163 561 151 548T133 516T124 475T121 434Q121 413 125 388T138 341T161 305T198 290Q218 290 230 303T248 337T255 378T257 417Q257 436 254 460T243 507T220 545T183 561ZM610 583Q553 502 500 426T396 274T293 124T190 -29Q189 -30 185 -32T176 -32Q172 -30 164 -25T153 -17Q148 -13 148 -7T151 2Q255 155 358 304T560 596Q566 605 572 608T581 612Q585 612 595 605T608 592Q612 585 610 583ZM580 339Q617 339 644 323T690 283T717 228T726 170Q726 134 717 101T688 43T640 3T572 -12Q534 -12 506 3T460 42T434 96T425 157Q425 191 435 223T464 281T513 323T580 339ZM568 299Q549 299 537 286T518 254T509 212T506 170Q506 152 510 128T523 81T547 43T584 27Q604 27 616 41T634 74T641 115T643 154Q643 171 640 195T628 243T605 282T568 299Z"  />
<glyph unicode="&amp;" horiz-adv-x="837" d="M293 614Q327 614 354 603T400 573T429 532T439 489Q439 466 432 450T412 420T382 396T346 373Q344 372 344 368T348 361Q359 354 378 340T420 307T463 269T501 228Q503 226 507 226T513 228Q523 239 535 255T559 288T579 320T595 343Q603 354 605 361T608 375Q608 385 574 394Q566 396 559 402T552 416Q552 425 561 430T580 436Q588 436 614 436T675 440Q710 443 731 446T767 449Q779 449 788 445T797 432Q797 415 762 407Q744 402 731 396T707 381T684 361T656 333Q645 322 630 304T598 266T565 227T537 195Q535 192 534 188T535 181Q546 166 558 150T587 112Q612 86 639 74T691 61Q714 61 733 68T766 85Q772 88 779 84T786 72Q786 53 768 34Q740 4 704 -7T633 -19Q616 -19 595 -16T557 -7Q552 -5 538 5T512 35Q501 53 489 73T468 102Q466 104 464 104T460 103Q437 77 407 50T350 9Q327 -4 300 -11T247 -18Q207 -18 172 -5T109 33T67 89T51 161Q51 194 60 219T89 267T135 308T197 348Q199 350 198 353T195 358Q184 366 173 378T153 406T139 438T133 471Q133 512 153 539T191 581Q208 594 234 604T293 614ZM277 574Q269 574 258 570T237 557T221 534T214 499Q214 482 222 466T242 437T270 412T300 395Q304 393 309 394T318 398Q330 404 345 424T360 480Q360 493 356 509T341 539T315 564T277 574ZM298 63Q335 62 371 83T430 137Q432 139 431 146T428 155Q408 183 382 211T329 262T279 303T245 325Q241 327 235 327T227 326Q214 316 200 302T175 272T157 237T149 198Q149 174 160 146T192 100Q212 83 239 73T298 63Z"  />
<glyph unicode="&apos;" horiz-adv-x="159" d="M108 678Q127 678 127 635Q127 618 124 593T117 541T107 494T98 464Q93 456 86 446T70 435Q62 435 57 443T50 456Q49 478 47 503T43 552T38 595T34 625Q33 630 35 637T40 647Q52 658 73 668T108 678Z"  />
<glyph unicode="(" horiz-adv-x="353" d="M142 240Q142 150 166 65T236 -96Q252 -121 264 -142T277 -167Q277 -181 264 -190T238 -199Q229 -199 215 -186T185 -152T154 -103T126 -48Q100 14 85 83T69 234Q69 310 82 375T117 492T163 584T211 649Q235 677 251 688T277 699Q282 699 290 693T299 679Q299 670 285 654Q260 624 235 586T189 498T155 385T142 240Z"  />
<glyph unicode=")" horiz-adv-x="353" d="M211 260Q211 350 187 435T117 596Q101 621 89 642T76 671Q76 682 88 690T115 699Q124 699 138 686T168 652T199 603T227 549Q253 486 268 417T284 266Q284 190 270 125T235 8T189 -84T142 -149Q117 -177 101 -188T75 -199Q68 -199 61 -192T54 -178Q54 -170 68 -153Q93 -123 118 -85T164 2T198 115T211 260Z"  />
<glyph unicode="*" horiz-adv-x="374" d="M168 658Q176 658 181 650T189 632Q194 613 197 591T208 536Q209 534 213 533T220 533Q242 548 266 562T301 582Q318 589 324 586T330 575Q330 566 328 562T319 551Q306 537 285 521T243 490Q241 489 241 486T244 481Q280 461 300 448T332 426Q344 417 346 412T349 402Q349 391 337 391T318 393Q300 398 274 409T226 431Q223 433 220 431T217 426Q219 400 219 380T219 343Q220 324 214 314T203 302Q193 302 188 310T179 326Q178 329 176 340T171 365T165 395T161 423Q159 431 153 427Q132 414 106 401T67 383Q32 372 32 388Q32 395 36 401T45 411Q53 419 76 435T124 469Q126 471 125 474T123 479Q102 489 81 501T42 525Q27 537 27 546Q28 556 37 558T56 557Q70 553 94 544T148 522Q149 521 152 524T154 529Q152 563 151 588T150 627Q152 658 168 658Z"  />
<glyph unicode="+" horiz-adv-x="646" d="M366 222Q363 222 361 220T359 216L358 -7Q358 -13 352 -17T338 -24T321 -27T305 -28Q300 -28 295 -25T289 -11V215Q289 219 285 222T277 225H77Q63 225 58 228T52 243Q52 249 53 256T58 270T64 281T72 286L281 288Q283 288 286 291T289 297V512Q289 516 295 519T309 525T326 529T341 531Q347 531 354 526T362 513L359 295Q359 291 362 289T368 286L575 288Q586 288 590 284T594 272Q594 252 589 239T575 225L366 222Z"  />
<glyph unicode="&#x2c;" horiz-adv-x="233" d="M104 138Q123 138 139 129T167 105T184 69T191 28Q191 -8 176 -36T139 -82T96 -110T62 -120Q51 -120 44 -115T37 -103Q37 -89 57 -78Q93 -55 104 -37T115 -1Q115 16 105 24T77 38Q67 40 54 51T41 81Q41 108 61 123T104 138Z"  />
<glyph unicode="-" horiz-adv-x="327" d="M67 243Q77 245 105 248T166 254T228 259T270 262Q275 262 279 254T284 241Q284 230 282 217T274 195Q272 192 266 188T259 183Q234 181 207 180T153 177T102 174T59 172Q48 171 45 180T42 192Q42 203 45 215T52 233Q54 236 59 239T67 243Z"  />
<glyph unicode="." horiz-adv-x="233" d="M118 127Q134 127 146 121T167 104T180 81T184 56Q184 25 164 6T114 -13Q90 -13 70 5T49 56Q49 73 55 86T72 108T95 122T118 127Z"  />
<glyph unicode="/" horiz-adv-x="429" d="M41 -55Q111 126 179 298T317 651Q324 665 330 669T340 673Q352 673 362 670T377 666Q381 665 384 659T384 646Q314 464 245 294T107 -50Q104 -58 99 -65T83 -75Q78 -76 69 -76T55 -74Q49 -74 44 -68T41 -55Z"  />
<glyph unicode="0" horiz-adv-x="494" d="M256 602Q316 602 355 573T419 499T452 402T462 303Q462 250 451 194T415 92T347 17T244 -12Q184 -12 144 18T80 93T45 190T35 289Q35 347 48 403T88 503T156 574T256 602ZM242 562Q222 562 207 550T181 518Q174 506 167 487T153 441T143 377T139 290Q139 251 145 206T166 121T203 57T256 31Q273 31 292 41T325 79Q339 109 348 166T357 299Q357 340 352 386T333 472T297 536T242 562Z"  />
<glyph unicode="1" horiz-adv-x="494" d="M111 11Q111 28 145 36Q166 41 177 46T195 58T203 76T206 104Q207 128 208 166T210 245T211 322T212 380Q212 416 212 444T210 489Q209 494 206 500T197 508Q186 510 170 510T146 513Q136 515 130 518T123 525Q123 530 127 538T143 549Q174 557 207 566T264 587Q294 601 299 601Q303 601 306 598T310 591Q310 578 309 537T308 426V126Q308 99 310 84T318 60T335 47T367 37Q393 29 393 15Q393 9 387 4T364 -1Q332 -1 316 -1T276 0Q228 0 198 -2T144 -5Q111 -5 111 11Z"  />
<glyph unicode="2" horiz-adv-x="494" d="M62 0Q49 0 41 5T32 16Q31 19 34 28T45 44Q63 59 84 79T129 123T174 169T217 216Q254 258 281 307T308 410Q308 437 300 458T277 493T243 514T204 522Q186 522 169 517T137 503T109 484T87 465Q79 457 72 452T62 447Q58 447 52 451T46 464Q46 469 49 477T59 496Q72 516 91 535T133 569T183 593T239 603Q276 603 308 591T363 555T399 501T412 431Q412 395 396 357T335 269Q318 250 292 224T241 172T195 127T169 102Q167 100 169 96T173 90Q180 87 199 85T241 82T287 81T327 81Q339 81 352 82T374 85Q381 87 395 96T429 127Q436 135 442 141T452 147Q461 147 466 136T468 116Q460 101 453 84T440 52T430 24T425 7Q424 4 420 1T410 -3Q366 -3 323 -3T241 -2T172 -1T123 0H62Z"  />
<glyph unicode="3" horiz-adv-x="494" d="M240 603Q276 603 304 592T353 562T383 520T394 473Q394 450 385 432T360 398T327 372T293 350Q291 348 292 346T295 343Q329 338 358 327T407 297T438 251T450 187Q450 159 439 129T407 70T355 16T282 -28Q217 -58 165 -58Q139 -58 116 -53T77 -40T51 -22T41 -1Q41 3 46 11T57 27T71 42T83 51Q86 52 94 51T104 47Q130 24 163 12T221 -1Q276 -1 310 38T344 147Q344 207 306 241T209 276Q196 276 177 272T145 265Q141 265 137 270T132 280Q132 287 136 293T147 305T160 314T172 320Q212 337 236 354T274 387T291 419T296 449Q296 464 290 479T273 507T246 526T211 534Q182 534 156 520T107 482Q88 463 80 463Q73 463 67 472T66 494Q93 544 140 573T240 603Z"  />
<glyph unicode="4" horiz-adv-x="494" d="M389 237Q389 233 393 229T399 225L483 227Q487 227 490 223T493 214Q493 210 492 203T488 190T481 178T472 173H398Q389 173 389 165V92Q390 78 392 69T399 52T413 41T438 33Q452 30 458 24T464 12Q464 -4 435 -4Q427 -4 415 -4T388 -3T360 -1T334 0Q316 0 303 0T279 -1T256 -1T231 -2Q200 -2 200 13Q200 22 209 27T228 34Q247 38 258 41T276 52T284 71T288 103Q290 120 291 139T291 163Q291 166 289 169T282 173Q139 173 31 170Q24 170 19 175T14 184Q14 189 18 201T32 225L341 634Q346 640 352 644T362 648Q365 648 370 648T382 648T393 648T400 647Q405 645 405 637T401 623L98 238Q96 235 99 231T104 227Q114 227 135 227T183 226T236 225T283 225Q291 225 291 233L292 397Q292 411 303 417Q307 420 316 423T337 430T358 435T374 438Q379 438 384 432T390 422L389 237Z"  />
<glyph unicode="5" horiz-adv-x="494" d="M437 180Q437 153 430 130T409 86T380 49T347 19Q322 0 291 -14T227 -39T165 -54T111 -59Q107 -59 101 -58T89 -54T79 -47T75 -35Q75 -31 81 -26T92 -19Q126 -14 168 -3T247 28T309 80T334 156Q334 188 318 216T261 262Q223 280 180 291T83 312Q74 313 68 327T61 348Q61 362 67 387T82 441T100 495T116 535Q119 543 130 554T149 567Q158 570 187 576T252 587T325 597T388 602Q393 602 397 597T401 589Q401 577 395 563T381 536T362 514T342 503Q320 501 295 500T245 497T199 495T166 492Q156 490 149 483T137 462Q134 453 129 441T124 423Q122 418 125 410T140 399Q185 389 236 375T330 339Q386 310 411 268T437 180Z"  />
<glyph unicode="6" horiz-adv-x="494" d="M322 367Q359 367 386 353T432 315T458 262T467 201Q467 147 441 105T370 30Q339 7 307 -2T245 -12Q195 -12 156 5T91 52T51 123T37 214Q37 268 57 321T112 424T192 515T286 587Q333 615 378 634T447 653Q452 653 460 645T469 632Q469 622 451 615Q396 592 341 551T241 456T168 342T140 217Q140 180 149 148T175 93T219 56T279 42Q296 42 313 48T344 69T366 107T375 165Q375 190 369 213T349 254T315 283T268 294Q258 294 248 291T229 283T213 275T203 269Q197 267 192 271T187 278Q187 286 189 297T197 314Q204 320 223 331T260 350Q276 358 290 362T322 367Z"  />
<glyph unicode="7" horiz-adv-x="494" d="M242 591Q290 591 324 591T376 592Q385 592 398 592T422 592T442 593T453 593Q459 593 464 589T472 579Q475 573 472 568Q466 560 454 538T424 482T386 410T344 329T303 247T265 172Q244 130 226 92T193 25T169 -23T158 -45Q156 -50 151 -53T143 -56Q133 -56 119 -49T104 -31Q104 -23 110 -12T124 14Q191 139 255 260T372 489Q374 491 372 496T367 501Q360 502 346 503T315 504T277 505T238 506Q206 506 178 505T127 502Q103 499 91 483T65 446Q59 438 52 432T31 426Q21 426 21 436Q21 448 35 482Q43 502 51 528T63 574Q65 585 71 592T84 598Q96 594 137 593T242 591Z"  />
<glyph unicode="8" horiz-adv-x="494" d="M239 -12Q189 -12 154 2T96 39T62 88T51 138Q51 165 59 184T82 220T118 250T165 281Q170 284 170 286T164 293Q147 306 131 320T102 352T81 392T73 441Q73 476 87 506T127 557T185 591T256 603Q293 603 324 591T378 559T412 512T425 453Q425 431 418 413T397 380T367 350T332 323Q327 320 327 317T330 311Q352 297 372 281T409 247T436 206T446 155Q446 110 424 78T371 26Q330 0 298 -6T239 -12ZM244 563Q206 563 183 535T160 469Q160 446 171 427T198 392T233 365T268 346Q274 344 282 344T293 345Q310 353 327 382T345 448Q345 462 339 481T320 519T288 550T244 563ZM257 30Q299 30 324 56T349 128Q349 149 338 169T310 206T270 236T225 260Q222 262 216 262T204 259Q176 245 159 216T142 158Q142 131 152 108T178 68T214 40T257 30Z"  />
<glyph unicode="9" horiz-adv-x="494" d="M259 603Q307 603 344 582T405 527T443 449T456 361Q456 310 439 257T391 154T316 61T218 -13Q176 -37 140 -50T85 -63Q74 -63 67 -58T59 -46Q59 -41 63 -37T81 -25Q148 7 199 50T284 143T335 248T352 360Q352 390 346 424T325 488T286 536T227 556Q203 556 185 545T156 517T138 478T132 436Q132 401 142 375T168 330T207 303T253 294Q268 294 281 300T301 310Q304 312 308 309T312 302Q312 298 312 292T309 281Q309 279 303 273T292 262Q270 247 241 236T191 225Q159 225 131 237T83 272T52 324T40 389Q40 412 46 438T65 489T100 536T152 575Q175 587 201 595T259 603Z"  />
<glyph unicode=":" horiz-adv-x="273" d="M136 120Q152 120 164 114T183 98T194 76T198 53Q198 27 179 8T131 -11Q107 -11 89 6T71 53Q71 70 78 82T94 103T115 116T136 120ZM138 405Q154 405 166 399T186 382T199 360T203 336Q203 311 183 290T133 269Q110 269 91 289T71 335Q71 352 77 365T93 387T115 400T138 405Z"  />
<glyph unicode=";" horiz-adv-x="273" d="M136 405Q153 405 165 399T186 382T198 360T202 336Q202 307 183 288T132 268Q107 268 88 285T69 335Q69 353 75 366T92 388T113 401T136 405ZM125 136Q144 136 159 127T186 103T203 69T209 28Q209 -8 194 -35T159 -80T117 -108T83 -118Q73 -118 66 -113T58 -102Q58 -89 79 -76Q115 -55 125 -36T135 -1Q135 19 124 27T95 40Q85 42 74 51T63 80Q63 107 83 121T125 136Z"  />
<glyph unicode="&lt;" horiz-adv-x="646" d="M519 -2Q517 -4 511 -5T501 -5Q411 40 325 90T150 189Q122 204 113 213T104 227Q104 233 108 240T119 253T133 265T146 274L492 465Q497 467 504 467T515 465Q520 460 526 451T535 432Q537 427 536 421T531 412L206 238Q199 235 205 232L537 54Q539 53 540 49T540 39Q538 30 533 18T519 -2Z"  />
<glyph unicode="=" horiz-adv-x="646" d="M73 306Q59 306 55 313T51 326Q51 332 52 339T57 353T63 364T71 369L583 372Q588 372 591 366T594 356Q594 338 588 323T576 307L73 306ZM70 95Q59 95 56 102T52 115Q52 121 53 128T56 142T62 154T68 159L581 160Q586 160 590 154T595 140Q595 123 590 110T579 97L70 95Z"  />
<glyph unicode="&gt;" horiz-adv-x="646" d="M542 235Q542 228 538 222T527 209T513 198T500 189L151 -4Q149 -6 142 -6T132 -2Q124 4 120 14T113 33Q109 49 116 51L440 224Q442 225 443 226T442 231L109 408Q104 412 107 427Q112 449 128 465Q130 467 136 468T145 468Q190 445 240 417T340 362T430 312T499 274Q526 259 534 251T542 235Z"  />
<glyph unicode="?" horiz-adv-x="387" d="M160 591Q198 591 233 566T290 506Q310 475 319 446T329 383Q329 348 314 326T284 295Q278 292 269 287T249 276T229 267T213 259Q202 254 199 241T195 207Q194 200 188 196T177 191Q163 191 150 219Q142 234 138 252T133 288Q133 313 157 333T241 386Q260 396 266 410T273 435Q273 453 266 465T246 485T219 496T187 500Q177 500 166 498T145 495Q130 495 117 505T103 529Q103 539 106 550T117 570T135 585T160 591ZM193 121Q207 121 218 115T238 99T251 77T256 54Q256 27 238 8T190 -12Q169 -12 149 5T128 53Q128 71 134 83T150 104T171 117T193 121Z"  />
<glyph unicode="@" horiz-adv-x="890" d="M486 326Q468 326 452 319T419 290Q401 271 386 248T360 200T343 154T337 113Q337 103 342 95T353 86Q360 86 378 94T432 136Q448 152 465 173T498 217T525 260T542 295Q546 304 541 309Q532 316 516 321T486 326ZM585 401Q588 404 593 407T603 410Q612 410 625 405T644 395Q649 390 649 382Q647 374 641 353T625 305T606 247T587 187T570 135T559 98Q554 81 564 70T589 58Q622 58 655 75T715 122T758 193T775 285Q775 345 753 393T693 476T604 528T495 547Q413 547 348 516T236 431T166 308T141 160Q141 104 160 48T218 -54T317 -128T458 -157Q489 -157 517 -152T570 -138T615 -119T651 -101Q653 -100 657 -99T665 -98T673 -101T677 -110Q677 -121 670 -131T656 -147Q631 -165 602 -178T542 -200T481 -212T423 -216Q357 -216 292 -194T175 -125T91 -10T59 151Q59 253 97 335T197 475T337 565T496 597Q578 597 641 572T747 505T812 406T835 287Q835 235 814 185T756 95T667 31T554 7Q527 7 513 10T491 19T481 31T477 44Q477 49 477 54T480 73L503 148Q500 153 496 151Q473 124 445 98T389 52T336 20T292 7Q272 7 258 24T244 66Q244 75 248 92T261 132T286 184T325 243Q345 269 370 294T421 339T471 371T514 384Q523 384 539 381T563 372Q567 370 570 371T574 375L585 401Z"  />
<glyph unicode="A" horiz-adv-x="677" d="M364 627Q372 627 379 605T404 532Q423 478 447 414T494 291T536 183T564 112Q572 92 578 81T593 62T613 49T646 37Q663 31 669 23T676 7Q676 2 669 -1T650 -5Q613 -5 579 -3T507 0Q490 0 481 0T463 -1T447 -2T427 -3Q412 -3 405 2T398 12Q398 18 403 25T422 37Q456 47 462 57T461 93Q458 103 453 118T442 150T430 182T419 209Q417 214 410 218T393 224Q386 224 363 224T312 224T260 224T223 222Q219 222 214 217T207 208Q202 194 196 175T183 137T173 102T169 79Q169 68 177 58T219 37Q229 34 235 30T242 19Q242 12 234 5T207 -3Q203 -3 194 -3T174 -2T150 -1T126 0Q113 0 103 -1T81 -2T59 -4T32 -5Q18 -5 8 -1T-2 11Q-2 19 4 25T28 37Q64 47 80 61T106 97Q114 113 127 143T156 212T189 295T225 385T259 471T288 547Q290 552 291 559T294 574Q294 576 296 580T301 585Q310 591 322 600T343 616Q348 621 354 624T364 627ZM389 277Q391 277 393 281T394 288Q389 307 378 337T356 398T334 453T321 484Q319 489 315 488T308 484Q300 464 291 440T273 389T254 336T237 288Q236 285 238 282T245 277Q251 277 272 277T316 276T361 276T389 277Z"  />
<glyph unicode="B" horiz-adv-x="597" d="M505 468Q505 441 497 421T474 385Q468 378 450 367T417 349Q415 348 416 343T422 336Q448 328 471 314T512 281T540 237T551 184Q551 148 540 120T511 72T471 38T427 16Q396 4 359 -1T290 -6Q242 -6 202 -4T132 -1Q106 0 87 -1T54 -3Q43 -3 32 1T21 15Q21 32 59 41Q74 44 85 47T105 57T117 75T124 105Q125 112 125 127T127 169T128 238T129 340Q129 362 129 389T129 441T128 488T126 520Q125 532 122 540T113 555T94 564T60 571Q52 572 44 577T35 592Q35 600 45 604T73 609H130Q157 609 203 612T300 616Q355 616 393 604T451 576Q477 556 491 528T505 468ZM404 459Q404 481 396 502T372 539T330 564T268 574Q260 574 250 573T237 569Q234 567 231 565T227 554Q226 529 226 498T225 438T225 387T227 358Q229 353 236 350T255 346Q292 346 322 352T362 364Q366 366 373 372T387 390T399 419T404 459ZM439 174Q439 209 426 234T392 276T342 299T284 307Q274 307 259 306T240 302Q238 301 234 295T227 278Q225 270 225 245T224 191T226 134T231 94Q234 81 244 70T266 52T291 40T311 35Q329 35 347 41T380 57T405 76T419 93Q427 111 433 131T439 174Z"  />
<glyph unicode="C" horiz-adv-x="687" d="M420 627Q455 627 486 621T542 609Q561 604 581 598T607 591Q612 591 617 585T622 574Q622 566 623 553T625 524T627 494T628 470Q628 449 621 440T604 430Q596 430 592 439T584 459Q576 491 561 514T517 555Q494 569 463 576T400 584Q382 584 362 580T323 568T285 549T252 524Q232 505 218 481T193 429T177 374T172 319Q172 294 176 267T189 214T207 166T230 129Q248 106 271 88T319 57T371 38T422 31Q443 31 474 39T526 58Q534 62 550 79T581 122Q594 146 601 156T616 167Q625 167 629 157T634 132Q634 129 632 117T625 89T618 60T612 38Q610 33 604 26T595 16Q583 11 561 5T513 -6T459 -14T408 -18Q326 -18 253 7T132 87Q99 123 76 177T53 298Q53 384 88 450T190 563Q224 586 281 606T420 627Z"  />
<glyph unicode="D" horiz-adv-x="741" d="M150 609Q163 609 183 610T227 612T277 615T330 617Q402 617 470 600T594 534Q625 508 645 478T676 419T692 361T696 309Q696 252 681 208T642 131T593 77T547 44Q493 15 433 4T317 -8Q302 -8 279 -7T231 -5T185 -2T151 0Q139 0 123 0T91 -2T61 -4T37 -5Q32 -5 27 -1T21 8Q21 16 30 25T59 40Q69 43 80 46T100 56T115 72T124 100Q126 117 127 136T129 181T130 243T131 328Q131 379 131 414T130 472T128 509T125 531Q124 535 122 540T114 550T97 559T65 567Q47 569 38 576T29 590Q29 609 70 609H150ZM232 300Q232 252 232 223T234 175T236 146T238 123Q243 93 253 79T270 60Q275 57 285 53T308 45T334 39T358 36Q366 36 384 40T425 54T470 75T510 105Q545 140 563 191T582 306Q582 363 564 413T508 502Q473 536 422 554T320 573Q316 573 307 573T288 571T267 568T252 564Q248 563 243 556T236 543Q236 533 235 515T234 474T233 423T232 368V300Z"  />
<glyph unicode="E" horiz-adv-x="570" d="M311 609Q344 609 366 609T405 610T431 612T451 613Q467 615 474 604Q476 600 478 587T483 557T487 525T489 501Q489 491 484 483T472 475Q463 475 454 486T430 529Q419 552 408 558T394 564Q373 564 349 564T304 563T268 562T247 561Q245 561 241 555T236 544Q235 534 235 514T234 468T233 414T233 360Q233 354 235 344T245 333Q248 333 256 333T274 332T293 332T309 332Q333 333 348 336T372 344T386 357T396 376Q406 404 420 404Q440 404 437 364Q436 355 435 342T434 314Q434 297 434 279T436 248Q438 228 431 221T419 214Q414 214 407 220T394 241Q386 261 379 269T356 280Q325 282 302 282T245 283Q240 283 237 274T233 256Q233 194 234 162T236 114Q239 69 247 63Q254 56 280 49T360 42Q388 42 403 44T435 51Q455 57 468 71T498 109Q511 129 518 139T535 149Q547 149 548 134T547 104Q545 93 540 79T530 52T521 29T515 15Q511 5 499 0T483 -5Q469 -5 454 -4T413 -3T345 -1T235 0Q211 0 186 -1T138 -2T93 -4T55 -5Q18 -5 18 8Q18 27 50 35Q74 41 89 46T112 59T123 75T128 97Q129 108 129 121T130 157T131 213T131 299Q131 326 131 362T130 433T129 493T127 526Q125 549 110 558T64 576Q50 579 44 585T37 597Q37 606 46 610T65 614Q78 614 118 612T208 609H311Z"  />
<glyph unicode="F" horiz-adv-x="558" d="M337 609Q385 609 415 610T463 612T487 614T496 615Q503 615 507 609T512 595V503Q512 482 504 474T491 466Q486 466 480 472T469 495Q461 529 449 544T410 562Q389 564 351 564T250 563Q244 563 240 556T235 543Q234 533 234 506T233 448T232 385T232 336Q234 325 242 325Q250 325 265 325T297 326T330 327T358 329Q382 331 389 342T403 369Q407 383 414 391T428 400Q437 400 441 391T445 370Q445 354 444 335T442 302Q442 295 442 285T444 264T445 246T446 235Q446 221 441 212T427 203Q414 203 404 227Q396 246 388 259T363 275Q355 277 324 277T241 276Q234 276 232 256V102Q233 70 247 58T294 38Q314 33 321 26T328 13Q328 6 321 1T299 -5Q286 -5 268 -4T231 -3T192 -1T158 0Q142 0 117 -2T64 -4Q51 -4 43 -1T35 11Q35 19 44 25T69 37Q99 45 111 58T125 91Q126 102 127 117T129 155T130 213T131 297Q131 353 131 389T131 450T131 490T129 523Q127 547 114 556T71 573Q60 576 51 582T42 596Q42 604 51 608T74 613Q102 613 136 611T222 609H337Z"  />
<glyph unicode="G" horiz-adv-x="752" d="M419 627Q466 627 497 620T561 605Q577 600 585 600T607 597Q617 595 621 592T629 577Q632 568 636 554T644 525T651 492T654 460Q654 453 651 443T637 432Q623 432 609 457Q598 477 587 493T558 527Q529 554 489 569T410 584Q353 584 309 562T235 502T189 415T173 312Q173 253 192 202T245 111T328 50T434 27Q440 27 450 28T472 31T495 37T514 47Q520 51 529 71T539 117Q539 131 539 147T539 177T538 203T537 220Q535 231 527 238T491 250Q462 255 455 262T448 278Q448 283 457 288T483 294Q504 294 525 293T571 291Q582 291 597 292T629 293T658 295T680 296Q708 296 708 277Q708 271 700 265T678 254Q654 246 649 237T642 216Q640 199 640 179T640 141Q640 110 641 93T645 66Q646 61 646 57T647 46Q647 43 643 37T633 29Q623 26 615 23T599 15T579 8T552 0Q522 -7 490 -12T421 -18Q310 -18 234 19T115 112Q83 154 68 204T53 309Q53 385 85 446T178 552Q222 585 287 606T419 627Z"  />
<glyph unicode="H" horiz-adv-x="804" d="M232 360Q232 355 236 350T248 345Q288 345 333 345T421 346T498 346T553 344Q555 344 561 349T567 359Q567 371 567 397T567 450T565 502T563 534Q562 547 545 555T508 569Q482 576 475 582T468 594Q468 602 475 607T499 612Q530 612 559 611T618 609Q633 609 648 609T679 611T706 612T726 613Q741 613 748 608T755 596Q755 588 748 583T721 573Q691 567 682 556T671 526Q670 512 670 490T669 440T668 379T667 311Q667 242 668 187T671 103Q673 85 676 75T687 58T704 47T732 39Q749 35 756 28T764 14Q764 -3 734 -3Q727 -3 715 -3T689 -2T660 -1T631 0Q592 0 560 -1T504 -3Q469 -3 469 13Q469 21 476 27T502 39Q521 43 532 48T549 61T558 78T563 103Q564 115 565 134T567 176T568 219T567 254Q565 279 561 284T555 290Q503 290 451 290T354 290T280 289T243 287Q238 286 235 280T232 271Q232 227 232 196T232 145T233 113T235 95Q236 83 239 74T250 59T271 47T307 35Q316 33 323 26T331 13Q331 -3 296 -3Q274 -3 248 -2T190 0Q178 0 162 -1T130 -2T97 -4T70 -5Q37 -5 37 11Q37 19 45 25T68 36Q86 41 97 46T115 60T123 79T127 106Q128 122 128 152T129 223T130 312T130 415Q130 471 129 498T125 536Q123 542 121 547T111 557T92 567T59 577Q51 579 44 584T37 597Q37 605 46 609T70 613Q113 613 143 611T194 609Q217 609 233 610T275 612Q287 612 295 608T304 594Q304 587 295 582T277 573Q254 566 243 555T232 517Q232 494 232 451T232 360Z"  />
<glyph unicode="I" horiz-adv-x="361" d="M131 463Q131 495 129 514T121 544T101 562T64 574Q39 580 39 596Q39 602 49 607T71 612Q85 612 113 611T175 609Q220 609 246 611T294 613Q303 613 311 608T319 595Q319 587 311 583T297 576Q276 571 264 566T245 552T237 531T234 499Q233 484 233 458T233 402T233 341T233 284Q233 202 233 161T234 109Q235 91 238 80T248 60T270 47T306 36Q333 29 333 15Q333 5 321 1T300 -4Q296 -4 282 -4T249 -2T212 -1T180 0Q167 0 150 -1T117 -3T87 -5T66 -6Q56 -6 47 -2T38 10Q38 17 45 23T64 34Q83 40 94 45T111 56T120 67T125 81Q126 89 127 115T129 175T130 246T131 314V463Z"  />
<glyph unicode="J" horiz-adv-x="349" d="M-72 -152Q-72 -141 -60 -127T-39 -104Q-31 -96 -25 -94T-13 -91Q-8 -91 -2 -94T14 -103Q31 -113 46 -120T75 -127Q91 -127 102 -116T118 -84Q123 -66 127 -24T132 84Q132 221 132 330T131 509Q130 537 116 550T61 572Q46 576 39 583T31 595Q31 603 43 608T68 614Q94 614 126 612T192 609Q226 609 255 611T296 613Q312 613 317 607T323 595Q323 589 316 582T295 572Q262 563 249 551T236 504Q236 436 235 367T234 239T232 139T231 87Q231 46 221 10T195 -57T159 -111T119 -150Q87 -173 56 -185T5 -197Q-27 -197 -49 -183T-72 -152Z"  />
<glyph unicode="K" horiz-adv-x="713" d="M38 596Q38 602 46 608T67 614Q72 614 85 613T113 612T144 610T168 609Q186 609 204 609T238 610T265 610T281 611Q289 611 299 607T309 595Q309 585 299 579T283 571Q250 563 241 553T231 531Q231 526 231 500T229 443T228 382T229 339Q231 331 240 331Q243 331 249 333T265 344Q288 363 319 391T379 449T433 503T468 541Q474 549 469 556T439 568Q410 574 410 592Q410 597 416 603T436 609H489Q534 610 568 613T633 616Q656 616 663 611T671 597Q671 592 664 585T639 575Q574 563 516 515Q501 503 485 491T449 461T403 419T340 361Q338 359 338 354T340 346Q370 311 405 274T472 202T531 141T573 99Q587 85 599 75T624 59T649 47T678 36Q695 30 701 25T708 11Q708 6 700 0T678 -7Q660 -7 635 -6T584 -4T534 -1T496 0H446Q435 0 427 6T419 20Q419 33 448 42Q479 51 461 74Q447 91 421 119T366 178T309 238T263 286Q255 294 249 297T239 300Q229 300 229 281Q229 264 229 240T229 191T229 140T232 95Q233 78 237 69T248 54T266 45T290 39Q311 34 317 28T324 15Q324 7 316 2T296 -4Q291 -4 279 -4T252 -2T222 -1T194 0Q176 0 156 -1T117 -3T84 -5T62 -6Q52 -6 42 -2T31 12Q31 21 38 26T59 35Q78 40 90 45T110 57T121 74T126 102Q127 114 127 129T129 170T130 237T131 341Q131 399 131 432T131 483T131 510T129 526Q128 533 127 539T120 551T103 562T72 572Q38 579 38 596Z"  />
<glyph unicode="L" horiz-adv-x="559" d="M45 597Q45 603 53 608T74 613Q76 613 88 613T116 611T151 610T185 609Q215 609 248 611T296 613Q325 613 325 595Q325 579 297 573Q262 565 250 554T235 520Q234 511 233 499T232 466T231 413T230 333Q230 278 230 237T231 166T233 115T236 81Q236 74 248 62T279 45Q294 42 314 41T353 41T387 43T408 46Q438 56 460 78T503 141Q517 166 527 166Q535 166 540 155T545 134Q545 125 541 109T531 76T521 42T513 19Q508 8 496 2T469 -5Q456 -5 428 -4T363 -3T280 -1T189 0Q138 0 105 -3T54 -6Q37 -6 29 0T21 13Q21 21 29 27T50 36Q75 42 89 48T110 62T121 78T126 95Q128 106 129 155T130 295Q130 363 130 402T129 464T128 498T126 519Q124 544 112 554T74 572Q57 577 51 583T45 597Z"  />
<glyph unicode="M" horiz-adv-x="894" d="M68 591Q68 599 77 606T98 613Q107 613 130 613T178 611T222 610T244 609Q249 609 254 604T261 595Q264 584 272 564T297 506Q302 493 314 467T342 408T375 339T409 270T439 211T459 172Q460 169 464 170T473 179Q475 184 486 207T514 262T549 333T585 406T617 469T637 510Q653 542 660 561T673 593Q674 598 680 603T691 609Q697 609 715 610T754 611T795 613T828 614Q836 614 848 610T861 595Q861 587 855 583T830 574Q785 563 772 552T758 526Q758 466 759 407T761 296T765 201T768 131Q769 103 773 87T785 61T804 46T831 36Q863 26 863 13Q863 5 855 0T833 -6Q828 -6 810 -5T770 -3T727 -1T693 0Q669 0 652 -1T617 -3Q604 -3 595 2T586 15Q586 23 595 28T618 38Q632 42 641 47T654 60T661 81T663 115Q663 121 663 142T664 192T664 257T664 327T664 394T665 451Q665 456 660 454T653 450Q648 441 637 418T611 364T581 299T551 235T527 182T512 150Q507 141 501 125T487 91T472 57T461 29Q454 11 444 2T423 -7Q416 -7 410 3T397 27Q393 38 386 56T372 94T359 131T348 159Q334 195 317 234T282 312T248 384T222 445Q220 447 216 450T211 447Q208 412 205 364T199 267T196 178T194 118Q194 95 196 82T206 61T224 48T254 38Q271 33 276 28T281 15Q281 7 271 2T249 -3Q238 -3 216 -2T171 0Q159 0 142 -1T109 -2T79 -4T61 -5Q47 -5 38 -1T28 14Q28 21 34 26T59 36Q94 45 111 63T133 113Q136 130 140 163T148 236T156 319T163 399T168 462T170 495Q170 516 168 529T157 550T135 564T96 574Q84 576 76 581T68 591Z"  />
<glyph unicode="N" horiz-adv-x="761" d="M16 602Q16 615 37 615Q52 615 72 614T114 612T156 610T189 609Q194 609 201 603T210 595Q218 581 244 550T306 480Q319 466 342 441T392 385T449 322T504 261T549 211T578 182Q580 180 584 182T589 189Q590 197 591 229T593 302T594 385T591 458Q589 489 587 508T578 539T557 557T517 570Q499 574 494 581T488 594Q488 599 495 604T519 610Q532 610 540 610T556 610T570 609T587 609Q602 609 619 610T653 612T683 614T704 615Q720 615 728 610T736 597Q736 592 730 586T698 572Q671 563 661 551T648 523Q647 510 646 469T643 377T640 273T639 186Q639 153 640 111T642 33Q642 1 636 -9T620 -19Q612 -19 599 -11T576 11Q566 25 553 43T524 79T495 114T470 143Q461 154 440 177T393 231T338 294T281 358T233 412T200 449Q196 452 193 449T190 439Q189 422 188 395T186 338Q186 321 186 295T187 241T189 191T190 158Q191 125 193 106T202 74T220 55T252 42Q270 36 278 30T286 13Q286 4 276 0T254 -4Q233 -4 215 -2T177 0Q159 0 141 -1T106 -3T78 -5T61 -6Q47 -6 38 -2T28 11Q28 27 56 35Q79 41 92 48T113 65T124 87T128 117Q129 134 130 166T133 237T136 319T139 398T140 461T141 496Q141 504 135 517T110 547Q99 559 80 565T47 575Q34 577 25 585T16 602Z"  />
<glyph unicode="O" horiz-adv-x="774" d="M387 627Q457 627 518 603T624 537T695 436T721 307Q721 266 710 226T678 148T626 79T555 24Q523 6 479 -6T387 -18Q315 -18 254 7T149 76T79 178T53 302Q53 361 75 419T143 523Q189 570 254 598T387 627ZM369 584Q351 584 333 579T298 566T267 548T243 528Q211 494 191 442T171 315Q171 263 187 212T234 119T309 52T410 26Q443 26 474 38T527 70Q556 98 579 153T602 302Q602 353 586 403T540 494T467 559T369 584Z"  />
<glyph unicode="P" horiz-adv-x="571" d="M422 414Q422 449 413 478T389 524Q371 547 338 560T266 573Q248 573 241 566Q239 564 237 560T234 552Q232 535 231 479T230 330Q230 292 230 257T230 194T229 148T229 126Q229 101 231 86T241 61T263 46T303 34Q327 28 327 13Q327 5 318 1T298 -4Q275 -4 255 -2T203 0Q189 0 170 -1T131 -3T93 -5T62 -6Q50 -6 40 -2T29 11Q29 19 36 24T60 34Q80 40 91 45T108 58T116 78T121 108Q123 125 126 196T130 397Q130 452 129 483T126 531Q124 548 110 556T67 572Q55 575 47 582T38 597Q38 606 44 609T64 612Q74 612 88 612T118 611T146 610T166 609Q192 609 224 612T297 615Q363 615 407 597T478 553Q500 530 514 494T528 421Q528 370 509 336T470 283Q455 268 437 258T399 242T363 232T332 229Q324 229 313 230T294 237Q289 239 283 245T277 255Q277 262 281 265T288 269Q291 269 298 270T309 272Q327 273 346 281T383 306T411 349T422 414Z"  />
<glyph unicode="Q" horiz-adv-x="775" d="M385 627Q457 627 518 604T625 538T695 436T721 305Q721 243 700 188T639 91Q626 77 608 64T571 39T536 18T510 5Q506 3 505 -1T507 -9Q520 -23 538 -39T578 -73T623 -108T671 -140Q711 -163 749 -175T817 -187Q832 -187 853 -185T894 -177Q899 -175 906 -176T914 -186Q914 -199 905 -206T889 -218Q867 -234 834 -242T767 -250Q705 -250 647 -226T537 -168Q513 -152 493 -137T451 -105T407 -73T357 -37Q332 -19 306 -11Q252 6 206 33T126 99T73 187T53 299Q53 382 88 448T183 559Q203 574 228 586T280 608T334 622T385 627ZM363 584Q355 584 341 582T310 572T275 553T240 521Q211 487 191 440T171 316Q171 262 187 210T235 118T310 52T412 27Q441 27 474 38T533 79Q559 108 581 160T603 295Q603 355 587 408T539 500T463 561T363 584Z"  />
<glyph unicode="R" horiz-adv-x="645" d="M521 454Q521 426 509 397T474 348Q471 345 463 339T445 327T427 316T414 309Q412 308 412 302T413 292Q419 281 433 257T466 206T505 150T542 103Q560 83 574 70T602 48T629 34T657 25Q672 20 672 9Q672 1 665 -3T649 -11T630 -15T614 -16Q596 -16 576 -14T532 -2T484 28T431 85Q417 103 401 125T370 170T342 212T321 242Q304 266 286 271T244 276Q238 276 234 271T230 261Q230 201 231 163T234 98Q236 71 248 60T295 38Q323 29 323 15Q323 6 312 1T289 -4Q280 -4 266 -4T236 -2T204 -1T175 0Q152 0 133 -2T85 -4Q67 -4 58 1T48 14Q48 26 77 36Q92 41 102 45T118 56T127 74T131 104Q131 117 131 132T132 173T132 241T132 351Q132 396 132 426T131 477T130 510T128 531Q126 546 115 555T74 570Q61 572 53 578T45 591Q45 603 57 607T85 611H172Q204 611 237 613T308 616Q374 616 407 604T459 578Q494 552 507 521T521 454ZM418 441Q418 467 411 491T387 533T344 563T281 574Q273 574 260 572T239 566Q235 564 232 559T228 546Q228 527 228 499T228 442T229 384T230 337Q230 327 238 325Q255 320 268 318T297 316Q303 316 314 319T339 327T365 338T385 351Q396 362 407 386T418 441Z"  />
<glyph unicode="S" horiz-adv-x="483" d="M276 627Q312 627 344 619T404 603Q409 602 412 593T416 575Q416 570 417 560T418 539T420 518T421 501Q421 465 399 465Q392 465 388 474T381 489Q350 587 257 587Q236 587 219 579T188 558T168 527T161 492Q161 470 166 453T184 421T218 390T271 356Q309 335 340 314T393 270T427 219T439 155Q439 130 431 109T412 70T386 41T360 20Q346 11 329 4T293 -8T256 -15T221 -18Q201 -18 179 -15T136 -8T99 3T73 16Q69 19 65 23T57 36Q48 56 45 83T41 128Q41 145 46 154T59 163Q70 163 75 155T86 136Q114 74 157 49T240 24Q255 24 272 30T304 48T328 78T338 123Q338 140 333 155T313 187T274 223T208 266Q182 281 157 299T113 341T81 393T69 458Q69 508 94 541T150 595Q174 609 206 618T276 627Z"  />
<glyph unicode="T" horiz-adv-x="691" d="M531 609Q573 609 590 612T615 621Q623 629 628 633T639 638Q642 638 651 631T660 618Q660 615 658 604T654 574T650 533T648 485Q648 473 642 464T625 455Q617 455 613 463T606 479Q601 503 595 517T580 540T563 551T543 555Q532 557 499 558T403 559Q401 559 397 555T391 545Q390 536 389 511T388 454T387 390T386 334Q386 311 386 284T386 230T386 177T389 131Q391 104 395 89T408 64T429 50T460 37Q474 32 482 27T491 13Q491 5 482 0T458 -5Q454 -5 439 -4T403 -3T357 -1T310 0Q269 0 244 -1T199 -3Q167 -3 167 17Q167 30 196 39Q222 46 238 51T265 65T278 88T282 128Q282 136 282 159T283 218T284 300T285 402V536Q285 545 281 552T275 559Q266 559 246 559T204 559T164 560T140 560Q127 560 109 547T72 485Q62 457 49 457Q36 457 32 467T29 496Q30 519 34 551T36 619Q35 627 44 633T58 639Q60 639 64 637T74 630Q85 619 96 616T130 611Q145 610 153 610T166 609T178 609T196 609H531Z"  />
<glyph unicode="U" horiz-adv-x="739" d="M31 597Q31 608 42 611T74 614Q86 614 100 613T131 612T162 610T190 609Q223 609 246 610T281 612Q298 612 306 607T314 594Q314 586 305 580T284 571Q265 567 254 563T236 550T226 530T222 497Q219 456 219 391T223 255Q225 219 229 194T241 151T256 121T274 99Q294 78 330 63T403 48Q434 48 462 57T513 86T550 139T571 219Q573 235 574 262T577 319T578 380T579 432Q579 474 577 499T568 539T546 559T506 571Q491 574 484 580T477 594Q477 600 485 606T510 612Q525 612 541 611T587 609Q600 609 616 610T649 611T679 613T702 614Q713 614 722 611T731 597Q731 591 724 584T701 572Q682 567 671 563T654 551T645 533T640 503Q639 498 638 477T636 425T632 362T629 299Q626 243 619 202T602 131T576 80T543 40Q512 10 467 -4T374 -18Q346 -18 318 -13T263 4T214 30T177 65Q156 93 145 124T129 188T123 251T122 308Q122 383 120 434T116 516Q115 531 112 540T102 556T85 565T60 573Q31 580 31 597Z"  />
<glyph unicode="V" horiz-adv-x="681" d="M3 597Q3 605 13 609T36 614Q61 614 91 612T149 609Q176 609 201 610T246 611Q261 611 269 605T278 591Q278 584 270 578T248 568Q229 562 221 554T218 523Q220 514 229 486T253 421T283 341T315 263T341 200T358 167Q366 158 371 167Q386 201 406 248T445 343T481 433T506 499Q512 517 513 527T512 545T498 558T468 569Q454 574 448 581T441 593Q441 603 451 607T476 611Q493 611 511 610T555 609Q584 609 602 611T646 613Q662 613 670 608T679 595Q679 587 670 582T644 571Q612 563 597 546T564 496Q553 474 535 436T496 350T452 246T405 134Q397 113 390 93T377 56T367 27T360 9Q356 0 346 -9T327 -19Q312 -19 305 3Q303 9 299 22T289 52T276 88T262 127Q257 140 245 171T217 243T183 327T149 410T120 480T102 521Q97 531 93 538T81 550T63 561T32 572Q3 583 3 597Z"  />
<glyph unicode="W" horiz-adv-x="969" d="M-7 599Q-7 606 2 610T22 614Q36 614 53 613T86 612T115 610T136 609Q165 609 186 610T230 612Q250 612 256 606T263 594Q263 586 255 580T234 571Q205 565 200 550T200 514Q202 506 210 483T230 428T256 359T283 286T308 219T328 170Q332 163 335 161T341 164Q344 171 356 202T384 277T418 367T450 452Q457 470 458 479T458 495Q458 500 455 512T445 538Q436 555 423 561T394 572Q385 575 376 580T366 596Q366 602 374 607T396 612Q407 612 422 612T454 611T486 610T511 609Q531 609 549 610T589 612Q603 612 610 607T618 596Q618 591 612 584T592 573Q573 569 561 563T549 544Q549 533 552 522T560 493Q566 475 576 447T598 387T623 321T648 257T670 201T686 163Q688 158 692 159T699 164Q707 183 720 219T748 297T777 381T801 453Q815 495 818 511T822 539Q822 553 806 560T772 572Q758 576 753 583T747 595Q747 600 753 606T774 612Q784 612 812 611T867 609Q893 609 916 611T954 614Q983 614 983 596Q983 588 976 582T960 574Q939 567 926 560T903 544T887 523T873 495Q865 477 850 437T816 348T778 246T743 154Q740 145 734 128T721 91T708 54T698 24Q690 2 679 -8T663 -18Q639 -18 626 27Q617 53 606 85T582 152T556 222T531 289T508 348T490 394Q490 396 485 399T477 397Q464 363 446 314T409 216T375 127T355 70Q346 47 341 33T327 8Q324 3 316 -8T302 -19Q294 -19 286 -11T276 6Q268 32 256 67T230 144Q215 183 200 224T170 303T143 373T122 429Q107 468 96 494T75 536T53 560T25 573Q5 578 -1 585T-7 599Z"  />
<glyph unicode="X" horiz-adv-x="696" d="M18 600Q18 605 25 610T49 615Q56 615 70 614T101 612T135 610T168 609Q200 609 227 610T273 611Q285 611 294 606T303 592Q303 584 296 580T279 572Q265 567 259 559T266 532Q270 526 283 505T313 458T343 412T364 386Q369 382 371 380T379 382Q382 386 392 400T416 432T446 473T477 519Q494 543 488 553T453 573Q427 582 427 591Q427 597 435 604T451 611Q468 611 486 610T528 609Q540 609 558 610T594 611T629 613T654 614Q665 614 672 612T679 602Q679 593 671 585T645 573Q607 565 577 546T518 491Q506 477 491 459T461 421T431 382T404 346Q401 341 402 337T405 327Q407 321 417 306T442 269T473 223T505 176T534 136T554 110Q565 96 576 86T600 66T629 51T667 39Q701 32 701 15Q701 4 690 0T668 -5Q652 -5 634 -4T596 -3T558 -1T523 0Q511 0 497 0T471 -1T450 -2T436 -3Q427 -3 417 2T407 17Q407 27 430 41Q442 48 451 55T452 76Q445 87 430 111T397 162T363 212T337 246Q334 249 329 251T320 249Q302 226 284 202T251 156T224 116T205 86Q196 70 202 62T227 43Q241 34 246 28T252 15Q252 7 245 2T223 -3Q209 -3 184 -2T137 0Q128 0 113 -1T82 -3T51 -5T29 -6Q21 -6 9 -2T-3 14Q-3 21 5 27T23 36Q58 46 91 59T147 101Q185 146 223 193T297 291Q300 295 299 301T294 314Q289 323 273 348T237 402T197 459T165 504Q150 523 137 535T110 554T82 566T51 574Q31 579 25 585T18 600Z"  />
<glyph unicode="Y" horiz-adv-x="634" d="M-5 597Q-5 606 5 610T25 614Q32 614 46 613T75 612T107 610T134 609Q166 609 194 611T235 613Q245 613 253 609T262 596Q262 588 256 583T232 572Q212 567 212 559T219 533Q232 508 250 475T285 411T316 357T334 327Q338 323 340 323T347 326Q349 328 357 340T376 371T400 410T424 452T445 489T458 514Q472 543 470 554T438 573Q412 581 412 595Q412 612 446 612Q469 612 489 611T520 609Q543 609 567 611T612 614Q626 614 633 609T641 597Q641 591 634 584T612 573Q584 565 562 552T515 507Q499 486 477 453T433 386T395 324T373 283Q368 272 366 259T362 230Q361 216 361 196T361 155T361 114T361 83Q362 76 365 70T376 59T398 48T436 37Q447 34 453 28T459 16Q459 8 450 2T425 -4Q411 -4 381 -2T319 0Q301 0 283 0T248 -2T218 -3T196 -4Q165 -4 165 15Q165 25 176 30T201 40Q216 44 226 48T243 62T253 86T258 126Q259 138 259 154T260 186T260 215T260 237Q260 250 256 262T240 296Q229 318 212 351T175 417T137 478T109 520Q98 534 80 548T24 574Q7 579 1 585T-5 597Z"  />
<glyph unicode="Z" horiz-adv-x="617" d="M381 609Q390 609 408 609T447 611T488 613T522 615Q528 615 533 607T539 594Q538 591 532 581T516 557T496 528T477 501Q457 473 431 433T375 349T317 259T264 175T223 108T200 70Q198 65 199 59T204 52Q256 47 316 46T430 48Q459 50 486 66T539 125Q559 154 568 163T588 173Q604 173 598 138Q595 123 589 105T574 70T559 38T546 16Q540 7 530 1T502 -6Q452 -6 396 -5T292 -3T209 -1T166 0Q153 0 136 0T104 -2T78 -3T66 -4Q60 -4 50 0T40 11Q41 19 45 27T56 43Q83 80 117 130T187 235T257 342T319 439T364 512T384 549Q386 552 385 556T378 561Q364 561 338 561T282 562T220 563T164 564Q149 564 130 547T79 482Q70 468 61 464T39 459Q33 459 33 469T35 491Q36 494 40 506T49 534T60 569T69 604Q70 608 77 616T89 624Q113 619 136 617T176 613Q191 612 217 611T272 610T331 609T381 609Z"  />
<glyph unicode="[" horiz-adv-x="353" d="M110 673Q139 673 178 673T265 674Q280 674 290 667T300 651Q300 641 289 634T261 626Q258 626 245 625T217 623T187 621T168 619Q162 618 158 613T152 602Q151 597 150 564T148 479T147 365T146 237Q146 154 146 72T148 -94Q149 -107 155 -112T173 -120Q176 -120 186 -121T207 -124T230 -126T246 -127Q261 -128 271 -134T281 -152Q281 -161 268 -167T246 -174Q226 -176 205 -176T162 -177Q146 -177 126 -177T89 -175Q87 -175 81 -167T75 -154L81 328Q82 406 84 484T86 643Q86 652 92 662T110 673Z"  />
<glyph unicode="\" horiz-adv-x="421" d="M90 673Q96 673 101 670T109 662Q139 583 174 490T245 301T316 115T380 -52Q381 -57 377 -62T370 -69Q362 -71 354 -73T339 -75Q330 -75 323 -67T312 -50Q277 40 242 132T172 313T105 486T44 646Q42 652 47 659T58 668Q66 671 75 672T90 673Z"  />
<glyph unicode="]" horiz-adv-x="353" d="M91 -176Q77 -176 67 -170T57 -154Q57 -144 67 -137T94 -128Q97 -128 109 -127T137 -126T166 -124T185 -122Q190 -121 195 -115T202 -105Q203 -100 204 -67T206 18T207 132T208 260Q208 343 208 423T206 587Q205 599 200 607T188 617Q185 617 174 618T151 620T126 622T109 623Q94 624 84 630T73 649Q73 658 86 664T109 671Q129 673 150 673T192 674Q208 674 228 674T266 672Q268 672 274 664T280 651L274 169Q273 91 271 13T269 -146Q269 -152 264 -164T250 -176H91Z"  />
<glyph unicode="^" horiz-adv-x="486" d="M242 616Q256 616 265 601T280 574L440 274Q444 269 445 261T442 250Q434 242 425 238T407 231Q399 229 394 231T387 235L243 510Q238 519 236 512L97 231Q92 224 80 228Q72 230 63 235T45 248Q39 257 43 265Q85 342 123 415T204 571Q218 598 226 607T242 616Z"  />
<glyph unicode="_" horiz-adv-x="500" d="M500 -125V-175H0V-125H500Z"  />
<glyph unicode="`" horiz-adv-x="400" d="M160 666Q164 666 172 661T186 644Q192 633 201 613T219 572T235 532T247 501Q250 491 247 479T234 467Q225 467 216 472T202 484Q179 510 157 537T117 589Q110 599 107 608T104 621Q104 629 110 637T125 651T143 662T160 666Z"  />
<glyph unicode="a" horiz-adv-x="451" d="M235 419Q263 419 285 410T330 378Q337 371 343 360T354 336T361 312T364 293Q364 279 364 264T362 227T361 176T360 104Q360 79 370 68T395 56Q401 56 411 58T429 64Q431 66 434 60T437 49Q437 44 434 34T428 21Q415 5 397 -5T352 -15Q332 -15 311 -4T278 46Q278 47 274 49T268 51Q253 40 232 27T194 4Q167 -11 140 -11Q128 -11 112 -4T80 17T54 53T43 107Q43 125 48 137T58 156Q69 170 82 176T99 184Q171 201 210 212T268 232Q272 234 275 239T279 248V286Q279 294 279 299T276 311Q265 340 240 353T192 366Q177 366 164 361T149 352Q146 348 144 336T139 301Q138 293 135 288T129 280Q125 276 116 274T101 271Q93 271 77 272T54 277Q50 279 46 285T42 295Q42 309 63 330T116 373Q145 393 177 406T235 419ZM195 58Q211 58 231 66T266 90Q268 95 271 102T274 119L276 183Q276 186 273 187T268 189Q257 187 243 184T214 178T186 171T166 164Q146 156 138 147T130 118Q130 95 149 77T195 58Z"  />
<glyph unicode="b" horiz-adv-x="516" d="M476 214Q476 162 451 116T385 38Q352 13 313 1T233 -12Q219 -12 202 -10T168 -5T135 2T110 10Q106 12 97 12T83 12Q78 12 73 17T68 30Q68 32 68 54T69 110T70 188T71 274T72 358T73 428Q73 467 73 492T72 533T71 557T69 569Q67 577 61 583T37 599Q26 605 24 608T21 615Q21 617 26 625T37 635Q45 638 57 642T82 650T109 660T134 670Q140 672 147 674T158 676Q162 676 166 667T169 650Q166 598 164 538T161 394Q161 390 164 387T171 386Q202 403 233 411T284 419Q313 419 344 410T410 370Q430 352 443 332T463 290T473 250T476 214ZM376 200Q376 236 365 266T335 317T292 351T240 363Q217 363 204 359T178 345Q176 343 171 335T165 324Q163 316 162 291T161 212Q161 181 162 161T164 129T167 109T171 95Q173 90 178 81T195 61T224 44T267 37Q287 37 305 44T330 56Q333 59 340 68T356 94T370 138T376 200Z"  />
<glyph unicode="c" horiz-adv-x="423" d="M270 419Q321 419 345 408T376 389Q378 386 382 378T386 363Q386 340 375 325T352 309Q347 309 338 315T317 332Q278 371 223 371Q203 371 187 363T158 340Q125 302 125 225Q125 185 138 155T172 105T219 74T272 64Q300 64 323 73T372 105Q376 109 382 106T389 95Q389 87 387 77T376 55Q351 22 311 5T227 -12Q150 -12 92 40Q82 49 72 63T54 97T40 140T34 188Q34 257 64 304T137 379Q175 402 208 410T270 419Z"  />
<glyph unicode="d" horiz-adv-x="530" d="M289 419Q310 419 324 418T348 414Q350 413 353 417T356 425Q356 427 356 446T355 490T355 536T354 567Q353 579 351 586T344 598T330 606T304 614Q296 616 290 622T284 635Q284 637 289 642T306 651Q316 654 335 658T376 666T414 673T437 676Q444 676 446 662T449 615Q449 591 449 556T447 483T446 406T445 337Q445 262 445 219T446 151T448 115T449 93Q450 68 456 60T469 51Q476 51 493 53T522 58Q526 59 530 54T535 40Q535 33 528 24T513 12Q462 1 426 -8T379 -18Q375 -18 369 -15T361 -6Q359 2 359 14T358 35Q358 37 356 38T350 37Q317 17 285 3T227 -12Q185 -12 151 2T91 43T52 106T38 185Q38 225 48 256T75 310T111 349T149 378Q165 388 184 395T222 408T258 416T289 419ZM249 374Q215 374 185 347Q165 329 153 297T140 218Q140 190 148 161T174 107T216 67T274 51Q295 51 317 59T346 74Q348 76 352 85T356 99Q357 148 357 192T356 286Q356 294 354 308T348 326Q343 332 335 340T315 355T286 368T249 374Z"  />
<glyph unicode="e" horiz-adv-x="434" d="M255 419Q293 419 325 403T377 357Q387 342 391 324T395 286Q395 282 392 277T385 267T376 259T367 255Q365 255 350 255T313 255T265 254T216 253T176 252T154 252Q152 252 146 249T138 242Q136 237 135 228T134 213Q134 180 145 152T177 104T224 72T284 60Q298 60 313 64T341 73T366 85T384 97Q388 99 392 96T397 84Q397 67 383 50Q354 20 316 4T238 -12Q191 -12 154 3T92 46T53 112T40 196Q40 259 66 307T138 385Q163 401 193 410T255 419ZM228 381Q218 381 205 375T180 359T159 334T145 301Q144 298 146 295T151 290Q159 289 179 289T222 288Q235 288 249 289T275 293T294 304T302 324Q302 345 285 363T228 381Z"  />
<glyph unicode="f" horiz-adv-x="322" d="M52 350Q45 352 40 355T35 365Q35 376 46 383T89 405Q91 407 94 412T98 419Q98 447 106 484T133 554Q149 583 169 603T209 639Q234 657 266 669T323 681Q352 681 376 674T412 651Q415 647 418 639T421 623Q421 619 419 615T415 605Q408 593 395 585T373 576Q369 576 361 579T347 586Q341 590 333 597T314 610T294 620T274 625Q246 625 230 607T206 566Q198 540 195 503T191 432Q191 418 193 413T200 407Q212 407 230 407T265 408T295 409T311 410Q315 410 318 405T322 393T324 378T325 365Q325 363 319 355T309 346Q308 346 292 346T255 346T218 347T196 347Q192 347 190 342T187 317Q187 285 187 259T188 207T190 156T192 100Q192 82 195 72T205 55T224 46T255 39Q268 36 276 30T284 17Q284 9 276 3T251 -3Q241 -3 213 -2T142 0Q131 0 108 -1T65 -3Q31 -3 31 16Q31 22 38 27T57 37Q77 45 85 54T95 78Q96 90 97 152T99 330Q99 334 96 338T91 343L52 350Z"  />
<glyph unicode="g" horiz-adv-x="464" d="M210 419Q238 419 261 414T296 404Q306 401 315 399T333 397Q337 397 353 397T388 397T422 398T440 398Q443 398 446 394T451 383T454 369T455 356Q455 348 450 343T443 338Q426 338 401 340T358 344Q366 330 371 312T377 275Q377 241 364 214T322 163Q299 143 264 133T196 123Q191 123 182 123T168 124Q163 124 160 123T154 119Q147 115 141 106T134 90Q134 80 139 74T151 64T164 59T172 57Q193 57 216 57T262 55T303 53T334 52Q348 52 367 47T409 24Q425 11 437 -12T449 -61Q449 -85 441 -107T420 -147T392 -180T360 -205Q329 -223 290 -237T191 -251Q165 -251 134 -245T75 -223T28 -184T9 -124Q9 -111 17 -94T32 -71Q43 -62 61 -49T93 -26Q95 -24 95 -21T94 -16Q87 -14 80 -11T66 -1Q56 7 46 22T35 68Q35 70 36 73T40 77Q49 81 59 88T80 102T99 117T112 129Q117 134 113 139Q82 158 60 186T37 263Q37 303 51 329T94 379Q102 385 115 392T145 405T178 415T210 419ZM198 379Q180 379 167 371T145 348T132 317T127 282Q127 250 135 228T157 191T187 171T220 164Q237 164 250 171T269 185Q274 193 282 216T291 271Q291 290 286 309T269 344T241 369T198 379ZM238 -198Q245 -198 256 -197T279 -194T302 -187T322 -178Q342 -165 356 -147T370 -99Q369 -66 347 -52T299 -32Q286 -30 263 -28T211 -26Q177 -26 157 -32T134 -39Q111 -53 104 -68T96 -101Q96 -126 108 -144T141 -175T186 -192T238 -198Z"  />
<glyph unicode="h" horiz-adv-x="531" d="M304 419Q347 419 370 405T408 374Q426 354 435 318T445 241Q445 229 446 205T447 154T448 107T449 79Q449 62 455 54T484 37Q509 29 509 14Q509 4 499 1T480 -3Q460 -3 442 -2T402 0Q386 0 367 -1T327 -3Q314 -3 306 2T297 14Q297 24 320 33Q343 41 350 51T357 88Q357 97 357 119T357 167T357 218T357 261Q356 302 336 328Q325 341 305 350T264 360Q231 360 212 354T179 333Q177 331 173 322T169 309Q169 304 169 286T169 242T169 189T169 135T170 91T171 66Q171 59 178 52T204 35Q224 25 224 18Q224 10 217 4T198 -3Q184 -3 163 -2T121 0Q101 0 75 -1T36 -3Q20 -3 13 2T6 14Q6 27 32 35Q55 43 64 52T76 76Q77 83 78 97T80 141T81 221T82 352Q82 401 82 435T81 491T80 528T78 553Q76 569 72 577T57 591Q43 599 37 606T31 618Q31 626 38 631T52 639Q64 643 88 651T129 667Q150 676 161 676Q164 676 167 668T171 630Q171 616 171 582T170 509T170 435T169 382Q169 377 171 375T176 374Q185 379 202 390T242 409Q268 419 304 419Z"  />
<glyph unicode="i" horiz-adv-x="270" d="M45 372Q45 376 49 379T58 385Q96 399 128 409T173 420Q176 420 180 413T184 401V220Q184 171 184 142T185 96T186 74T187 64Q189 57 195 50T227 35Q238 31 245 25T252 10Q252 3 243 0T222 -3Q206 -3 180 -2T136 0Q98 0 79 -1T48 -3Q17 -3 17 13Q17 20 24 25T42 33Q58 37 67 41T81 52T87 68T91 93Q92 101 92 117T94 153T95 197T96 241Q96 248 96 259T96 282T95 303T94 314Q94 319 86 328T57 351Q52 354 49 361T45 372ZM136 626Q147 626 155 622T168 613Q179 602 183 589T187 570Q187 553 181 542T166 524T147 513T130 510Q118 510 106 516T85 534Q80 542 77 548T74 566Q74 592 91 609T136 626Z"  />
<glyph unicode="j" horiz-adv-x="248" d="M125 626Q138 626 148 622T165 612Q173 604 177 590T181 570Q181 553 175 541T160 522Q152 515 142 513T124 510Q103 510 87 526T70 567Q70 582 76 593T90 611T108 622T125 626ZM28 363Q28 370 35 374T46 380Q86 393 118 406T165 420Q169 420 171 417T175 404T177 377T178 329Q178 290 178 240T177 145T176 64T175 20Q175 2 174 -12T171 -39Q165 -90 140 -133T87 -200Q77 -209 63 -218T35 -234T10 -245T-7 -250Q-12 -250 -18 -247T-24 -239Q-24 -228 -19 -222T-7 -211Q4 -203 13 -196T32 -180Q42 -170 52 -157T69 -125T80 -78T85 -13Q85 24 85 67T85 152T84 229T82 288Q82 299 81 306T77 320T67 331T47 342Q28 351 28 363Z"  />
<glyph unicode="k" horiz-adv-x="517" d="M349 407Q379 407 412 410T460 413Q474 413 482 408T491 396Q491 389 483 384T465 376Q450 372 439 369T418 361T397 350T373 332Q353 316 332 298T286 260Q283 257 283 254T286 247Q302 226 320 203T355 158T386 120T406 96Q421 79 441 62T478 39Q498 31 507 26T516 13Q516 5 507 1T481 -3Q458 -3 431 -2T365 0Q354 0 342 0T321 -1Q308 -1 303 5T298 15Q298 21 303 26T323 36Q331 40 331 46T327 59Q322 66 311 81T286 112T259 145T238 171Q224 188 218 195T203 203Q201 203 197 201T188 197Q182 192 182 182Q182 155 182 133T182 90Q182 73 185 63T194 48T205 40T220 34Q230 31 237 28T244 18Q244 13 237 5T215 -3Q201 -3 180 -2T139 0Q119 0 96 -1T58 -3Q47 -3 37 1T26 13Q26 18 32 24T55 36Q67 40 73 44T83 54T88 67T90 84Q90 88 91 109T92 161T93 229T94 305T95 380T96 443Q96 504 96 529T95 562Q95 578 90 586T64 607Q57 611 52 615T46 624Q46 630 52 637T66 646Q72 648 81 650T102 656T125 661T147 667Q158 670 165 673T177 676Q181 676 184 669T187 656Q187 648 187 627T186 576T185 514T184 448T183 390T182 350V274Q182 248 184 240T193 231Q197 231 207 237T227 251Q250 271 276 296T318 340Q329 353 327 359T309 370Q297 373 290 377T282 387Q282 395 290 401T309 407H349Z"  />
<glyph unicode="l" horiz-adv-x="250" d="M23 619Q23 626 30 631T43 639Q67 648 93 657T137 671Q151 676 161 676Q167 676 170 665T173 633Q173 603 173 563T172 479T171 392T170 314Q170 294 170 260T170 192T170 130T172 93Q173 78 175 70T182 55T197 45T224 34Q237 29 241 23T246 11Q246 5 240 1T217 -3Q194 -3 168 -2T122 0Q93 0 73 -2T33 -4Q21 -4 12 -1T3 9Q3 24 30 33Q62 45 69 56T78 82Q79 94 80 146T82 312Q82 363 82 407T82 485T81 541T79 569Q76 586 48 597Q33 604 28 608T23 619Z"  />
<glyph unicode="m" horiz-adv-x="799" d="M52 355Q52 361 57 368T69 379Q86 386 107 395T153 420Q158 424 160 425T165 426Q170 426 176 421T182 414Q182 401 182 394T181 374Q181 370 184 368T192 368Q202 375 216 384T249 400T287 413T328 419Q350 419 367 414T397 401T418 384T433 365Q434 363 438 362T446 362Q460 371 479 384T519 405Q536 412 550 415T588 419Q621 419 644 405T683 370T705 321T715 267Q716 243 717 213T719 155T720 103T721 71Q721 58 733 50T758 36Q768 32 775 27T782 14Q782 5 774 2T758 -2Q741 -2 719 -1T679 0Q662 0 641 -1T603 -2Q589 -2 582 4T574 16Q574 19 579 25T598 36Q616 42 622 52T629 81Q629 99 629 121T629 166T629 210T628 247Q627 276 624 291T612 321Q603 334 586 343T541 353Q512 353 488 344T459 329Q456 326 453 318T449 300Q449 246 449 209T450 147T451 107T453 83Q454 51 485 40Q500 35 506 29T512 15Q512 7 504 3T487 -2Q467 -2 444 -1T401 0Q384 0 365 -1T329 -2Q316 -2 307 4T298 17Q298 27 324 37Q343 44 351 53T361 92L364 281Q365 298 359 310T350 325Q339 339 321 347T274 356Q248 356 229 349T194 331Q192 329 188 319T183 305Q183 239 183 200T183 137T183 103T185 82Q187 61 195 53T217 38Q231 30 235 25T240 15Q240 7 233 2T215 -3Q197 -3 173 -2T125 0Q108 0 90 -2T54 -5Q40 -5 32 0T24 13Q24 25 49 34Q63 40 71 45T84 56T90 70T92 90Q94 118 95 173T96 298Q96 306 92 314T75 332Q61 343 57 347T52 355Z"  />
<glyph unicode="n" horiz-adv-x="533" d="M45 363Q45 368 50 376T64 389Q78 395 98 402T134 417Q143 422 151 424T162 427Q164 427 171 424T178 415Q178 411 178 395T176 371Q176 367 179 367T184 368Q207 384 242 401T325 419Q344 419 359 414T385 402T404 387T417 371Q429 354 438 322T448 237Q449 200 449 162T451 90Q452 67 457 58T478 42Q494 35 500 28T507 14Q507 5 497 1T477 -3Q467 -3 445 -2T399 0Q377 0 360 -1T334 -3Q323 -3 315 0T306 14Q306 19 310 24T327 34Q346 42 352 50T359 78Q360 115 360 148T360 214Q360 242 359 261T355 294T349 316T342 329Q334 339 319 347T274 356Q248 356 228 350T193 335Q191 334 186 327T180 310V81Q180 69 184 59T217 38Q232 33 237 27T243 14Q243 7 236 2T215 -3Q190 -3 168 -2T127 0Q104 0 80 -1T44 -3Q14 -3 14 12Q14 20 21 26T36 34Q70 45 78 55T87 84Q93 153 93 304Q93 316 86 325T59 347Q50 354 48 357T45 363Z"  />
<glyph unicode="o" horiz-adv-x="512" d="M259 419Q311 419 351 400T419 350T460 282T475 210Q475 151 455 111T409 48Q382 23 345 6T256 -12Q210 -12 169 5T96 53Q64 85 51 126T37 202Q37 256 60 299T116 368Q142 389 181 404T259 419ZM244 376Q228 376 209 368T180 348Q176 343 169 332T156 305T145 266T140 217Q140 170 155 125T199 56Q206 51 225 41T270 31Q287 31 307 40T342 68Q356 87 362 121T369 200Q369 233 361 264T337 321T298 361T244 376Z"  />
<glyph unicode="p" horiz-adv-x="524" d="M312 417Q344 417 371 406T420 376Q436 362 448 344T468 305T480 265T484 227Q484 157 447 100T335 10Q324 5 309 2T277 -5T246 -9T222 -11Q214 -11 203 -11T187 -9Q185 -8 182 -15T178 -28Q178 -62 178 -94T177 -150Q177 -155 178 -159T185 -169T201 -179T231 -190Q248 -195 254 -200T261 -210Q261 -218 254 -224T231 -231Q225 -231 200 -232T140 -233Q107 -233 76 -237T31 -242Q20 -242 10 -238T0 -222Q0 -218 6 -212T28 -202Q63 -192 72 -177T83 -137Q85 -94 87 -44T89 54Q89 118 89 158T89 225T89 269T88 301Q88 306 83 314T53 340Q42 347 39 351T35 357Q35 364 42 372T58 385Q64 388 73 392T93 400T112 409T128 418Q138 424 147 428T162 432Q165 432 171 427T177 418Q177 412 176 400T174 378Q174 375 178 373T185 373Q202 383 222 392T251 406Q283 417 312 417ZM262 356Q241 356 223 351T193 338Q191 337 186 331T181 318Q180 306 180 287T179 248T178 207T178 171Q178 148 178 134T180 111T183 97T187 89Q197 74 210 64T234 48T255 40T270 37Q293 37 312 45T343 67Q360 85 374 117T388 192Q388 219 381 248T358 301T319 340T262 356Z"  />
<glyph unicode="q" horiz-adv-x="519" d="M289 418Q312 418 333 414T361 407Q369 405 374 404T385 402Q389 402 395 403T410 415Q425 432 440 432Q449 432 449 404Q449 390 449 369T447 310T446 212T445 59Q445 -3 445 -53T446 -127Q446 -145 448 -156T456 -174T470 -185T494 -192Q503 -194 510 -199T517 -210Q517 -218 508 -224T479 -231Q404 -231 363 -236T301 -241Q284 -241 277 -237T270 -227Q270 -211 294 -202Q311 -196 321 -191T337 -179T345 -166T349 -148Q352 -127 355 -84T357 15Q357 19 354 21T348 21Q322 4 294 -4T238 -12Q195 -12 156 5T93 47Q68 73 53 112T37 190Q37 217 43 244T65 296T103 345T159 386Q185 400 220 409T289 418ZM230 370Q222 370 208 364T183 347Q166 330 152 295T137 217Q137 180 149 146T184 89Q208 65 234 56T282 46Q313 46 324 51T344 61Q349 66 353 76T358 94Q358 116 358 140T358 189T356 235T354 275Q352 298 348 307T334 328Q315 353 288 361T230 370Z"  />
<glyph unicode="r" horiz-adv-x="364" d="M43 359Q43 367 47 373T58 382Q72 388 94 398T132 416Q142 421 148 423T162 426Q164 426 168 420T173 411Q174 400 174 387T176 362Q176 360 180 358T186 359Q208 383 236 401T293 419Q315 419 332 407T350 386Q350 378 346 369T335 351T322 335T309 322Q298 313 291 313Q282 313 268 323Q262 328 251 332T230 337Q218 337 208 333T188 317Q185 313 182 307T179 295Q179 291 179 266T179 210T179 148T180 105Q181 88 184 77T192 59T208 46T235 37Q252 32 261 27T271 14Q271 6 263 1T245 -4Q233 -4 218 -4T187 -2T157 -1T131 0Q105 0 88 -1T50 -3Q36 -3 29 3T22 14Q22 22 28 27T45 36Q59 41 67 46T80 58T85 73T87 92Q88 109 88 137T89 196T90 256T90 305Q90 310 86 316T65 335Q57 342 50 348T43 359Z"  />
<glyph unicode="s" horiz-adv-x="363" d="M195 419Q215 419 231 417T259 411Q267 409 276 407T292 402Q297 400 302 392T309 381Q310 378 310 371T311 356T311 339T311 325Q311 319 306 308T290 297Q287 297 280 303T265 323Q248 353 227 367T189 381Q180 381 171 377T153 366T140 349T134 325Q134 308 141 296T160 275T190 257T229 237Q250 226 267 215T298 189T318 157T326 118Q326 96 320 79T302 47T277 23T249 7Q226 -4 203 -8T161 -12Q114 -12 90 -4T57 13Q53 17 50 26T43 47T38 70T36 88Q36 108 41 114T55 120Q60 120 66 114T82 93Q105 59 129 44T175 29Q207 29 223 47T240 87Q240 101 232 115T204 142Q184 154 167 163T127 185Q114 192 101 202T78 225T61 256T54 296Q54 334 71 356T107 392Q116 398 127 402T151 411T175 417T195 419Z"  />
<glyph unicode="t" horiz-adv-x="329" d="M181 407Q185 407 201 407T236 409T274 410T301 411Q306 411 309 406T313 395Q314 387 314 377T313 362Q310 347 290 347Q276 347 260 347T229 347T201 346T179 346Q177 346 175 343T172 331L169 152Q168 118 172 104T185 78Q195 67 211 62T237 57Q250 57 260 59T282 65Q289 67 294 69T304 71Q307 71 310 67T314 56Q314 39 287 18Q264 0 234 -6T185 -13Q163 -13 137 -3T93 34Q87 43 83 60T79 105Q79 131 80 156T81 207T83 263T84 329Q84 337 79 339T54 346Q42 348 33 359T24 375Q24 379 30 385T45 396Q59 407 83 424T121 459Q132 473 145 478T163 484Q166 484 169 479T173 469Q173 465 173 458T173 442T172 427T172 418Q172 415 174 411T181 407Z"  />
<glyph unicode="u" horiz-adv-x="520" d="M248 56Q269 56 289 63T317 76Q320 78 330 89T343 123Q344 135 345 161T346 218T347 277T347 324Q347 332 342 342T332 355Q324 358 315 361T298 368Q275 376 275 389Q275 394 282 400T301 407Q332 407 363 408T426 410Q429 410 433 402T437 386Q437 375 437 352T437 299T437 237T437 174T437 121T438 86Q439 59 445 53T454 47Q457 47 463 48T478 50T493 52T505 53Q507 54 510 47T514 36Q514 22 508 16T496 8Q477 6 451 2T410 -6Q396 -9 385 -11T365 -14Q361 -14 357 -8T353 4Q352 9 352 23T350 48Q350 50 347 52T341 53Q306 27 269 8T185 -12Q161 -12 139 -1T104 23Q96 31 89 47T82 80V321Q82 330 74 342T45 365Q37 370 30 375T23 389Q23 394 27 397T36 403T47 406T54 407Q62 407 79 408T113 409T144 411T161 412Q171 412 171 379Q171 363 171 334T171 270T171 202T172 143Q173 104 179 90T196 68Q207 60 222 58T248 56Z"  />
<glyph unicode="v" horiz-adv-x="471" d="M11 394Q11 400 19 405T42 411Q46 411 56 411T78 409T103 408T125 407H203Q214 407 220 402T226 391Q226 382 218 377T193 367Q184 364 180 358T181 335Q182 331 189 314T206 271T231 210T261 137Q262 134 265 134T269 136Q279 159 290 185T311 237T331 285T346 324Q352 342 348 353T322 369Q305 373 299 379T293 391Q293 400 302 404T323 408Q336 408 349 408T377 407Q391 407 411 409T450 412Q461 412 468 407T476 396Q476 388 468 382T449 373Q436 370 423 361T398 329Q384 300 365 259T316 149Q296 101 282 63T262 6Q258 -5 249 -10T236 -15Q230 -15 223 -9T212 2Q211 5 207 18T196 51T183 92T168 135Q161 154 148 186T121 251T96 307T82 337Q77 346 69 355T36 373Q25 377 18 382T11 394Z"  />
<glyph unicode="w" horiz-adv-x="678" d="M128 407Q139 407 155 408T183 409Q193 409 200 405T208 393Q208 387 203 382T183 371Q169 367 164 360T166 336Q171 323 179 301T198 250T221 191T246 130Q248 125 251 125T256 128Q277 174 291 205T319 272Q324 283 325 290T326 300Q326 302 324 311T314 343Q309 360 299 364T278 372Q268 376 260 381T251 395Q251 402 259 406T280 411Q300 411 322 409T362 407Q376 407 394 408T426 410Q440 410 445 405T450 394Q450 386 445 381T423 371Q410 367 407 361T403 351Q403 346 404 340T410 320Q412 314 420 291T440 240T462 182T480 134Q482 129 485 128T491 132Q496 144 508 174T533 238T555 301T565 340Q565 348 558 356T530 371Q507 381 507 392Q507 399 515 403T532 408Q544 408 557 408T584 407Q601 407 622 409T660 412Q680 412 686 406T692 394Q692 389 687 384T666 374Q650 369 638 360T619 338Q610 322 598 294T571 233T544 166T519 103Q506 69 497 38T483 -2Q481 -6 476 -10T464 -15Q456 -15 449 -9T436 4Q435 6 432 13T426 31T418 52T411 74Q408 86 400 107T383 151T366 195T353 227Q351 232 348 232T342 228Q334 210 323 187T301 139T278 88T259 38Q248 7 237 -3T220 -14Q215 -14 207 -8T197 4Q192 19 186 39T176 71Q165 100 151 138T122 212T95 279T77 322Q68 344 58 354T28 372Q14 377 7 382T-1 395Q-1 403 7 408T29 413Q38 413 51 412T79 410T106 408T128 407Z"  />
<glyph unicode="x" horiz-adv-x="459" d="M9 395Q9 400 17 405T39 410Q48 410 75 410T131 408Q153 408 169 408T200 407Q207 407 214 403T221 390Q222 384 215 379T201 371Q193 369 191 364T194 348Q201 334 211 314T240 265Q244 258 250 264Q252 267 258 277T271 299T286 323T297 341Q305 353 301 359T277 372Q261 379 260 392Q260 399 267 403T286 407H322Q345 407 368 408T419 410Q427 410 435 406T444 394Q445 386 438 382T417 373Q397 367 380 359T341 327Q324 307 308 285T268 230Q265 226 269 217Q273 211 285 191T310 149T335 106T351 80Q361 65 376 53T418 36Q431 33 438 26T445 13Q445 5 435 1T415 -3Q405 -3 377 -2T319 0Q310 0 299 0T278 -1T259 -1T246 -2Q233 -2 227 3T221 13Q221 27 253 37Q270 47 263 61Q260 66 255 76T242 99T227 126T210 154L206 156Q203 158 199 154Q192 143 184 130T168 105T154 82T146 66Q143 56 147 49T171 33Q176 31 181 27T186 18Q186 8 178 4T163 -1Q150 -1 136 -1T100 0Q94 0 83 -1T61 -2T40 -4T26 -5Q13 -5 6 0T-2 11Q-2 19 5 24T28 35Q38 38 45 41T60 49T77 61T98 81Q112 95 131 122T176 185Q181 190 180 195T179 202Q176 209 165 228T141 270T117 310T101 334Q87 353 74 359T36 373Q10 379 9 395Z"  />
<glyph unicode="y" horiz-adv-x="453" d="M-8 396Q-8 401 -2 406T16 411Q20 411 35 411T69 409T103 408T128 407Q146 407 157 407T176 408Q201 408 201 392Q201 387 197 382T178 372Q163 367 162 361T165 339Q169 327 179 301T201 243T226 181T249 130Q251 126 255 127T260 130Q270 156 281 185T303 241T322 292T337 333Q342 347 337 355T311 371Q300 374 293 380T285 392Q285 400 292 404T311 409Q327 409 339 408T362 407Q369 407 379 407T401 409T422 410T440 411Q448 411 455 407T463 394Q463 381 438 372Q418 365 406 352T380 313Q370 292 355 256T323 180T292 104T269 47Q257 16 241 -23T211 -99T185 -165T169 -207Q168 -209 164 -214T152 -224T136 -232T118 -236Q93 -236 78 -220T62 -178Q62 -158 77 -141T117 -124H144Q149 -124 154 -117T163 -102Q164 -98 169 -88T179 -64T189 -36T198 -12Q200 -7 200 2T198 17Q193 31 187 45T174 77Q164 105 150 141T121 213T93 280T70 328Q59 349 45 358T18 373Q-8 382 -8 396Z"  />
<glyph unicode="z" horiz-adv-x="421" d="M248 407Q264 407 281 407T313 409T340 410T357 411Q363 411 367 407Q372 401 372 395T372 386Q366 378 354 361T318 308Q304 285 283 251T240 180T200 112T172 63V58Q172 53 174 52Q187 42 212 40T269 37Q279 37 302 49T358 97Q369 108 378 115T395 123Q399 123 403 114T405 97Q400 83 393 59T378 15Q375 7 368 2T360 -3Q331 -3 311 -3T272 -2T233 -1T184 0Q167 0 147 -1T108 -2T75 -4T57 -5Q50 -5 45 3T39 16Q39 21 51 39T77 76Q86 88 107 123T153 200T204 284T244 353Q246 356 245 359T241 363Q230 366 209 367T137 369Q120 368 105 355T67 316Q61 309 55 304T45 299Q38 299 34 305T30 316Q30 327 35 341T45 368Q56 398 58 411Q59 418 63 422T72 429Q77 432 82 427Q97 416 109 414T134 410Q142 409 174 408T248 407Z"  />
<glyph unicode="{" horiz-adv-x="353" d="M30 280Q59 287 77 296T106 318T119 343T123 370Q123 382 119 406T110 456T100 504T96 535Q96 561 111 593T161 651Q196 677 225 685T274 694Q285 694 291 688T298 678Q298 666 285 660T246 645Q226 638 213 627T193 602T184 571T181 536Q181 522 185 504T193 466T202 426T206 387Q206 369 198 353T176 322T144 295T107 274Q102 272 102 269T104 263Q156 236 180 205T205 131Q205 117 202 98T195 60T186 26T180 4Q175 -18 173 -28T170 -47Q170 -88 199 -110T270 -148Q276 -151 282 -155T288 -168Q288 -179 277 -182T260 -186Q220 -186 189 -174T137 -140T105 -89T94 -25Q94 -16 98 5T106 51T115 100T119 139Q119 185 97 205T36 242Q28 244 23 252T17 266Q17 274 30 280Z"  />
<glyph unicode="|" horiz-adv-x="281" d="M178 750V-250H102V750H178Z"  />
<glyph unicode="}" horiz-adv-x="353" d="M319 241Q289 234 271 225T243 204T230 179T226 152Q226 140 230 114T239 59T249 7T253 -26Q253 -52 238 -84T188 -143Q153 -169 124 -177T75 -186Q64 -186 58 -180T52 -169Q52 -161 63 -154T104 -136Q144 -122 156 -93T169 -28Q169 -15 165 5T157 48T148 94T144 135Q144 170 173 200T242 248Q253 254 245 258Q193 286 169 317T145 391Q145 405 148 422T155 455T163 484T169 505Q174 526 176 536T179 555Q179 576 172 591T151 618T119 639T80 656Q73 659 68 663T62 676Q62 685 71 690T89 694Q170 693 213 648T256 534Q256 525 252 506T243 465T234 420T230 383Q230 360 236 344T252 317T278 297T314 280Q322 277 327 270T332 256Q332 246 319 241Z"  />
<glyph unicode="~" horiz-adv-x="646" d="M428 141Q395 141 362 160T295 205Q287 211 276 220T253 236T229 249T208 255Q177 255 155 229T110 155Q108 150 105 145T93 140Q88 140 78 144T60 156Q52 164 55 172Q64 199 79 226T115 274T162 309T220 323Q252 323 285 302T348 259Q374 239 397 224T438 209Q464 209 489 232T538 310Q540 314 543 317T552 321Q560 321 569 317T585 306Q589 302 591 297T590 287Q579 256 563 229T527 183T481 152T428 141Z"  />
<glyph unicode="&#xA0;" horiz-adv-x="209" />
<glyph unicode="&#xA1;" horiz-adv-x="295" d="M129 -127Q110 -127 99 -118T81 -96T72 -68T70 -42Q70 -24 75 14T87 94T101 173T112 227Q115 242 122 250T136 259Q144 259 150 252T158 234Q162 214 168 177T180 98T190 19T194 -40Q194 -55 190 -70T178 -98T158 -119T129 -127ZM135 335Q118 335 107 341T88 357T77 379T73 402Q73 432 91 450T138 469Q163 469 181 451T200 401Q200 384 194 372T178 351T157 339T135 335Z"  />
<glyph unicode="&#xA2;" horiz-adv-x="494" d="M359 520Q359 513 368 511Q413 509 434 499T461 482Q469 474 470 469T472 458Q472 439 459 426T435 412Q427 412 418 419T395 434Q376 447 360 453Q358 454 355 453T350 449L321 156Q321 154 322 151T328 148Q353 148 373 153T408 166T435 180T455 193Q460 195 465 192T470 184Q470 176 468 168T457 149Q437 124 403 105T321 80Q319 80 317 79T314 73L305 -14Q305 -22 298 -23T282 -25Q276 -25 269 -23T263 -14L270 68Q271 73 269 75T265 78Q225 83 193 101T137 147T101 210T88 284Q88 330 105 368T151 434T220 482T305 508Q307 508 310 511T313 518L320 582Q321 591 326 594T334 597Q338 597 346 596T360 593Q365 590 365 586L359 520ZM307 458Q309 465 301 465Q268 465 245 450T208 412T188 361T181 309Q183 243 210 207T272 157Q274 156 276 158T279 163L307 458Z"  />
<glyph unicode="&#xA3;" horiz-adv-x="496" d="M345 616Q387 616 416 596T446 547Q447 521 433 502T395 478Q389 478 384 482T378 488Q379 498 379 505T380 522Q379 540 365 558T331 577Q312 577 295 565T264 524T240 451T226 342Q226 340 228 336T232 333L347 338Q349 338 351 334T354 327Q353 314 349 305T340 295L230 286Q227 286 224 283T219 276Q214 249 209 228T197 189T181 156T159 125Q156 122 158 119T164 115Q182 113 202 107T256 84Q284 70 311 60T357 50Q383 50 398 62T414 110Q414 123 411 143T406 174Q405 178 411 182T423 187Q438 187 453 172T470 125Q471 98 455 71T412 22T352 -15T286 -29Q256 -29 226 -11T159 38Q143 51 134 56T116 63Q107 64 99 55Q92 49 82 37T59 14T35 -6T11 -15Q1 -15 -6 -6T-14 14Q-14 26 -7 39T13 65T40 88T70 105Q83 109 88 117Q94 126 101 161T114 273Q114 276 111 279T105 281L35 276Q32 276 30 281T27 291Q27 299 31 310T39 322L112 326Q115 327 116 331T118 337Q129 428 156 486T229 578Q252 595 282 605T345 616Z"  />
<glyph unicode="&#xA4;" horiz-adv-x="494" d="M399 412Q396 407 398 401Q428 354 428 300Q428 248 397 203Q395 201 395 199T395 197L449 137Q454 132 451 122T436 101Q430 93 421 90T407 91L345 148Q343 150 340 149T335 147Q315 135 294 127T249 118Q223 118 202 124T160 143Q158 144 156 144T148 142L92 88Q89 84 81 86T61 98Q48 110 48 121T49 135L99 187Q100 189 100 191T99 197Q84 220 77 246T69 299Q69 327 77 349T99 393Q100 394 100 399T99 406L46 466Q44 469 45 474T49 484T55 494T61 501Q69 508 79 512T95 511L147 458Q149 456 154 455T161 455Q201 479 249 479Q299 479 342 453Q344 452 346 452T351 454L403 508Q406 511 414 511T437 498Q447 490 450 481T449 468L399 412ZM249 420Q223 420 202 411T165 386T141 348T132 299Q132 272 141 250T167 213T204 190T249 181Q272 181 293 189T330 213T355 250T365 299Q365 324 355 346T329 385T292 410T249 420Z"  />
<glyph unicode="&#xA5;" horiz-adv-x="496" d="M-8 575Q-8 583 0 587T18 592Q29 592 50 591T97 589Q129 589 153 589T188 590Q196 590 204 587T212 574Q212 561 192 555Q178 551 177 543T178 525Q204 471 226 429T260 366Q262 363 266 361T273 364Q288 389 305 419T340 481Q351 504 356 515T361 534Q361 539 355 544T333 555Q309 561 309 576Q309 581 315 586T334 591Q344 591 365 590T399 589Q416 589 435 590T472 592Q480 592 488 588T496 577Q496 569 489 564T473 556Q448 546 432 532T397 489Q374 457 349 416T295 326Q295 327 295 323T300 319H402Q405 319 406 313T406 300T403 286T397 280L292 279Q289 279 287 275Q286 273 286 271V213Q286 211 287 208T293 204L396 203Q399 203 400 197T400 184T397 171T391 165L292 164Q290 164 288 162T286 157V115Q286 93 287 80T293 58T310 44T343 34Q351 32 360 27T369 13Q369 5 360 1T339 -3Q316 -3 294 -2T239 0Q213 0 191 -1T146 -3Q132 -3 123 1T113 13Q113 23 123 28T140 35Q154 39 163 43T177 54T185 72T190 101Q192 115 192 129T192 156Q192 158 190 161T185 165H80Q77 165 76 171T76 184T79 198T86 204H187Q189 204 191 207T193 212V269Q193 278 188 278H86Q83 278 82 284T82 296T85 309T90 315L180 317Q184 317 184 320T184 326Q155 380 130 422T78 510Q69 524 55 536T22 553Q9 557 1 562T-8 575Z"  />
<glyph unicode="&#xA6;" horiz-adv-x="281" d="M102 175H178V-175H102V175ZM178 675V325H102V675H178Z"  />
<glyph unicode="&#xA7;" horiz-adv-x="441" d="M289 630Q303 630 319 625T343 612Q352 603 352 591Q352 587 349 580T342 565T334 551T327 542Q322 536 315 537T292 546Q275 554 253 560T220 566Q210 566 202 561T189 549T180 533T177 518Q178 496 188 476T215 437T249 401T282 369Q337 312 369 256T401 144Q401 76 376 15T312 -92Q295 -112 280 -126T250 -151T219 -170T183 -184Q170 -188 154 -190T129 -192Q120 -192 110 -189T92 -180T78 -169T72 -156Q72 -152 80 -136T100 -108Q107 -99 115 -97T127 -95Q146 -106 166 -115T200 -124Q256 -124 255 -77Q254 -48 232 -17T168 63Q143 90 124 113T90 157Q64 194 49 232T33 314Q33 348 41 378T62 435T89 483T118 519Q127 531 136 543T156 566Q185 593 221 611T289 630ZM340 85Q340 110 332 136T309 189T276 240T239 286Q197 334 165 373T122 450Q120 458 114 452Q106 437 100 415T94 361Q94 316 115 274T183 178Q230 124 266 74T310 -19Q310 -20 312 -23T317 -20Q328 0 334 28T340 85Z"  />
<glyph unicode="&#xA8;" horiz-adv-x="400" d="M119 616Q132 616 141 610T156 595T164 579T167 566Q167 551 162 541T148 524T132 515T117 512Q100 512 83 524T66 563Q66 586 81 601T119 616ZM289 616Q302 616 311 610T325 595T332 579T334 566Q334 551 329 541T315 524T299 515T284 512Q267 512 250 524T233 563Q233 586 248 601T289 616Z"  />
<glyph unicode="&#xA9;" horiz-adv-x="759" d="M379 633Q451 633 511 607T614 536T682 432T706 305Q706 239 682 180T614 75T510 4T379 -23Q305 -23 245 2T141 72T74 177T50 305Q50 373 75 432T144 536T248 607T379 633ZM379 594Q320 594 269 572T181 511T122 420T100 306Q100 246 121 193T180 101T269 39T379 16Q438 16 488 38T576 99T635 191T656 306Q656 367 635 419T576 511T488 572T379 594ZM400 489Q422 489 437 487T463 483Q472 481 487 477T514 470Q523 466 525 446Q526 435 526 422T526 398Q526 388 522 382T511 375Q506 375 500 382T492 396Q482 423 459 439T406 456Q379 456 357 446T320 417T296 374T287 321Q287 276 298 247T328 199T367 174T408 166Q443 166 462 182T495 217Q500 224 506 234T521 244Q528 244 531 236T533 222Q533 218 531 211T527 196T521 181T517 169Q515 162 506 155T492 145Q479 139 455 134T398 128Q370 128 346 133T301 148T266 168T241 189Q225 206 211 235T196 309Q196 334 203 355T219 393T240 422T261 442Q296 471 335 480T400 489Z"  />
<glyph unicode="&#xAA;" horiz-adv-x="345" d="M184 547Q225 547 250 520T276 455Q276 436 275 411T274 339Q273 321 280 312T300 302Q305 302 312 303T323 307Q328 309 330 305T333 296Q333 291 332 285T328 276Q320 264 304 255T267 246Q249 246 232 252T207 284Q202 287 199 284Q180 272 158 259T116 246Q105 246 91 250T65 265T45 291T36 329Q36 346 42 357T57 376T77 389T100 397Q127 405 154 412T202 429Q207 431 207 440V460Q207 483 190 494T154 506Q133 506 122 497Q119 494 117 482T113 462Q111 455 106 451T96 444Q91 442 82 441T65 440Q36 440 36 452Q36 466 54 484T95 517Q115 531 138 539T184 547ZM106 342Q106 322 118 312T149 301Q176 301 195 318Q197 320 200 328T203 340Q203 343 203 349T204 362T204 376T205 386Q205 390 202 391T198 393Q153 381 130 371T106 342Z"  />
<glyph unicode="&#xAB;" horiz-adv-x="685" d="M75 190Q66 195 68 206T74 221Q101 237 136 259T207 303T272 347T321 381Q330 388 338 392T352 397Q358 397 362 388T355 360Q347 347 327 329T283 292T233 253T189 218Q183 213 184 209T188 203Q210 185 234 166T280 127T322 88T353 54Q366 38 361 28T349 17Q347 17 339 17T320 27Q301 41 272 61T209 105T140 150T75 190ZM329 190Q323 194 323 205T328 221Q354 236 389 258T459 304T526 350T575 386Q587 396 594 399T609 402Q614 402 617 393T609 365Q601 352 582 334T538 295T489 255T443 219Q437 214 438 211T442 205Q464 187 489 166T538 124T581 83T611 49Q622 33 617 23T604 12Q602 12 596 13T578 22Q559 37 530 58T466 103T396 150T329 190Z"  />
<glyph unicode="&#xAC;" horiz-adv-x="646" d="M531 2Q524 2 519 5T514 19L509 249Q509 257 504 263T493 270L74 274Q65 274 63 281T61 294Q61 299 62 306T66 320T70 332T75 337L568 338Q571 338 574 334T579 326T583 317T584 311V26Q584 19 578 15T564 7T546 3T531 2Z"  />
<glyph unicode="&#xAD;" horiz-adv-x="327" d="M67 243Q77 245 105 248T166 254T228 259T270 262Q275 262 279 254T284 241Q284 230 282 217T274 195Q272 192 266 188T259 183Q234 181 207 180T153 177T102 174T59 172Q48 171 45 180T42 192Q42 203 45 215T52 233Q54 236 59 239T67 243Z"  />
<glyph unicode="&#xAE;" horiz-adv-x="294" d="M105 536Q105 550 102 551T91 555Q83 557 83 560Q83 567 92 569Q110 571 123 571T150 572Q174 572 187 563T201 539Q201 525 193 520T180 513Q178 511 179 508Q186 495 191 487T201 473T208 466T215 461Q222 458 222 454Q222 446 206 446Q192 446 184 451T170 466Q165 474 162 479T154 491Q152 494 149 497T139 501Q135 501 135 497V483Q135 470 138 469T151 463Q158 461 158 458Q158 456 156 453T148 450Q140 450 136 450T124 451Q116 451 110 451T93 450Q85 450 85 456Q85 459 89 461Q100 465 102 468T105 479V536ZM135 522Q135 514 144 514Q167 514 167 536Q167 545 160 551T143 558Q141 558 138 557T135 554V522ZM147 636Q175 636 198 626T239 599T267 558T277 507Q277 485 268 462T243 419T201 388T145 376Q118 376 95 386T54 414T27 456T17 507Q17 532 27 555T54 597T95 625T147 636ZM147 615Q102 615 73 585T44 507Q44 484 52 465T73 431T106 408T147 399Q193 399 221 430T250 507Q250 555 220 584T147 615Z"  />
<glyph unicode="&#xAF;" horiz-adv-x="400" d="M319 598Q321 598 324 591T327 579Q327 555 317 538Q314 532 310 529T303 525L84 524Q82 524 78 528T73 540Q73 553 76 565T85 585Q87 588 91 591T98 594L319 598Z"  />
<glyph unicode="&#xB0;" horiz-adv-x="330" d="M164 371Q139 371 117 379T77 402T49 441T39 493Q39 519 49 541T78 579T119 605T168 615Q192 615 214 606T253 581T280 543T290 493Q290 464 279 442T251 404T211 380T164 371ZM161 569Q132 569 114 547T96 493Q96 461 117 439T170 417Q195 417 214 438T233 493Q233 527 213 548T161 569Z"  />
<glyph unicode="&#xB1;" horiz-adv-x="646" d="M369 271Q365 271 362 267T359 259V45Q359 41 353 38T339 33T322 29T307 28Q301 28 296 31T290 39L289 257Q289 267 285 269T273 271L66 270Q58 270 55 276T52 290Q52 302 56 318T66 335H278Q282 335 285 338T289 346L287 560Q287 562 292 564T306 569T323 573T340 575Q343 575 351 572T359 560V346Q359 335 368 335H575Q586 335 590 331T594 319Q594 299 589 286T575 273L369 271ZM66 -89Q58 -89 55 -81T52 -70Q52 -54 56 -40T62 -25L584 -24Q588 -24 591 -30T594 -41Q594 -61 589 -75T576 -89H66Z"  />
<glyph unicode="&#xB2;" horiz-adv-x="333" d="M161 751Q185 751 205 743T239 720T261 687T269 647Q269 619 258 598T217 549Q197 530 173 510T131 476Q130 474 131 471T136 469Q146 469 162 469T194 470T224 471T247 472Q254 472 262 478T284 498Q289 504 294 508T305 513Q313 513 314 502T312 482Q300 457 293 436T285 410Q283 406 279 403T271 400Q260 401 238 401T192 402T144 403T108 404H46Q35 404 30 410T24 419Q24 425 29 431T41 443Q48 449 59 459T84 480T111 504T136 528Q189 583 189 627Q189 656 172 673T131 690Q110 690 92 679T59 653Q52 647 42 646T31 660Q30 673 45 690Q67 716 95 733T161 751Z"  />
<glyph unicode="&#xB3;" horiz-adv-x="333" d="M172 751Q195 751 213 745T243 728T261 705T267 680Q267 666 262 656T248 639T229 627T210 616Q208 614 209 612T212 608Q254 601 276 580T298 525Q298 487 269 457T191 406Q147 387 110 387Q99 387 87 390T64 398T48 409T41 424Q41 434 51 445T67 460Q71 462 76 462T85 460Q96 454 114 443T151 431Q176 431 198 448T220 499Q220 531 198 547T147 563Q142 563 131 561T112 557Q102 555 99 560Q98 562 98 565T102 577Q107 585 112 589T128 598Q160 613 175 627T190 659Q190 676 179 688T144 701Q127 701 115 694T91 676Q72 657 63 657Q57 657 54 666T55 684Q61 694 71 705T97 727T130 744T172 751Z"  />
<glyph unicode="&#xB4;" horiz-adv-x="400" d="M269 665Q277 665 286 661T304 651T317 637T323 622Q323 614 311 596T282 556T247 515T218 484Q211 477 202 472T185 466Q177 466 175 477T177 505Q180 514 187 529T202 562T220 598T238 634Q246 648 255 656T269 665Z"  />
<glyph unicode="&#xB5;" horiz-adv-x="516" d="M115 425Q130 425 143 420T168 406Q172 404 176 394T181 380Q181 374 179 360T173 328T164 291T154 255Q150 243 147 229T141 199T136 171T131 151Q128 140 128 132T134 112Q139 98 155 88T183 77Q199 77 218 87T256 113T290 151T315 197Q318 206 320 217T323 236Q326 299 330 342T336 397Q338 407 343 416T354 426Q366 426 379 423T402 416T420 408T431 401Q438 392 434 362Q432 344 425 317T407 260T386 205T367 164Q365 159 364 148T364 132Q370 96 387 85T419 74Q442 74 458 84T486 106Q490 110 495 107T501 99Q502 97 502 90T501 75T499 59T494 46Q479 17 460 2T407 -14Q377 -14 356 9T333 87Q333 89 330 93T324 92Q287 34 258 13T202 -9Q186 -9 174 -2T153 14T138 33T128 48Q126 51 124 52T119 46Q118 38 117 20T116 -19T116 -60T119 -92Q124 -122 140 -138T185 -171Q192 -174 191 -182T187 -196Q185 -201 172 -210T150 -224Q143 -229 133 -231T114 -234Q107 -234 96 -229T76 -206Q69 -195 67 -169T65 -114Q65 -87 66 -56T69 5T72 58T74 91Q75 104 74 117T72 144Q71 169 71 203T70 273T71 343T72 402Q72 407 75 412T83 421Q88 423 98 424T115 425Z"  />
<glyph unicode="&#xB6;" horiz-adv-x="618" d="M527 585Q541 585 549 575T558 554Q558 549 553 542T543 535Q541 535 528 535T499 534T468 533T447 532Q441 532 436 522T431 498Q431 391 431 302T431 145T430 31T430 -33Q430 -77 426 -122T407 -205T361 -265T279 -289Q257 -289 236 -282T199 -260T174 -227T164 -183Q164 -137 189 -108T257 -79Q280 -79 298 -94T316 -139Q316 -152 312 -161T301 -176T289 -184T278 -187Q259 -187 249 -180Q244 -177 238 -174T227 -171Q224 -171 221 -174T217 -185Q217 -215 238 -229T284 -244Q310 -244 327 -232T353 -196T367 -142T372 -71Q372 -35 372 -12T373 26T374 48T374 60Q374 66 371 71T362 76Q306 76 251 89T151 132T80 209T52 324Q52 383 71 424T124 500Q143 520 168 534T218 558T267 571T307 577Q339 581 382 583T476 585H527Z"  />
<glyph unicode="&#xB7;" horiz-adv-x="281" d="M141 263Q159 263 172 256T193 239T204 216T208 194Q208 167 189 147T141 126Q117 126 95 143T73 195Q73 212 80 224T98 245T121 258T141 263Z"  />
<glyph unicode="&#xB8;" horiz-adv-x="400" d="M245 5L199 -51Q198 -53 199 -56T202 -60Q226 -71 244 -88T262 -133Q262 -162 244 -183T207 -217Q165 -246 132 -246Q126 -246 117 -242T103 -229Q98 -221 98 -211T104 -194Q114 -181 125 -184Q133 -186 143 -191T163 -197Q183 -197 191 -187T199 -163Q199 -143 183 -133T147 -122H131Q127 -122 121 -115T115 -103Q115 -101 116 -98T124 -87L205 5H245Z"  />
<glyph unicode="&#xB9;" horiz-adv-x="333" d="M216 740Q216 730 215 711T214 663Q213 618 213 569T215 481Q216 470 217 463T221 452T233 444T255 436Q278 429 278 417Q278 401 251 401Q237 401 213 402T169 404Q134 404 117 403T88 401Q77 401 70 406T63 417Q63 431 94 438Q116 443 123 451T132 474Q135 492 136 521T138 599Q138 649 135 666Q134 675 128 679T93 687Q85 689 77 693T69 706Q69 711 76 715T91 722Q131 730 157 737T200 751Q205 753 210 749T216 740Z"  />
<glyph unicode="&#xBA;" horiz-adv-x="388" d="M195 547Q233 547 262 535T312 502T343 455T354 400Q354 367 342 339T309 291T259 258T194 246Q160 246 131 257T81 288T47 334T34 393Q34 427 47 455T83 504T134 535T195 547ZM187 510Q168 510 155 501T134 475T122 440T118 401Q118 380 123 359T138 320T165 292T203 281Q221 281 233 292T254 320T265 357T269 395Q269 416 264 436T249 473T223 500T187 510Z"  />
<glyph unicode="&#xBB;" horiz-adv-x="685" d="M610 222Q619 217 617 206T611 192Q584 176 549 154T478 109T413 65T364 31Q344 16 333 16Q328 16 324 25T330 52Q338 65 358 83T402 121T452 160T497 195Q502 200 501 203T497 209Q476 227 452 246T406 285T364 324T332 358Q320 374 325 384T336 395Q338 395 346 395T366 386Q385 372 414 351T476 308T545 263T610 222ZM356 222Q363 218 363 207T357 192Q331 176 296 154T226 108T160 62T110 26Q98 17 91 14T77 10Q72 10 69 19T76 47Q84 60 103 79T147 118T196 157T243 193Q249 198 247 202T243 208Q221 226 196 247T147 289T104 329T75 364Q64 379 69 390T81 401Q83 401 89 400T107 390Q126 376 155 355T219 309T289 262T356 222Z"  />
<glyph unicode="&#xBC;" horiz-adv-x="721" d="M216 590Q216 580 215 561T214 513Q213 468 213 419T215 331Q216 320 217 313T221 302T233 294T255 286Q278 279 278 267Q278 251 251 251Q237 251 213 252T169 254Q134 254 117 253T88 251Q77 251 70 256T63 267Q63 281 94 288Q116 293 123 301T132 324Q135 342 136 371T138 449Q138 499 135 516Q134 525 128 529T93 537Q85 539 77 543T69 556Q69 561 76 566T91 573Q131 581 157 587T200 601Q205 603 210 599T216 590ZM573 621Q578 621 586 618T599 609Q601 607 602 604T601 598L214 -17Q205 -31 197 -31Q193 -31 184 -26T171 -13Q168 -9 171 -2L555 606Q564 621 573 621ZM628 347Q633 347 637 342T641 331V148Q641 141 647 141H699Q702 141 703 137T705 131Q705 126 705 119T702 105Q701 101 698 99T693 95L647 96Q645 96 644 94T642 89V5Q642 -9 632 -12Q627 -13 619 -14T603 -15T587 -16T577 -17Q565 -17 565 0Q565 3 565 12T565 34T565 61T567 87Q567 89 566 92T562 96Q557 96 537 96T494 96T450 96T421 96Q416 96 412 102T407 114Q407 123 419 135Q429 147 450 171T493 221T536 270T568 306Q572 310 579 316T595 330T612 342T628 347ZM567 146Q567 155 568 169T569 199T571 228T572 252Q572 254 569 255T565 255Q559 249 548 237T525 210T500 179T476 150Q471 143 478 143Q480 143 492 142T518 141T545 140T563 139Q567 139 567 146Z"  />
<glyph unicode="&#xBD;" horiz-adv-x="753" d="M216 590Q216 580 215 561T214 513Q213 468 213 419T215 331Q216 320 217 313T221 302T233 294T255 286Q278 279 278 267Q278 251 251 251Q237 251 213 252T169 254Q134 254 117 253T88 251Q77 251 70 256T63 267Q63 281 94 288Q116 293 123 301T132 324Q135 342 136 371T138 449Q138 499 135 516Q134 525 128 529T93 537Q85 539 77 543T69 556Q69 561 76 566T91 573Q131 581 157 587T200 601Q205 603 210 599T216 590ZM563 621Q568 621 576 618T589 609Q591 607 592 604T592 598L205 -17Q200 -24 196 -27T187 -31Q184 -31 175 -26T161 -13Q159 -9 162 -2L546 606Q555 621 563 621ZM581 347Q605 347 624 339T658 316T680 283T688 243Q688 215 677 194T637 145Q616 126 592 106T551 72Q549 70 550 67T556 65Q566 65 581 65T613 66T644 67T667 68Q673 68 681 74T703 95Q709 100 714 104T724 109Q732 109 733 98T732 78Q719 53 713 32T705 7Q703 3 698 0T690 -4Q680 -3 658 -3T611 -2T563 -1T528 0H465Q454 0 449 6T444 15Q444 21 449 27T460 39Q467 45 478 55T503 76T530 100T556 124Q609 179 609 223Q609 252 591 269T550 286Q530 286 512 275T479 250Q471 243 461 242T450 256Q450 263 454 271T464 287Q486 312 514 329T581 347Z"  />
<glyph unicode="&#xBE;" horiz-adv-x="693" d="M172 601Q195 601 213 595T243 578T261 555T267 530Q267 516 262 506T248 489T229 477T210 466Q208 465 209 463T212 459Q254 451 276 430T298 375Q298 337 269 307T191 256Q147 237 110 237Q99 237 87 240T64 248T48 259T41 274Q41 284 51 295T67 310Q71 312 76 312T85 310Q96 304 114 293T151 281Q176 281 198 298T220 349Q220 381 198 397T147 413Q142 413 131 411T112 407Q102 405 99 410Q98 412 98 415T102 427Q107 435 112 439T128 449Q160 463 175 477T190 509Q190 526 179 538T144 551Q127 551 115 544T91 526Q72 507 63 507Q57 507 54 516T55 534Q61 544 71 555T97 577T130 594T172 601ZM556 621Q561 621 569 618T582 609Q584 607 585 604T584 598L197 -17Q188 -31 180 -31Q177 -31 167 -26T154 -13Q152 -9 154 -2L538 606Q543 614 548 617T556 621ZM600 347Q605 347 609 342T613 331Q613 325 613 302T613 250T613 193T614 148Q614 141 619 141H671Q674 141 675 137T677 131Q677 126 677 119T674 105Q673 101 670 99T665 95L619 96Q617 96 616 94T615 89Q615 80 615 68T615 44T614 22T614 5Q614 -9 604 -12Q599 -13 591 -14T575 -15T559 -16T549 -17Q537 -17 537 0Q537 3 537 12T537 34T538 61T540 87Q540 89 538 92T534 96Q529 96 509 96T466 96T422 96T393 96Q388 96 384 102T379 114Q379 123 391 135Q401 147 422 171T465 221T508 270T540 306Q544 310 551 316T567 330T584 342T600 347ZM540 146Q540 155 540 169T541 199T543 228T544 252Q544 254 541 255T537 255Q531 249 520 237T497 210T472 179T448 150Q443 143 450 143Q452 143 464 142T490 141T517 140T535 139Q540 139 540 146Z"  />
<glyph unicode="&#xBF;" horiz-adv-x="345" d="M215 -134Q177 -134 144 -109T90 -49Q70 -18 61 11T52 74Q52 109 67 131T96 161Q102 165 111 170T131 180T150 190T166 198Q177 203 180 216T184 250Q185 257 190 261T200 266Q216 266 229 238Q237 223 241 205T246 169Q246 156 241 146T223 124T190 100T139 71Q121 61 115 47T108 22Q108 -13 132 -28T187 -43Q198 -43 209 -41T230 -38Q245 -38 258 -48T271 -75Q271 -95 257 -114T215 -134ZM184 336Q168 336 156 342T136 358T124 380T120 403Q120 433 139 451T188 469Q212 469 230 452T248 404Q248 386 242 374T227 353T206 340T184 336Z"  />
<glyph unicode="&#xC0;" horiz-adv-x="677" d="M364 627Q372 627 379 605T404 532Q423 478 447 414T494 291T536 183T564 112Q572 92 578 81T593 62T613 49T646 37Q663 31 669 23T676 7Q676 2 669 -1T650 -5Q613 -5 579 -3T507 0Q490 0 481 0T463 -1T447 -2T427 -3Q412 -3 405 2T398 12Q398 18 403 25T422 37Q456 47 462 57T461 93Q458 103 453 118T442 150T430 182T419 209Q417 214 410 218T393 224Q386 224 363 224T312 224T260 224T223 222Q219 222 214 217T207 208Q202 194 196 175T183 137T173 102T169 79Q169 68 177 58T219 37Q229 34 235 30T242 19Q242 12 234 5T207 -3Q203 -3 194 -3T174 -2T150 -1T126 0Q113 0 103 -1T81 -2T59 -4T32 -5Q18 -5 8 -1T-2 11Q-2 19 4 25T28 37Q64 47 80 61T106 97Q114 113 127 143T156 212T189 295T225 385T259 471T288 547Q290 552 291 559T294 574Q294 576 296 580T301 585Q310 591 322 600T343 616Q348 621 354 624T364 627ZM389 277Q391 277 393 281T394 288Q389 307 378 337T356 398T334 453T321 484Q319 489 315 488T308 484Q300 464 291 440T273 389T254 336T237 288Q236 285 238 282T245 277Q251 277 272 277T316 276T361 276T389 277ZM232 831Q239 831 249 827T272 810Q292 793 320 766T374 708Q381 700 387 689T392 670Q390 661 376 657T345 661Q328 669 306 681T261 705T222 727T197 741Q187 748 183 757T179 772Q179 780 184 790T198 810T216 825T232 831Z"  />
<glyph unicode="&#xC1;" horiz-adv-x="677" d="M364 627Q372 627 379 605T404 532Q423 478 447 414T494 291T536 183T564 112Q572 92 578 81T593 62T613 49T646 37Q663 31 669 23T676 7Q676 2 669 -1T650 -5Q613 -5 579 -3T507 0Q490 0 481 0T463 -1T447 -2T427 -3Q412 -3 405 2T398 12Q398 18 403 25T422 37Q456 47 462 57T461 93Q458 103 453 118T442 150T430 182T419 209Q417 214 410 218T393 224Q386 224 363 224T312 224T260 224T223 222Q219 222 214 217T207 208Q202 194 196 175T183 137T173 102T169 79Q169 68 177 58T219 37Q229 34 235 30T242 19Q242 12 234 5T207 -3Q203 -3 194 -3T174 -2T150 -1T126 0Q113 0 103 -1T81 -2T59 -4T32 -5Q18 -5 8 -1T-2 11Q-2 19 4 25T28 37Q64 47 80 61T106 97Q114 113 127 143T156 212T189 295T225 385T259 471T288 547Q290 552 291 559T294 574Q294 576 296 580T301 585Q310 591 322 600T343 616Q348 621 354 624T364 627ZM389 277Q391 277 393 281T394 288Q389 307 378 337T356 398T334 453T321 484Q319 489 315 488T308 484Q300 464 291 440T273 389T254 336T237 288Q236 285 238 282T245 277Q251 277 272 277T316 276T361 276T389 277ZM428 806Q436 813 446 815T460 816Q467 815 475 809T489 794T500 777T504 763Q504 754 496 745T479 731Q443 712 399 692T322 658Q307 652 293 653T275 664Q273 669 279 678T291 693Q304 705 321 720T357 750T393 780T428 806Z"  />
<glyph unicode="&#xC2;" horiz-adv-x="677" d="M364 627Q372 627 379 605T404 532Q423 478 447 414T494 291T536 183T564 112Q572 92 578 81T593 62T613 49T646 37Q663 31 669 23T676 7Q676 2 669 -1T650 -5Q613 -5 579 -3T507 0Q490 0 481 0T463 -1T447 -2T427 -3Q412 -3 405 2T398 12Q398 18 403 25T422 37Q456 47 462 57T461 93Q458 103 453 118T442 150T430 182T419 209Q417 214 410 218T393 224Q386 224 363 224T312 224T260 224T223 222Q219 222 214 217T207 208Q202 194 196 175T183 137T173 102T169 79Q169 68 177 58T219 37Q229 34 235 30T242 19Q242 12 234 5T207 -3Q203 -3 194 -3T174 -2T150 -1T126 0Q113 0 103 -1T81 -2T59 -4T32 -5Q18 -5 8 -1T-2 11Q-2 19 4 25T28 37Q64 47 80 61T106 97Q114 113 127 143T156 212T189 295T225 385T259 471T288 547Q290 552 291 559T294 574Q294 576 296 580T301 585Q310 591 322 600T343 616Q348 621 354 624T364 627ZM389 277Q391 277 393 281T394 288Q389 307 378 337T356 398T334 453T321 484Q319 489 315 488T308 484Q300 464 291 440T273 389T254 336T237 288Q236 285 238 282T245 277Q251 277 272 277T316 276T361 276T389 277ZM348 784Q365 784 397 755Q411 745 436 723T495 672Q513 656 511 644T492 632Q484 632 473 636T454 643Q427 655 401 668T353 692Q342 697 333 692Q315 685 288 672T237 646Q229 643 221 639T202 635Q191 635 187 639T184 651T192 666T207 681Q213 687 224 696T249 717T276 739T302 759Q315 769 326 776T348 784Z"  />
<glyph unicode="&#xC3;" horiz-adv-x="677" d="M364 627Q372 627 379 605T404 532Q423 478 447 414T494 291T536 183T564 112Q572 92 578 81T593 62T613 49T646 37Q663 31 669 23T676 7Q676 2 669 -1T650 -5Q613 -5 579 -3T507 0Q490 0 481 0T463 -1T447 -2T427 -3Q412 -3 405 2T398 12Q398 18 403 25T422 37Q456 47 462 57T461 93Q458 103 453 118T442 150T430 182T419 209Q417 214 410 218T393 224Q386 224 363 224T312 224T260 224T223 222Q219 222 214 217T207 208Q202 194 196 175T183 137T173 102T169 79Q169 68 177 58T219 37Q229 34 235 30T242 19Q242 12 234 5T207 -3Q203 -3 194 -3T174 -2T150 -1T126 0Q113 0 103 -1T81 -2T59 -4T32 -5Q18 -5 8 -1T-2 11Q-2 19 4 25T28 37Q64 47 80 61T106 97Q114 113 127 143T156 212T189 295T225 385T259 471T288 547Q290 552 291 559T294 574Q294 576 296 580T301 585Q310 591 322 600T343 616Q348 621 354 624T364 627ZM389 277Q391 277 393 281T394 288Q389 307 378 337T356 398T334 453T321 484Q319 489 315 488T308 484Q300 464 291 440T273 389T254 336T237 288Q236 285 238 282T245 277Q251 277 272 277T316 276T361 276T389 277ZM509 752Q503 746 495 737T479 718T462 699T448 685Q440 677 430 673T408 668Q395 668 373 670T328 673T286 675T258 674Q250 672 242 664T222 640Q220 636 216 632T209 628Q198 628 190 636T182 650Q182 652 185 658T197 679Q205 692 219 711T245 738Q249 740 259 744T281 749Q330 749 366 745T432 744Q449 749 461 761T479 777Q481 779 485 782T492 786Q495 786 499 782T507 773T512 762T509 752Z"  />
<glyph unicode="&#xC4;" horiz-adv-x="677" d="M364 627Q372 627 379 605T404 532Q423 478 447 414T494 291T536 183T564 112Q572 92 578 81T593 62T613 49T646 37Q663 31 669 23T676 7Q676 2 669 -1T650 -5Q613 -5 579 -3T507 0Q490 0 481 0T463 -1T447 -2T427 -3Q412 -3 405 2T398 12Q398 18 403 25T422 37Q456 47 462 57T461 93Q458 103 453 118T442 150T430 182T419 209Q417 214 410 218T393 224Q386 224 363 224T312 224T260 224T223 222Q219 222 214 217T207 208Q202 194 196 175T183 137T173 102T169 79Q169 68 177 58T219 37Q229 34 235 30T242 19Q242 12 234 5T207 -3Q203 -3 194 -3T174 -2T150 -1T126 0Q113 0 103 -1T81 -2T59 -4T32 -5Q18 -5 8 -1T-2 11Q-2 19 4 25T28 37Q64 47 80 61T106 97Q114 113 127 143T156 212T189 295T225 385T259 471T288 547Q290 552 291 559T294 574Q294 576 296 580T301 585Q310 591 322 600T343 616Q348 621 354 624T364 627ZM389 277Q391 277 393 281T394 288Q389 307 378 337T356 398T334 453T321 484Q319 489 315 488T308 484Q300 464 291 440T273 389T254 336T237 288Q236 285 238 282T245 277Q251 277 272 277T316 276T361 276T389 277ZM248 764Q263 764 273 757T290 741T298 722T301 707Q301 690 295 679T280 660T261 650T244 647Q225 647 206 661T187 704Q187 730 204 747T248 764ZM453 764Q468 764 478 757T494 741T502 722T505 707Q505 690 499 679T483 660T464 650T447 647Q428 647 410 661T391 704Q391 730 407 747T453 764Z"  />
<glyph unicode="&#xC5;" horiz-adv-x="677" d="M364 627Q372 627 379 605T404 532Q423 478 447 414T494 291T536 183T564 112Q572 92 578 81T593 62T613 49T646 37Q663 31 669 23T676 7Q676 2 669 -1T650 -5Q613 -5 579 -3T507 0Q490 0 481 0T463 -1T447 -2T427 -3Q412 -3 405 2T398 12Q398 18 403 25T422 37Q456 47 462 57T461 93Q458 103 453 118T442 150T430 182T419 209Q417 214 410 218T393 224Q386 224 363 224T312 224T260 224T223 222Q219 222 214 217T207 208Q202 194 196 175T183 137T173 102T169 79Q169 68 177 58T219 37Q229 34 235 30T242 19Q242 12 234 5T207 -3Q203 -3 194 -3T174 -2T150 -1T126 0Q113 0 103 -1T81 -2T59 -4T32 -5Q18 -5 8 -1T-2 11Q-2 19 4 25T28 37Q64 47 80 61T106 97Q114 113 127 143T156 212T189 295T225 385T259 471T288 547Q290 552 291 559T294 574Q294 576 296 580T301 585Q310 591 322 600T343 616Q348 621 354 624T364 627ZM389 277Q391 277 393 281T394 288Q389 307 378 337T356 398T334 453T321 484Q319 489 315 488T308 484Q300 464 291 440T273 389T254 336T237 288Q236 285 238 282T245 277Q251 277 272 277T316 276T361 276T389 277ZM337 830Q360 830 378 822T410 801T430 770T437 734Q437 715 430 698T410 667T379 645T337 637Q314 637 296 645T265 666T245 697T238 734Q238 753 245 770T265 800T296 822T337 830ZM337 788Q317 788 303 773T289 734Q289 708 304 694T338 680Q359 680 372 694T385 736Q385 756 372 772T337 788Z"  />
<glyph unicode="&#xC6;" horiz-adv-x="914" d="M638 609Q705 609 738 611T786 613Q794 613 799 612T810 604Q812 600 815 586T820 554T824 523T826 506Q826 499 821 489T808 479Q797 479 790 490T773 517Q750 562 702 562Q657 562 626 562T581 561Q577 561 573 555T568 541Q568 534 568 513T567 463T566 401T566 338Q566 333 569 329T577 324H653Q677 324 690 325T711 332T723 347T735 371Q740 382 747 389T762 396Q773 396 777 385T779 353Q778 344 778 330T778 299Q778 284 778 266T780 237Q782 218 774 211T761 203Q745 203 734 232Q726 253 720 261T697 272Q674 274 641 274T578 273Q573 273 570 268T566 258Q566 192 566 160T568 111Q570 89 573 80T579 68Q593 57 613 51T670 45Q738 45 766 52Q773 54 791 66T825 98Q841 116 849 129T867 143Q877 143 882 130T884 103Q882 92 877 79T867 53T858 30T852 17Q847 6 837 2T818 -3Q813 -3 799 -3T756 -2T682 -1T571 0Q522 0 474 -2T396 -4Q379 -4 368 0T356 15Q356 25 366 31T391 40Q432 49 445 63T462 106Q463 124 464 138T465 167T466 202T466 252Q466 257 464 261T459 265L293 262Q280 262 270 246Q253 217 238 190T212 140T193 100T186 72Q186 64 195 56T230 38Q253 29 253 15Q253 7 245 2T224 -3Q222 -3 211 -3T183 -2T149 -1T115 0Q86 0 68 -1T38 -3Q21 -3 14 3T7 16Q7 25 17 31T42 42Q60 48 72 53T94 67T113 88T135 122Q144 137 163 167T205 237T255 319T305 404T350 479T382 536Q386 544 386 550T375 559Q358 561 340 565T315 572Q305 574 298 580T290 593Q290 600 296 606T326 612Q373 612 422 611T518 609H638ZM468 554Q468 561 461 559T447 548Q434 528 416 499T380 438T344 376T317 327Q316 325 317 320T324 315H456Q461 315 463 320T466 327Q466 329 466 345T466 385T467 437T467 489T468 532T468 554Z"  />
<glyph unicode="&#xC7;" horiz-adv-x="687" d="M420 627Q455 627 486 621T542 609Q561 604 581 598T607 591Q612 591 617 585T622 574Q622 566 623 553T625 524T627 494T628 470Q628 449 621 440T604 430Q596 430 592 439T584 459Q576 491 561 514T517 555Q494 569 463 576T400 584Q382 584 362 580T323 568T285 549T252 524Q232 505 218 481T193 429T177 374T172 319Q172 294 176 267T189 214T207 166T230 129Q248 106 271 88T319 57T371 38T422 31Q443 31 474 39T526 58Q534 62 550 79T581 122Q594 146 601 156T616 167Q625 167 629 157T634 132Q634 129 632 117T625 89T618 60T612 38Q610 33 604 26T595 16Q584 11 567 6T529 -3T484 -11T438 -16Q435 -21 425 -33T410 -53Q408 -57 409 -60T414 -65Q440 -76 457 -93T475 -139Q475 -170 457 -191T418 -227Q375 -257 339 -257Q333 -257 324 -253T309 -240Q304 -232 304 -221T310 -202Q323 -190 334 -194Q342 -197 352 -201T372 -205Q393 -205 401 -195T410 -170Q410 -150 393 -137T355 -123H339Q334 -123 328 -118T321 -107Q321 -105 322 -102T330 -90Q346 -72 363 -54T395 -18Q317 -16 248 9T132 87Q99 123 76 177T53 298Q53 384 88 450T190 563Q224 586 281 606T420 627Z"  />
<glyph unicode="&#xC8;" horiz-adv-x="570" d="M311 609Q344 609 366 609T405 610T431 612T451 613Q467 615 474 604Q476 600 478 587T483 557T487 525T489 501Q489 491 484 483T472 475Q463 475 454 486T430 529Q419 552 408 558T394 564Q373 564 349 564T304 563T268 562T247 561Q245 561 241 555T236 544Q235 534 235 514T234 468T233 414T233 360Q233 354 235 344T245 333Q248 333 256 333T274 332T293 332T309 332Q333 333 348 336T372 344T386 357T396 376Q406 404 420 404Q440 404 437 364Q436 355 435 342T434 314Q434 297 434 279T436 248Q438 228 431 221T419 214Q414 214 407 220T394 241Q386 261 379 269T356 280Q325 282 302 282T245 283Q240 283 237 274T233 256Q233 194 234 162T236 114Q239 69 247 63Q254 56 280 49T360 42Q388 42 403 44T435 51Q455 57 468 71T498 109Q511 129 518 139T535 149Q547 149 548 134T547 104Q545 93 540 79T530 52T521 29T515 15Q511 5 499 0T483 -5Q469 -5 454 -4T413 -3T345 -1T235 0Q211 0 186 -1T138 -2T93 -4T55 -5Q18 -5 18 8Q18 27 50 35Q74 41 89 46T112 59T123 75T128 97Q129 108 129 121T130 157T131 213T131 299Q131 326 131 362T130 433T129 493T127 526Q125 549 110 558T64 576Q50 579 44 585T37 597Q37 606 46 610T65 614Q78 614 118 612T208 609H311ZM189 829Q195 829 205 825T229 808Q248 791 276 763T331 706Q338 698 344 686T349 667Q347 658 333 654T301 658Q284 666 262 678T218 703T179 725T154 739Q144 746 140 754T136 770Q136 778 141 788T155 807T173 822T189 829Z"  />
<glyph unicode="&#xC9;" horiz-adv-x="570" d="M311 609Q344 609 366 609T405 610T431 612T451 613Q467 615 474 604Q476 600 478 587T483 557T487 525T489 501Q489 491 484 483T472 475Q463 475 454 486T430 529Q419 552 408 558T394 564Q373 564 349 564T304 563T268 562T247 561Q245 561 241 555T236 544Q235 534 235 514T234 468T233 414T233 360Q233 354 235 344T245 333Q248 333 256 333T274 332T293 332T309 332Q333 333 348 336T372 344T386 357T396 376Q406 404 420 404Q440 404 437 364Q436 355 435 342T434 314Q434 297 434 279T436 248Q438 228 431 221T419 214Q414 214 407 220T394 241Q386 261 379 269T356 280Q325 282 302 282T245 283Q240 283 237 274T233 256Q233 194 234 162T236 114Q239 69 247 63Q254 56 280 49T360 42Q388 42 403 44T435 51Q455 57 468 71T498 109Q511 129 518 139T535 149Q547 149 548 134T547 104Q545 93 540 79T530 52T521 29T515 15Q511 5 499 0T483 -5Q469 -5 454 -4T413 -3T345 -1T235 0Q211 0 186 -1T138 -2T93 -4T55 -5Q18 -5 18 8Q18 27 50 35Q74 41 89 46T112 59T123 75T128 97Q129 108 129 121T130 157T131 213T131 299Q131 326 131 362T130 433T129 493T127 526Q125 549 110 558T64 576Q50 579 44 585T37 597Q37 606 46 610T65 614Q78 614 118 612T208 609H311ZM374 807Q383 814 392 816T407 817Q414 816 422 810T436 795T446 778T450 765Q450 756 442 747T425 733Q407 723 387 713T346 693T305 675T269 659Q253 653 239 654T221 665Q219 670 225 679T237 694Q251 706 268 721T303 751T339 781T374 807Z"  />
<glyph unicode="&#xCA;" horiz-adv-x="570" d="M311 609Q344 609 366 609T405 610T431 612T451 613Q467 615 474 604Q476 600 478 587T483 557T487 525T489 501Q489 491 484 483T472 475Q463 475 454 486T430 529Q419 552 408 558T394 564Q373 564 349 564T304 563T268 562T247 561Q245 561 241 555T236 544Q235 534 235 514T234 468T233 414T233 360Q233 354 235 344T245 333Q248 333 256 333T274 332T293 332T309 332Q333 333 348 336T372 344T386 357T396 376Q406 404 420 404Q440 404 437 364Q436 355 435 342T434 314Q434 297 434 279T436 248Q438 228 431 221T419 214Q414 214 407 220T394 241Q386 261 379 269T356 280Q325 282 302 282T245 283Q240 283 237 274T233 256Q233 194 234 162T236 114Q239 69 247 63Q254 56 280 49T360 42Q388 42 403 44T435 51Q455 57 468 71T498 109Q511 129 518 139T535 149Q547 149 548 134T547 104Q545 93 540 79T530 52T521 29T515 15Q511 5 499 0T483 -5Q469 -5 454 -4T413 -3T345 -1T235 0Q211 0 186 -1T138 -2T93 -4T55 -5Q18 -5 18 8Q18 27 50 35Q74 41 89 46T112 59T123 75T128 97Q129 108 129 121T130 157T131 213T131 299Q131 326 131 362T130 433T129 493T127 526Q125 549 110 558T64 576Q50 579 44 585T37 597Q37 606 46 610T65 614Q78 614 118 612T208 609H311ZM290 803Q298 803 311 796T339 775Q353 764 378 742T437 691Q455 676 453 664T434 652Q426 652 415 655T396 662Q369 674 343 687T295 711Q284 716 275 711Q257 704 230 691T179 665Q171 662 163 658T144 654Q133 654 130 658T127 670T134 685T149 700Q155 706 166 715T191 736T218 758T244 778Q257 788 268 795T290 803Z"  />
<glyph unicode="&#xCB;" horiz-adv-x="570" d="M311 609Q344 609 366 609T405 610T431 612T451 613Q467 615 474 604Q476 600 478 587T483 557T487 525T489 501Q489 491 484 483T472 475Q463 475 454 486T430 529Q419 552 408 558T394 564Q373 564 349 564T304 563T268 562T247 561Q245 561 241 555T236 544Q235 534 235 514T234 468T233 414T233 360Q233 354 235 344T245 333Q248 333 256 333T274 332T293 332T309 332Q333 333 348 336T372 344T386 357T396 376Q406 404 420 404Q440 404 437 364Q436 355 435 342T434 314Q434 297 434 279T436 248Q438 228 431 221T419 214Q414 214 407 220T394 241Q386 261 379 269T356 280Q325 282 302 282T245 283Q240 283 237 274T233 256Q233 194 234 162T236 114Q239 69 247 63Q254 56 280 49T360 42Q388 42 403 44T435 51Q455 57 468 71T498 109Q511 129 518 139T535 149Q547 149 548 134T547 104Q545 93 540 79T530 52T521 29T515 15Q511 5 499 0T483 -5Q469 -5 454 -4T413 -3T345 -1T235 0Q211 0 186 -1T138 -2T93 -4T55 -5Q18 -5 18 8Q18 27 50 35Q74 41 89 46T112 59T123 75T128 97Q129 108 129 121T130 157T131 213T131 299Q131 326 131 362T130 433T129 493T127 526Q125 549 110 558T64 576Q50 579 44 585T37 597Q37 606 46 610T65 614Q78 614 118 612T208 609H311ZM188 782Q204 782 214 775T231 758T239 739T242 724Q242 707 236 696T221 677T202 667T185 664Q166 664 147 678T128 721Q128 747 144 764T188 782ZM394 782Q409 782 419 775T435 758T443 739T445 724Q445 707 439 696T423 677T404 667T387 664Q369 664 350 678T331 721Q331 747 348 764T394 782Z"  />
<glyph unicode="&#xCC;" horiz-adv-x="361" d="M131 463Q131 495 129 514T121 544T101 562T64 574Q39 580 39 596Q39 602 49 607T71 612Q85 612 113 611T175 609Q220 609 246 611T294 613Q303 613 311 608T319 595Q319 587 311 583T297 576Q276 571 264 566T245 552T237 531T234 499Q233 484 233 458T233 402T233 341T233 284Q233 202 233 161T234 109Q235 91 238 80T248 60T270 47T306 36Q333 29 333 15Q333 5 321 1T300 -4Q296 -4 282 -4T249 -2T212 -1T180 0Q167 0 150 -1T117 -3T87 -5T66 -6Q56 -6 47 -2T38 10Q38 17 45 23T64 34Q83 40 94 45T111 56T120 67T125 81Q126 89 127 115T129 175T130 246T131 314V463ZM78 831Q85 831 95 827T118 810Q138 793 166 766T220 708Q228 700 234 689T239 670Q237 661 222 657T191 661Q174 669 152 681T108 705T69 727T44 741Q33 748 30 757T26 772Q26 780 31 790T45 810T63 825T78 831Z"  />
<glyph unicode="&#xCD;" horiz-adv-x="361" d="M131 463Q131 495 129 514T121 544T101 562T64 574Q39 580 39 596Q39 602 49 607T71 612Q85 612 113 611T175 609Q220 609 246 611T294 613Q303 613 311 608T319 595Q319 587 311 583T297 576Q276 571 264 566T245 552T237 531T234 499Q233 484 233 458T233 402T233 341T233 284Q233 202 233 161T234 109Q235 91 238 80T248 60T270 47T306 36Q333 29 333 15Q333 5 321 1T300 -4Q296 -4 282 -4T249 -2T212 -1T180 0Q167 0 150 -1T117 -3T87 -5T66 -6Q56 -6 47 -2T38 10Q38 17 45 23T64 34Q83 40 94 45T111 56T120 67T125 81Q126 89 127 115T129 175T130 246T131 314V463ZM274 804Q283 811 292 813T307 814Q314 813 321 807T335 792T346 775T350 761Q350 752 342 743T325 729Q307 720 287 710T246 690T205 672T169 656Q153 650 139 651T121 662Q119 667 125 676T137 691Q151 703 168 718T203 748T239 778T274 804Z"  />
<glyph unicode="&#xCE;" horiz-adv-x="361" d="M131 463Q131 495 129 514T121 544T101 562T64 574Q39 580 39 596Q39 602 49 607T71 612Q85 612 113 611T175 609Q220 609 246 611T294 613Q303 613 311 608T319 595Q319 587 311 583T297 576Q276 571 264 566T245 552T237 531T234 499Q233 484 233 458T233 402T233 341T233 284Q233 202 233 161T234 109Q235 91 238 80T248 60T270 47T306 36Q333 29 333 15Q333 5 321 1T300 -4Q296 -4 282 -4T249 -2T212 -1T180 0Q167 0 150 -1T117 -3T87 -5T66 -6Q56 -6 47 -2T38 10Q38 17 45 23T64 34Q83 40 94 45T111 56T120 67T125 81Q126 89 127 115T129 175T130 246T131 314V463ZM184 805Q201 805 232 777Q246 766 272 745T331 694Q349 678 347 666T328 654Q319 654 308 657T289 665Q263 677 237 689T189 714Q177 720 169 714Q151 706 123 693T72 668Q65 664 57 661T38 657Q27 657 23 661T20 673T28 688T43 703Q49 708 60 717T84 738T112 760T138 780Q150 791 162 798T184 805Z"  />
<glyph unicode="&#xCF;" horiz-adv-x="361" d="M131 463Q131 495 129 514T121 544T101 562T64 574Q39 580 39 596Q39 602 49 607T71 612Q85 612 113 611T175 609Q220 609 246 611T294 613Q303 613 311 608T319 595Q319 587 311 583T297 576Q276 571 264 566T245 552T237 531T234 499Q233 484 233 458T233 402T233 341T233 284Q233 202 233 161T234 109Q235 91 238 80T248 60T270 47T306 36Q333 29 333 15Q333 5 321 1T300 -4Q296 -4 282 -4T249 -2T212 -1T180 0Q167 0 150 -1T117 -3T87 -5T66 -6Q56 -6 47 -2T38 10Q38 17 45 23T64 34Q83 40 94 45T111 56T120 67T125 81Q126 89 127 115T129 175T130 246T131 314V463ZM86 783Q101 783 111 776T128 760T136 741T139 726Q139 709 133 698T118 679T99 669T82 666Q63 666 44 680T25 723Q25 749 42 766T86 783ZM291 783Q306 783 316 776T332 760T340 741T343 726Q343 709 337 698T321 679T302 669T285 666Q266 666 248 680T229 723Q229 749 245 766T291 783Z"  />
<glyph unicode="&#xD0;" horiz-adv-x="741" d="M25 590Q25 598 37 603T70 609H150Q163 609 183 610T227 612T278 615T331 617Q403 617 469 600T591 536Q622 509 642 480T675 421T691 363T696 312Q696 255 681 210T642 132T593 76T547 43Q493 14 433 3T316 -8Q301 -8 278 -7T231 -5T186 -2T153 0Q129 0 102 -1T55 -3Q21 -3 21 14Q21 30 59 41Q69 44 80 47T100 57T116 73T124 101Q125 116 126 132T128 169T130 217T131 281Q131 285 127 287T121 289L39 290Q32 290 29 295T26 306Q26 309 27 314T30 325T34 335T40 340L125 339Q131 339 131 346Q131 403 131 437T130 492T128 521T126 536Q125 540 122 544T112 552T92 560T58 567Q40 570 33 576T25 590ZM399 339Q404 339 408 334T412 324Q412 314 406 303T393 291L240 290Q238 290 235 288T232 281Q232 244 232 219T233 176T235 146T238 123Q240 107 247 89T271 60Q288 49 312 43T354 37Q369 37 388 41T429 54T471 75T509 105Q544 140 562 192T581 308Q581 365 564 414T508 501Q473 536 423 554T318 573Q313 573 305 573T286 571T267 568T253 564Q248 562 243 558T236 544Q235 535 235 521T234 484T233 428T232 347Q232 346 234 343T239 339H399Z"  />
<glyph unicode="&#xD1;" horiz-adv-x="761" d="M16 602Q16 615 37 615Q52 615 72 614T114 612T156 610T189 609Q194 609 201 603T210 595Q218 581 244 550T306 480Q319 466 342 441T392 385T449 322T504 261T549 211T578 182Q580 180 584 182T589 189Q590 197 591 229T593 302T594 385T591 458Q589 489 587 508T578 539T557 557T517 570Q499 574 494 581T488 594Q488 599 495 604T519 610Q532 610 540 610T556 610T570 609T587 609Q602 609 619 610T653 612T683 614T704 615Q720 615 728 610T736 597Q736 592 730 586T698 572Q671 563 661 551T648 523Q647 510 646 469T643 377T640 273T639 186Q639 153 640 111T642 33Q642 1 636 -9T620 -19Q612 -19 599 -11T576 11Q566 25 553 43T524 79T495 114T470 143Q461 154 440 177T393 231T338 294T281 358T233 412T200 449Q196 452 193 449T190 439Q189 422 188 395T186 338Q186 321 186 295T187 241T189 191T190 158Q191 125 193 106T202 74T220 55T252 42Q270 36 278 30T286 13Q286 4 276 0T254 -4Q233 -4 215 -2T177 0Q159 0 141 -1T106 -3T78 -5T61 -6Q47 -6 38 -2T28 11Q28 27 56 35Q79 41 92 48T113 65T124 87T128 117Q129 134 130 166T133 237T136 319T139 398T140 461T141 496Q141 504 135 517T110 547Q99 559 80 565T47 575Q34 577 25 585T16 602ZM547 766Q541 760 533 751T517 732T500 713T486 699Q478 691 468 687T446 682Q433 682 411 684T366 687T324 689T296 688Q288 686 280 678T260 654Q258 650 254 646T247 642Q236 642 228 650T220 664Q220 666 223 672T235 693Q243 706 257 725T283 752Q287 754 297 758T319 763Q368 763 404 759T470 758Q487 763 499 775T517 791Q519 793 523 796T530 800Q533 800 537 796T545 787T550 776T547 766Z"  />
<glyph unicode="&#xD2;" horiz-adv-x="774" d="M387 627Q457 627 518 603T624 537T695 436T721 307Q721 266 710 226T678 148T626 79T555 24Q523 6 479 -6T387 -18Q315 -18 254 7T149 76T79 178T53 302Q53 361 75 419T143 523Q189 570 254 598T387 627ZM369 584Q351 584 333 579T298 566T267 548T243 528Q211 494 191 442T171 315Q171 263 187 212T234 119T309 52T410 26Q443 26 474 38T527 70Q556 98 579 153T602 302Q602 353 586 403T540 494T467 559T369 584ZM288 850Q295 850 305 846T328 829Q348 812 376 785T430 727Q438 719 444 708T449 689Q447 680 432 676T401 680Q384 688 362 700T318 724T279 746T254 760Q243 767 240 776T236 791Q236 799 241 809T255 829T273 844T288 850Z"  />
<glyph unicode="&#xD3;" horiz-adv-x="774" d="M387 627Q457 627 518 603T624 537T695 436T721 307Q721 266 710 226T678 148T626 79T555 24Q523 6 479 -6T387 -18Q315 -18 254 7T149 76T79 178T53 302Q53 361 75 419T143 523Q189 570 254 598T387 627ZM369 584Q351 584 333 579T298 566T267 548T243 528Q211 494 191 442T171 315Q171 263 187 212T234 119T309 52T410 26Q443 26 474 38T527 70Q556 98 579 153T602 302Q602 353 586 403T540 494T467 559T369 584ZM464 823Q472 830 481 832T496 833Q503 832 511 826T525 811T536 794T540 781Q540 772 532 763T515 749Q479 729 435 709T358 675Q342 669 329 670T311 681Q309 686 315 695T327 710Q340 722 357 737T393 767T429 797T464 823Z"  />
<glyph unicode="&#xD4;" horiz-adv-x="774" d="M387 627Q457 627 518 603T624 537T695 436T721 307Q721 266 710 226T678 148T626 79T555 24Q523 6 479 -6T387 -18Q315 -18 254 7T149 76T79 178T53 302Q53 361 75 419T143 523Q189 570 254 598T387 627ZM369 584Q351 584 333 579T298 566T267 548T243 528Q211 494 191 442T171 315Q171 263 187 212T234 119T309 52T410 26Q443 26 474 38T527 70Q556 98 579 153T602 302Q602 353 586 403T540 494T467 559T369 584ZM393 819Q409 819 441 790Q455 780 481 758T539 707Q558 691 556 679T537 667Q528 667 517 671T498 678Q472 690 446 703T397 727Q392 730 387 730T377 727Q360 720 332 706T281 681Q274 678 266 674T246 670Q235 670 232 674T229 686T237 701T252 716Q258 722 269 731T293 752T320 774T346 794Q359 804 371 811T393 819Z"  />
<glyph unicode="&#xD5;" horiz-adv-x="774" d="M387 627Q457 627 518 603T624 537T695 436T721 307Q721 266 710 226T678 148T626 79T555 24Q523 6 479 -6T387 -18Q315 -18 254 7T149 76T79 178T53 302Q53 361 75 419T143 523Q189 570 254 598T387 627ZM369 584Q351 584 333 579T298 566T267 548T243 528Q211 494 191 442T171 315Q171 263 187 212T234 119T309 52T410 26Q443 26 474 38T527 70Q556 98 579 153T602 302Q602 353 586 403T540 494T467 559T369 584ZM550 789Q544 783 536 774T520 754T503 736T490 721Q471 705 449 705Q436 705 414 707T369 710T327 712T299 710Q291 708 283 700T263 677Q261 673 257 669T250 665Q239 665 231 673T223 686Q223 689 226 695T238 715Q246 728 260 747T286 775Q290 777 300 781T322 786Q371 786 407 781T473 781Q490 785 502 797T520 814Q522 816 526 819T533 823Q536 823 540 819T548 810T553 798T550 789Z"  />
<glyph unicode="&#xD6;" horiz-adv-x="774" d="M387 627Q457 627 518 603T624 537T695 436T721 307Q721 266 710 226T678 148T626 79T555 24Q523 6 479 -6T387 -18Q315 -18 254 7T149 76T79 178T53 302Q53 361 75 419T143 523Q189 570 254 598T387 627ZM369 584Q351 584 333 579T298 566T267 548T243 528Q211 494 191 442T171 315Q171 263 187 212T234 119T309 52T410 26Q443 26 474 38T527 70Q556 98 579 153T602 302Q602 353 586 403T540 494T467 559T369 584ZM292 801Q308 801 318 794T335 777T343 758T346 743Q346 726 340 715T325 696T306 686T289 683Q270 683 251 697T232 740Q232 766 248 783T292 801ZM498 801Q513 801 523 794T539 777T547 758T549 743Q549 726 543 715T528 696T509 686T492 683Q473 683 454 697T435 740Q435 766 452 783T498 801Z"  />
<glyph unicode="&#xD7;" horiz-adv-x="646" d="M536 2Q533 -2 524 -4T509 -2L326 177Q323 181 319 182T311 180L137 9Q132 5 124 5T112 8Q103 16 95 29T92 49L269 225Q271 227 270 230T266 236L92 407Q89 410 91 416T97 430T107 445T117 456Q122 461 130 461T144 457L317 284Q319 282 323 281T329 281L504 457Q509 462 516 463T527 462Q541 448 547 434T548 414L372 237Q370 235 371 231T375 224L555 47Q557 45 556 39T552 26T545 13T536 2Z"  />
<glyph unicode="&#xD8;" horiz-adv-x="779" d="M389 -18Q339 -18 296 -6T214 28Q207 30 200 21L161 -29Q159 -31 155 -32T148 -32Q142 -31 135 -24T125 -12Q121 -4 125 1L165 53Q167 54 167 57T165 62Q116 104 85 164T53 302Q53 362 75 420T143 524Q191 572 256 599T389 627Q439 627 484 615T569 579Q572 577 575 578T580 582Q599 604 604 610T612 618Q617 623 622 626T631 629Q635 628 641 623T652 614Q653 612 654 608T654 601L617 553Q616 551 617 548T619 544Q664 506 695 446T726 307Q726 266 715 226T683 148T631 80T559 25Q527 6 482 -6T389 -18ZM521 503Q526 510 526 513T520 522Q490 550 453 567T370 584Q335 584 301 568T243 528Q211 493 191 442T170 317Q170 269 183 223T222 137Q224 135 227 134T232 136L521 503ZM259 100Q257 98 258 94T262 87Q291 58 329 42T412 26Q444 26 475 37T532 72Q563 101 585 156T608 302Q608 350 596 391T563 468Q557 478 548 468L259 100Z"  />
<glyph unicode="&#xD9;" horiz-adv-x="739" d="M31 597Q31 608 42 611T74 614Q86 614 100 613T131 612T162 610T190 609Q223 609 246 610T281 612Q298 612 306 607T314 594Q314 586 305 580T284 571Q265 567 254 563T236 550T226 530T222 497Q219 456 219 391T223 255Q225 219 229 194T241 151T256 121T274 99Q294 78 330 63T403 48Q434 48 462 57T513 86T550 139T571 219Q573 235 574 262T577 319T578 380T579 432Q579 474 577 499T568 539T546 559T506 571Q491 574 484 580T477 594Q477 600 485 606T510 612Q525 612 541 611T587 609Q600 609 616 610T649 611T679 613T702 614Q713 614 722 611T731 597Q731 591 724 584T701 572Q682 567 671 563T654 551T645 533T640 503Q639 498 638 477T636 425T632 362T629 299Q626 243 619 202T602 131T576 80T543 40Q512 10 467 -4T374 -18Q346 -18 318 -13T263 4T214 30T177 65Q156 93 145 124T129 188T123 251T122 308Q122 383 120 434T116 516Q115 531 112 540T102 556T85 565T60 573Q31 580 31 597ZM302 826Q308 826 318 822T342 805Q361 788 389 761T444 703Q451 695 457 683T462 664Q460 655 446 651T414 655Q397 663 375 675T331 700T292 722T267 736Q257 743 253 751T249 767Q249 775 254 785T268 804T286 819T302 826Z"  />
<glyph unicode="&#xDA;" horiz-adv-x="739" d="M31 597Q31 608 42 611T74 614Q86 614 100 613T131 612T162 610T190 609Q223 609 246 610T281 612Q298 612 306 607T314 594Q314 586 305 580T284 571Q265 567 254 563T236 550T226 530T222 497Q219 456 219 391T223 255Q225 219 229 194T241 151T256 121T274 99Q294 78 330 63T403 48Q434 48 462 57T513 86T550 139T571 219Q573 235 574 262T577 319T578 380T579 432Q579 474 577 499T568 539T546 559T506 571Q491 574 484 580T477 594Q477 600 485 606T510 612Q525 612 541 611T587 609Q600 609 616 610T649 611T679 613T702 614Q713 614 722 611T731 597Q731 591 724 584T701 572Q682 567 671 563T654 551T645 533T640 503Q639 498 638 477T636 425T632 362T629 299Q626 243 619 202T602 131T576 80T543 40Q512 10 467 -4T374 -18Q346 -18 318 -13T263 4T214 30T177 65Q156 93 145 124T129 188T123 251T122 308Q122 383 120 434T116 516Q115 531 112 540T102 556T85 565T60 573Q31 580 31 597ZM477 809Q485 816 495 818T509 819Q516 818 524 812T538 797T549 780T553 767Q553 758 545 749T528 735Q510 725 490 715T449 695T408 677T372 661Q356 655 342 656T324 667Q322 672 328 681T340 696Q354 708 371 723T406 753T442 783T477 809Z"  />
<glyph unicode="&#xDB;" horiz-adv-x="739" d="M31 597Q31 608 42 611T74 614Q86 614 100 613T131 612T162 610T190 609Q223 609 246 610T281 612Q298 612 306 607T314 594Q314 586 305 580T284 571Q265 567 254 563T236 550T226 530T222 497Q219 456 219 391T223 255Q225 219 229 194T241 151T256 121T274 99Q294 78 330 63T403 48Q434 48 462 57T513 86T550 139T571 219Q573 235 574 262T577 319T578 380T579 432Q579 474 577 499T568 539T546 559T506 571Q491 574 484 580T477 594Q477 600 485 606T510 612Q525 612 541 611T587 609Q600 609 616 610T649 611T679 613T702 614Q713 614 722 611T731 597Q731 591 724 584T701 572Q682 567 671 563T654 551T645 533T640 503Q639 498 638 477T636 425T632 362T629 299Q626 243 619 202T602 131T576 80T543 40Q512 10 467 -4T374 -18Q346 -18 318 -13T263 4T214 30T177 65Q156 93 145 124T129 188T123 251T122 308Q122 383 120 434T116 516Q115 531 112 540T102 556T85 565T60 573Q31 580 31 597ZM409 810Q417 810 430 803T457 782Q471 771 497 750T556 699Q574 683 572 671T553 659Q544 659 534 662T515 669Q488 681 462 694T414 719Q402 725 394 719Q376 711 348 698T297 672Q290 669 282 665T263 661Q252 661 248 665T245 677T253 692T268 708Q274 713 285 722T310 743T337 765T363 785Q376 796 387 803T409 810Z"  />
<glyph unicode="&#xDC;" horiz-adv-x="739" d="M31 597Q31 608 42 611T74 614Q86 614 100 613T131 612T162 610T190 609Q223 609 246 610T281 612Q298 612 306 607T314 594Q314 586 305 580T284 571Q265 567 254 563T236 550T226 530T222 497Q219 456 219 391T223 255Q225 219 229 194T241 151T256 121T274 99Q294 78 330 63T403 48Q434 48 462 57T513 86T550 139T571 219Q573 235 574 262T577 319T578 380T579 432Q579 474 577 499T568 539T546 559T506 571Q491 574 484 580T477 594Q477 600 485 606T510 612Q525 612 541 611T587 609Q600 609 616 610T649 611T679 613T702 614Q713 614 722 611T731 597Q731 591 724 584T701 572Q682 567 671 563T654 551T645 533T640 503Q639 498 638 477T636 425T632 362T629 299Q626 243 619 202T602 131T576 80T543 40Q512 10 467 -4T374 -18Q346 -18 318 -13T263 4T214 30T177 65Q156 93 145 124T129 188T123 251T122 308Q122 383 120 434T116 516Q115 531 112 540T102 556T85 565T60 573Q31 580 31 597ZM301 782Q317 782 327 775T344 758T352 739T355 724Q355 707 349 696T334 677T315 667T298 664Q279 664 260 678T241 721Q241 747 258 764T301 782ZM507 782Q522 782 532 775T548 758T556 739T559 724Q559 707 553 696T537 677T518 667T501 664Q482 664 463 678T444 721Q444 747 461 764T507 782Z"  />
<glyph unicode="&#xDD;" horiz-adv-x="634" d="M-5 597Q-5 606 5 610T25 614Q32 614 46 613T75 612T107 610T134 609Q166 609 194 611T235 613Q245 613 253 609T262 596Q262 588 256 583T232 572Q212 567 212 559T219 533Q232 508 250 475T285 411T316 357T334 327Q338 323 340 323T347 326Q349 328 357 340T376 371T400 410T424 452T445 489T458 514Q472 543 470 554T438 573Q412 581 412 595Q412 612 446 612Q469 612 489 611T520 609Q543 609 567 611T612 614Q626 614 633 609T641 597Q641 591 634 584T612 573Q584 565 562 552T515 507Q499 486 477 453T433 386T395 324T373 283Q368 272 366 259T362 230Q361 216 361 196T361 155T361 114T361 83Q362 76 365 70T376 59T398 48T436 37Q447 34 453 28T459 16Q459 8 450 2T425 -4Q411 -4 381 -2T319 0Q301 0 283 0T248 -2T218 -3T196 -4Q165 -4 165 15Q165 25 176 30T201 40Q216 44 226 48T243 62T253 86T258 126Q259 138 259 154T260 186T260 215T260 237Q260 250 256 262T240 296Q229 318 212 351T175 417T137 478T109 520Q98 534 80 548T24 574Q7 579 1 585T-5 597ZM431 809Q440 816 449 818T464 819Q471 818 478 812T492 797T503 780T507 767Q507 758 499 749T482 735Q464 725 444 715T403 695T362 677T326 661Q310 655 296 656T278 667Q276 672 282 681T294 696Q308 708 325 723T360 753T396 783T431 809Z"  />
<glyph unicode="&#xDE;" horiz-adv-x="582" d="M37 597Q37 604 46 608T70 612Q78 612 91 612T119 611T149 610T177 609Q193 609 222 610T280 612Q290 612 298 608T307 594Q307 587 298 582T277 574Q259 569 249 564T234 549T227 525T225 491Q225 488 227 484T234 479Q242 480 264 480T310 481Q353 481 394 473T466 444T517 391T537 307Q537 263 518 229T468 172T396 136T314 123Q291 123 267 127T232 136Q230 136 227 134T224 130Q224 101 226 85T234 60T253 47T288 37Q305 32 314 28T323 14Q323 7 316 2T297 -3Q273 -3 247 -2T179 0Q153 0 120 -2T61 -5Q47 -5 35 -1T23 11Q23 20 32 25T53 33Q75 38 88 43T109 60T118 90T122 141Q123 176 124 222T125 317T126 413T126 497Q126 518 124 531T114 552T94 565T60 575Q51 577 44 583T37 597ZM431 302Q431 370 391 403T282 437Q267 437 253 434T234 429Q232 428 227 419T222 397V200Q222 195 225 189T236 180Q250 175 266 173T306 170Q326 170 348 178T388 202T419 244T431 302Z"  />
<glyph unicode="&#xDF;" horiz-adv-x="543" d="M332 682Q373 682 402 668T450 632T477 588T486 546Q486 502 472 481T442 445Q430 434 412 420T376 392Q358 377 355 368T352 348Q352 342 359 330T375 311Q380 307 390 299T413 282T436 264T455 250Q465 241 474 231T490 209T500 181T504 143Q504 121 495 102T471 65T436 33T395 7Q378 -2 359 -7T326 -12Q317 -12 306 -10T286 -4T270 6T264 23Q264 26 266 31T273 43T281 55T288 63Q292 67 298 68T309 68Q323 59 343 53T379 47Q402 47 415 64T428 103Q428 131 411 152T355 202Q339 213 324 224T296 248T275 277T267 315Q267 335 274 347T288 367Q294 372 307 383T350 419Q385 448 398 474T412 535Q412 552 405 570T385 602T352 626T307 635Q262 635 238 609T201 536Q189 489 188 435T187 329Q187 226 189 160T194 75Q195 64 201 55T226 38Q236 34 243 28T250 15Q250 7 242 2T225 -3Q220 -3 209 -3T185 -2T159 -1T136 0Q112 0 90 -1T56 -3Q45 -3 37 0T28 12Q28 21 37 27T57 37Q77 44 85 52T96 75Q97 81 97 98T98 138T98 183T98 225Q98 263 98 289T97 330Q97 339 93 343T86 347Q81 348 69 349T48 352Q36 355 36 368Q37 374 42 379T55 390T71 399T85 407Q92 411 94 414T97 423Q98 439 101 460T113 506T135 556T170 605Q182 618 198 632T235 657T279 675T332 682Z"  />
<glyph unicode="&#xE0;" horiz-adv-x="451" d="M235 419Q263 419 285 410T330 378Q337 371 343 360T354 336T361 312T364 293Q364 279 364 264T362 227T361 176T360 104Q360 79 370 68T395 56Q401 56 411 58T429 64Q431 66 434 60T437 49Q437 44 434 34T428 21Q415 5 397 -5T352 -15Q332 -15 311 -4T278 46Q278 47 274 49T268 51Q253 40 232 27T194 4Q167 -11 140 -11Q128 -11 112 -4T80 17T54 53T43 107Q43 125 48 137T58 156Q69 170 82 176T99 184Q171 201 210 212T268 232Q272 234 275 239T279 248V286Q279 294 279 299T276 311Q265 340 240 353T192 366Q177 366 164 361T149 352Q146 348 144 336T139 301Q138 293 135 288T129 280Q125 276 116 274T101 271Q93 271 77 272T54 277Q50 279 46 285T42 295Q42 309 63 330T116 373Q145 393 177 406T235 419ZM195 58Q211 58 231 66T266 90Q268 95 271 102T274 119L276 183Q276 186 273 187T268 189Q257 187 243 184T214 178T186 171T166 164Q146 156 138 147T130 118Q130 95 149 77T195 58ZM179 665Q183 665 191 659T205 642Q211 631 219 612T237 571T254 530T266 499Q269 490 266 478T252 465Q243 465 234 470T220 482Q198 508 176 535T136 588Q129 598 126 607T123 619Q123 627 129 635T144 650T162 661T179 665Z"  />
<glyph unicode="&#xE1;" horiz-adv-x="451" d="M235 419Q263 419 285 410T330 378Q337 371 343 360T354 336T361 312T364 293Q364 279 364 264T362 227T361 176T360 104Q360 79 370 68T395 56Q401 56 411 58T429 64Q431 66 434 60T437 49Q437 44 434 34T428 21Q415 5 397 -5T352 -15Q332 -15 311 -4T278 46Q278 47 274 49T268 51Q253 40 232 27T194 4Q167 -11 140 -11Q128 -11 112 -4T80 17T54 53T43 107Q43 125 48 137T58 156Q69 170 82 176T99 184Q171 201 210 212T268 232Q272 234 275 239T279 248V286Q279 294 279 299T276 311Q265 340 240 353T192 366Q177 366 164 361T149 352Q146 348 144 336T139 301Q138 293 135 288T129 280Q125 276 116 274T101 271Q93 271 77 272T54 277Q50 279 46 285T42 295Q42 309 63 330T116 373Q145 393 177 406T235 419ZM195 58Q211 58 231 66T266 90Q268 95 271 102T274 119L276 183Q276 186 273 187T268 189Q257 187 243 184T214 178T186 171T166 164Q146 156 138 147T130 118Q130 95 149 77T195 58ZM277 665Q285 665 294 661T312 651T325 637T331 622Q331 614 319 596T290 556T255 515T226 484Q219 477 210 472T193 466Q185 466 183 477T185 505Q188 514 195 529T210 562T228 598T246 634Q254 648 263 656T277 665Z"  />
<glyph unicode="&#xE2;" horiz-adv-x="451" d="M235 419Q263 419 285 410T330 378Q337 371 343 360T354 336T361 312T364 293Q364 279 364 264T362 227T361 176T360 104Q360 79 370 68T395 56Q401 56 411 58T429 64Q431 66 434 60T437 49Q437 44 434 34T428 21Q415 5 397 -5T352 -15Q332 -15 311 -4T278 46Q278 47 274 49T268 51Q253 40 232 27T194 4Q167 -11 140 -11Q128 -11 112 -4T80 17T54 53T43 107Q43 125 48 137T58 156Q69 170 82 176T99 184Q171 201 210 212T268 232Q272 234 275 239T279 248V286Q279 294 279 299T276 311Q265 340 240 353T192 366Q177 366 164 361T149 352Q146 348 144 336T139 301Q138 293 135 288T129 280Q125 276 116 274T101 271Q93 271 77 272T54 277Q50 279 46 285T42 295Q42 309 63 330T116 373Q145 393 177 406T235 419ZM195 58Q211 58 231 66T266 90Q268 95 271 102T274 119L276 183Q276 186 273 187T268 189Q257 187 243 184T214 178T186 171T166 164Q146 156 138 147T130 118Q130 95 149 77T195 58ZM220 665Q227 665 237 653T259 622Q275 591 291 563T324 500Q326 496 327 490T328 478T324 468T314 464Q306 464 297 472T283 485Q266 508 251 526T222 564Q221 566 218 566T213 564Q198 542 184 525T153 483Q148 478 140 472T124 466Q116 466 113 477T115 498Q122 513 131 531T149 567T167 601T183 629Q194 646 203 655T220 665Z"  />
<glyph unicode="&#xE3;" horiz-adv-x="451" d="M235 419Q263 419 285 410T330 378Q337 371 343 360T354 336T361 312T364 293Q364 279 364 264T362 227T361 176T360 104Q360 79 370 68T395 56Q401 56 411 58T429 64Q431 66 434 60T437 49Q437 44 434 34T428 21Q415 5 397 -5T352 -15Q332 -15 311 -4T278 46Q278 47 274 49T268 51Q253 40 232 27T194 4Q167 -11 140 -11Q128 -11 112 -4T80 17T54 53T43 107Q43 125 48 137T58 156Q69 170 82 176T99 184Q171 201 210 212T268 232Q272 234 275 239T279 248V286Q279 294 279 299T276 311Q265 340 240 353T192 366Q177 366 164 361T149 352Q146 348 144 336T139 301Q138 293 135 288T129 280Q125 276 116 274T101 271Q93 271 77 272T54 277Q50 279 46 285T42 295Q42 309 63 330T116 373Q145 393 177 406T235 419ZM195 58Q211 58 231 66T266 90Q268 95 271 102T274 119L276 183Q276 186 273 187T268 189Q257 187 243 184T214 178T186 171T166 164Q146 156 138 147T130 118Q130 95 149 77T195 58ZM156 525Q148 525 136 518T116 500Q108 492 105 490T99 488Q91 488 86 495T80 510Q80 511 86 520T104 542T131 569T164 595Q166 597 172 599T180 600Q191 597 217 592T268 586Q281 586 289 588T305 596Q315 604 326 614T344 631Q345 632 349 631T358 627T367 620T371 610Q371 605 357 591Q355 590 345 580T321 558T297 536T284 522Q281 518 274 516T265 513Q251 513 220 519T156 525Z"  />
<glyph unicode="&#xE4;" horiz-adv-x="451" d="M235 419Q263 419 285 410T330 378Q337 371 343 360T354 336T361 312T364 293Q364 279 364 264T362 227T361 176T360 104Q360 79 370 68T395 56Q401 56 411 58T429 64Q431 66 434 60T437 49Q437 44 434 34T428 21Q415 5 397 -5T352 -15Q332 -15 311 -4T278 46Q278 47 274 49T268 51Q253 40 232 27T194 4Q167 -11 140 -11Q128 -11 112 -4T80 17T54 53T43 107Q43 125 48 137T58 156Q69 170 82 176T99 184Q171 201 210 212T268 232Q272 234 275 239T279 248V286Q279 294 279 299T276 311Q265 340 240 353T192 366Q177 366 164 361T149 352Q146 348 144 336T139 301Q138 293 135 288T129 280Q125 276 116 274T101 271Q93 271 77 272T54 277Q50 279 46 285T42 295Q42 309 63 330T116 373Q145 393 177 406T235 419ZM195 58Q211 58 231 66T266 90Q268 95 271 102T274 119L276 183Q276 186 273 187T268 189Q257 187 243 184T214 178T186 171T166 164Q146 156 138 147T130 118Q130 95 149 77T195 58ZM130 612Q143 612 152 606T167 591T175 575T178 562Q178 547 173 537T159 520T143 511T128 508Q111 508 94 520T77 559Q77 582 92 597T130 612ZM300 612Q313 612 322 606T336 591T343 575T345 562Q345 547 340 537T326 520T310 511T295 508Q278 508 261 520T244 559Q244 582 259 597T300 612Z"  />
<glyph unicode="&#xE5;" horiz-adv-x="451" d="M235 419Q263 419 285 410T330 378Q337 371 343 360T354 336T361 312T364 293Q364 279 364 264T362 227T361 176T360 104Q360 79 370 68T395 56Q401 56 411 58T429 64Q431 66 434 60T437 49Q437 44 434 34T428 21Q415 5 397 -5T352 -15Q332 -15 311 -4T278 46Q278 47 274 49T268 51Q253 40 232 27T194 4Q167 -11 140 -11Q128 -11 112 -4T80 17T54 53T43 107Q43 125 48 137T58 156Q69 170 82 176T99 184Q171 201 210 212T268 232Q272 234 275 239T279 248V286Q279 294 279 299T276 311Q265 340 240 353T192 366Q177 366 164 361T149 352Q146 348 144 336T139 301Q138 293 135 288T129 280Q125 276 116 274T101 271Q93 271 77 272T54 277Q50 279 46 285T42 295Q42 309 63 330T116 373Q145 393 177 406T235 419ZM195 58Q211 58 231 66T266 90Q268 95 271 102T274 119L276 183Q276 186 273 187T268 189Q257 187 243 184T214 178T186 171T166 164Q146 156 138 147T130 118Q130 95 149 77T195 58ZM214 640Q235 640 252 633T281 612T299 583T306 549Q306 531 300 515T281 485T252 465T214 457Q193 457 176 464T147 485T129 514T122 549Q122 567 128 583T147 612T176 632T214 640ZM214 598Q194 598 181 585T167 548Q167 525 181 512T214 498Q234 498 247 511T261 550Q261 567 248 582T214 598Z"  />
<glyph unicode="&#xE6;" horiz-adv-x="640" d="M472 419Q506 419 531 408T572 378T595 338T603 295Q603 290 598 281T583 268Q577 267 551 260T490 244T422 226T366 210Q363 209 361 205T359 197Q359 150 363 131T377 99Q408 62 470 62Q491 62 509 67T541 80T567 94T585 105Q590 108 596 105T602 94Q602 91 600 82T594 67Q583 51 565 37T525 12T476 -5T423 -12Q381 -12 351 3T296 51Q294 53 290 53T280 50Q242 26 211 7T151 -12Q134 -12 115 -5T80 18T54 54T43 104Q43 127 54 149T96 183Q133 196 176 208T248 228Q262 232 269 240T276 250Q276 269 276 283T274 306Q272 320 270 327T262 340Q252 352 236 360T202 368Q173 368 160 357T145 340Q144 332 144 321T142 299Q141 294 140 290T136 283Q133 281 116 273T80 265Q63 265 51 272Q48 274 47 278T45 285Q45 302 56 317T76 340Q107 369 137 384T185 407Q199 412 215 415T242 419Q259 419 274 414T302 402T324 386T337 373Q339 371 342 371T348 372Q374 392 408 405T472 419ZM441 370Q421 370 403 362T372 337Q368 333 366 325T362 308V255Q362 253 364 250T369 248Q383 252 400 257T434 267T465 276T486 284Q516 296 514 311Q513 320 509 330T497 349T475 364T441 370ZM195 58Q217 58 237 67T268 90Q270 93 271 103T274 121Q274 127 274 137T274 157T274 174T273 184Q273 188 269 191T261 193Q248 191 220 183T168 165Q148 158 140 147T131 119Q131 90 151 74T195 58Z"  />
<glyph unicode="&#xE7;" horiz-adv-x="423" d="M269 419Q320 419 345 408T376 389Q378 386 382 377T386 363Q386 340 375 325T352 309Q347 309 338 315T317 332Q278 371 223 371Q203 371 187 363T158 340Q125 302 125 225Q125 185 138 155T172 105T219 74T272 64Q300 64 323 73T372 105Q376 109 382 106T389 95Q389 87 387 77T376 55Q342 10 283 -4L245 -51Q240 -59 250 -63Q273 -73 290 -89T307 -133Q307 -162 289 -183T253 -217Q211 -246 178 -246Q172 -246 163 -242T149 -229Q144 -221 144 -211T150 -194Q162 -182 173 -186Q180 -188 190 -192T209 -197Q229 -197 237 -187T245 -163Q245 -143 229 -131T193 -118H177Q173 -118 167 -113T160 -103Q160 -101 161 -98T169 -87L237 -12H227Q150 -12 92 40Q82 49 72 63T54 97T40 140T34 188Q34 257 64 304T137 379Q175 402 207 410T269 419Z"  />
<glyph unicode="&#xE8;" horiz-adv-x="434" d="M255 419Q293 419 325 403T377 357Q387 342 391 324T395 286Q395 282 392 277T385 267T376 259T367 255Q365 255 350 255T313 255T265 254T216 253T176 252T154 252Q152 252 146 249T138 242Q136 237 135 228T134 213Q134 180 145 152T177 104T224 72T284 60Q298 60 313 64T341 73T366 85T384 97Q388 99 392 96T397 84Q397 67 383 50Q354 20 316 4T238 -12Q191 -12 154 3T92 46T53 112T40 196Q40 259 66 307T138 385Q163 401 193 410T255 419ZM228 381Q218 381 205 375T180 359T159 334T145 301Q144 298 146 295T151 290Q159 289 179 289T222 288Q235 288 249 289T275 293T294 304T302 324Q302 345 285 363T228 381ZM193 658Q197 658 205 652T219 635Q225 624 234 605T252 564T268 523T280 492Q283 483 280 471T267 458Q257 458 249 463T235 475Q212 501 190 528T150 581Q143 591 140 600T137 612Q137 620 143 628T158 643T176 654T193 658Z"  />
<glyph unicode="&#xE9;" horiz-adv-x="434" d="M255 419Q293 419 325 403T377 357Q387 342 391 324T395 286Q395 282 392 277T385 267T376 259T367 255Q365 255 350 255T313 255T265 254T216 253T176 252T154 252Q152 252 146 249T138 242Q136 237 135 228T134 213Q134 180 145 152T177 104T224 72T284 60Q298 60 313 64T341 73T366 85T384 97Q388 99 392 96T397 84Q397 67 383 50Q354 20 316 4T238 -12Q191 -12 154 3T92 46T53 112T40 196Q40 259 66 307T138 385Q163 401 193 410T255 419ZM228 381Q218 381 205 375T180 359T159 334T145 301Q144 298 146 295T151 290Q159 289 179 289T222 288Q235 288 249 289T275 293T294 304T302 324Q302 345 285 363T228 381ZM293 651Q301 651 310 647T328 637T341 623T347 608Q347 600 335 582T306 542T271 501T242 470Q235 463 226 458T209 452Q201 452 199 463T201 491Q204 500 211 515T226 548T244 584T262 620Q270 634 279 642T293 651Z"  />
<glyph unicode="&#xEA;" horiz-adv-x="434" d="M255 419Q293 419 325 403T377 357Q387 342 391 324T395 286Q395 282 392 277T385 267T376 259T367 255Q365 255 350 255T313 255T265 254T216 253T176 252T154 252Q152 252 146 249T138 242Q136 237 135 228T134 213Q134 180 145 152T177 104T224 72T284 60Q298 60 313 64T341 73T366 85T384 97Q388 99 392 96T397 84Q397 67 383 50Q354 20 316 4T238 -12Q191 -12 154 3T92 46T53 112T40 196Q40 259 66 307T138 385Q163 401 193 410T255 419ZM228 381Q218 381 205 375T180 359T159 334T145 301Q144 298 146 295T151 290Q159 289 179 289T222 288Q235 288 249 289T275 293T294 304T302 324Q302 345 285 363T228 381ZM235 653Q241 653 251 642T273 610Q289 579 305 552T338 488Q340 484 341 478T342 466T338 456T328 452Q320 452 311 460T297 474Q280 496 266 514T237 552Q233 558 227 552Q212 530 198 513T167 472Q163 467 155 461T138 454Q130 454 127 465T129 487Q136 502 145 520T163 555T182 589T198 617Q208 634 217 643T235 653Z"  />
<glyph unicode="&#xEB;" horiz-adv-x="434" d="M255 419Q293 419 325 403T377 357Q387 342 391 324T395 286Q395 282 392 277T385 267T376 259T367 255Q365 255 350 255T313 255T265 254T216 253T176 252T154 252Q152 252 146 249T138 242Q136 237 135 228T134 213Q134 180 145 152T177 104T224 72T284 60Q298 60 313 64T341 73T366 85T384 97Q388 99 392 96T397 84Q397 67 383 50Q354 20 316 4T238 -12Q191 -12 154 3T92 46T53 112T40 196Q40 259 66 307T138 385Q163 401 193 410T255 419ZM228 381Q218 381 205 375T180 359T159 334T145 301Q144 298 146 295T151 290Q159 289 179 289T222 288Q235 288 249 289T275 293T294 304T302 324Q302 345 285 363T228 381ZM157 610Q170 610 179 604T194 589T202 573T205 560Q205 545 200 535T186 518T170 509T155 506Q138 506 121 518T104 557Q104 580 119 595T157 610ZM327 610Q340 610 349 604T363 589T370 573T372 560Q372 545 367 535T353 518T337 509T322 506Q305 506 288 518T271 557Q271 580 286 595T327 610Z"  />
<glyph unicode="&#xEC;" horiz-adv-x="270" d="M45 372Q45 376 49 379T58 385Q96 399 128 409T173 420Q176 420 180 413T184 401V220Q184 171 184 142T185 96T186 74T187 64Q189 57 195 50T227 35Q238 31 245 25T252 10Q252 3 243 0T222 -3Q206 -3 180 -2T136 0Q98 0 79 -1T48 -3Q17 -3 17 13Q17 20 24 25T42 33Q58 37 67 41T81 52T87 68T91 93Q92 101 92 117T94 153T95 197T96 241Q96 248 96 259T96 282T95 303T94 314Q94 319 86 328T57 351Q52 354 49 361T45 372ZM89 666Q93 666 101 661T115 644Q121 633 130 613T148 572T164 532T176 501Q179 491 176 479T163 467Q153 467 145 472T131 484Q108 510 86 537T46 589Q39 599 36 608T33 621Q33 629 39 637T54 651T72 662T89 666Z"  />
<glyph unicode="&#xED;" horiz-adv-x="270" d="M45 372Q45 376 49 379T58 385Q96 399 128 409T173 420Q176 420 180 413T184 401V220Q184 171 184 142T185 96T186 74T187 64Q189 57 195 50T227 35Q238 31 245 25T252 10Q252 3 243 0T222 -3Q206 -3 180 -2T136 0Q98 0 79 -1T48 -3Q17 -3 17 13Q17 20 24 25T42 33Q58 37 67 41T81 52T87 68T91 93Q92 101 92 117T94 153T95 197T96 241Q96 248 96 259T96 282T95 303T94 314Q94 319 86 328T57 351Q52 354 49 361T45 372ZM193 654Q201 654 210 650T228 640T241 626T247 611Q247 603 235 585T206 545T171 504T142 473Q135 466 126 461T109 455Q101 455 99 466T101 494Q104 503 111 518T126 551T144 587T162 623Q170 637 179 645T193 654Z"  />
<glyph unicode="&#xEE;" horiz-adv-x="270" d="M45 372Q45 376 49 379T58 385Q96 399 128 409T173 420Q176 420 180 413T184 401V220Q184 171 184 142T185 96T186 74T187 64Q189 57 195 50T227 35Q238 31 245 25T252 10Q252 3 243 0T222 -3Q206 -3 180 -2T136 0Q98 0 79 -1T48 -3Q17 -3 17 13Q17 20 24 25T42 33Q58 37 67 41T81 52T87 68T91 93Q92 101 92 117T94 153T95 197T96 241Q96 248 96 259T96 282T95 303T94 314Q94 319 86 328T57 351Q52 354 49 361T45 372ZM132 661Q139 661 149 650T171 618Q187 587 203 559T236 496Q238 492 239 486T240 474T236 464T226 460Q218 460 209 468T195 482Q178 504 163 522T134 560Q130 566 125 560Q110 538 96 521T65 480Q60 475 52 469T36 462Q28 462 25 473T27 494Q34 509 43 527T61 563T79 597T95 625Q106 642 115 651T132 661Z"  />
<glyph unicode="&#xEF;" horiz-adv-x="270" d="M45 372Q45 376 49 379T58 385Q96 399 128 409T173 420Q176 420 180 413T184 401V220Q184 171 184 142T185 96T186 74T187 64Q189 57 195 50T227 35Q238 31 245 25T252 10Q252 3 243 0T222 -3Q206 -3 180 -2T136 0Q98 0 79 -1T48 -3Q17 -3 17 13Q17 20 24 25T42 33Q58 37 67 41T81 52T87 68T91 93Q92 101 92 117T94 153T95 197T96 241Q96 248 96 259T96 282T95 303T94 314Q94 319 86 328T57 351Q52 354 49 361T45 372ZM53 616Q66 616 75 610T90 595T98 579T101 566Q101 551 96 541T82 524T66 515T51 512Q34 512 17 524T0 563Q0 586 15 601T53 616ZM223 616Q236 616 245 610T259 595T266 579T268 566Q268 551 263 541T249 524T233 515T218 512Q201 512 184 524T167 563Q167 586 182 601T223 616Z"  />
<glyph unicode="&#xF0;" horiz-adv-x="508" d="M256 379Q233 379 213 368T174 332Q161 314 153 284T145 200Q145 172 152 142T173 86T210 44T263 27Q286 27 306 41T343 86Q358 114 364 147T370 215Q370 248 368 269T362 304T354 323T347 334Q330 354 306 366T256 379ZM273 419Q286 419 307 416T344 405Q348 404 349 407T350 414Q344 438 331 465T292 525Q290 527 287 529T279 529L170 478Q163 474 157 478Q152 481 149 488T145 500Q145 504 147 507T152 512L253 560Q258 563 252 568Q218 597 179 613T108 637Q97 639 91 645T85 656Q85 667 95 671T117 676Q163 675 216 656T316 599Q321 596 327 598L419 645Q422 647 427 645T434 641Q439 635 442 628T446 618Q446 610 432 602L362 566Q359 564 359 562T361 558Q414 497 441 421T469 260Q469 209 460 171T437 105T405 58T369 27Q310 -12 245 -12Q201 -12 163 4T97 48T53 113T37 194Q37 232 45 261T72 317Q101 362 155 390T273 419Z"  />
<glyph unicode="&#xF1;" horiz-adv-x="533" d="M45 363Q45 368 50 376T64 389Q78 395 98 402T134 417Q143 422 151 424T162 427Q164 427 171 424T178 415Q178 411 178 395T176 371Q176 367 179 367T184 368Q207 384 242 401T325 419Q344 419 359 414T385 402T404 387T417 371Q429 354 438 322T448 237Q449 200 449 162T451 90Q452 67 457 58T478 42Q494 35 500 28T507 14Q507 5 497 1T477 -3Q467 -3 445 -2T399 0Q377 0 360 -1T334 -3Q323 -3 315 0T306 14Q306 19 310 24T327 34Q346 42 352 50T359 78Q360 115 360 148T360 214Q360 242 359 261T355 294T349 316T342 329Q334 339 319 347T274 356Q248 356 228 350T193 335Q191 334 186 327T180 310V81Q180 69 184 59T217 38Q232 33 237 27T243 14Q243 7 236 2T215 -3Q190 -3 168 -2T127 0Q104 0 80 -1T44 -3Q14 -3 14 12Q14 20 21 26T36 34Q70 45 78 55T87 84Q93 153 93 304Q93 316 86 325T59 347Q50 354 48 357T45 363ZM201 525Q192 525 181 517T161 500Q153 492 150 490T144 488Q136 488 130 495T124 510Q124 511 131 520T149 542T176 569T208 594Q210 596 216 598T225 600Q236 597 261 592T313 586Q326 586 334 588T350 596Q359 603 370 613T388 630Q389 632 393 631T403 627T411 620T415 610Q415 604 402 591Q400 590 390 580T366 558T342 536T329 522Q326 518 319 515T310 512Q295 512 264 518T201 525Z"  />
<glyph unicode="&#xF2;" horiz-adv-x="512" d="M259 419Q311 419 351 400T419 350T460 282T475 210Q475 151 455 111T409 48Q382 23 345 6T256 -12Q210 -12 169 5T96 53Q64 85 51 126T37 202Q37 256 60 299T116 368Q142 389 181 404T259 419ZM244 376Q228 376 209 368T180 348Q176 343 169 332T156 305T145 266T140 217Q140 170 155 125T199 56Q206 51 225 41T270 31Q287 31 307 40T342 68Q356 87 362 121T369 200Q369 233 361 264T337 321T298 361T244 376ZM209 656Q213 656 221 651T235 634Q241 623 250 603T268 562T284 521T296 490Q299 481 296 469T283 456Q273 456 265 462T251 474Q228 500 206 527T166 579Q159 589 156 598T153 611Q153 618 159 626T174 641T192 652T209 656Z"  />
<glyph unicode="&#xF3;" horiz-adv-x="512" d="M259 419Q311 419 351 400T419 350T460 282T475 210Q475 151 455 111T409 48Q382 23 345 6T256 -12Q210 -12 169 5T96 53Q64 85 51 126T37 202Q37 256 60 299T116 368Q142 389 181 404T259 419ZM244 376Q228 376 209 368T180 348Q176 343 169 332T156 305T145 266T140 217Q140 170 155 125T199 56Q206 51 225 41T270 31Q287 31 307 40T342 68Q356 87 362 121T369 200Q369 233 361 264T337 321T298 361T244 376ZM300 652Q308 652 317 648T335 638T348 624T354 609Q354 601 342 583T313 543T278 502T249 471Q242 464 233 459T216 453Q208 453 206 464T208 492Q211 501 218 516T233 549T251 585T269 621Q277 635 286 643T300 652Z"  />
<glyph unicode="&#xF4;" horiz-adv-x="512" d="M259 419Q311 419 351 400T419 350T460 282T475 210Q475 151 455 111T409 48Q382 23 345 6T256 -12Q210 -12 169 5T96 53Q64 85 51 126T37 202Q37 256 60 299T116 368Q142 389 181 404T259 419ZM244 376Q228 376 209 368T180 348Q176 343 169 332T156 305T145 266T140 217Q140 170 155 125T199 56Q206 51 225 41T270 31Q287 31 307 40T342 68Q356 87 362 121T369 200Q369 233 361 264T337 321T298 361T244 376ZM256 651Q263 651 273 640T295 608Q311 578 327 550T360 486Q362 482 363 476T364 465T360 455T350 451Q342 451 333 459T319 472Q302 495 287 513T258 551Q253 555 249 551Q234 529 220 511T189 470Q184 465 176 459T160 453Q152 453 149 463T151 485Q158 500 167 518T185 553T203 587T219 615Q230 632 239 641T256 651Z"  />
<glyph unicode="&#xF5;" horiz-adv-x="512" d="M259 419Q311 419 351 400T419 350T460 282T475 210Q475 151 455 111T409 48Q382 23 345 6T256 -12Q210 -12 169 5T96 53Q64 85 51 126T37 202Q37 256 60 299T116 368Q142 389 181 404T259 419ZM244 376Q228 376 209 368T180 348Q176 343 169 332T156 305T145 266T140 217Q140 170 155 125T199 56Q206 51 225 41T270 31Q287 31 307 40T342 68Q356 87 362 121T369 200Q369 233 361 264T337 321T298 361T244 376ZM192 519Q183 519 172 511T152 494Q144 486 141 484T135 482Q127 482 121 489T115 504Q115 505 122 514T140 536T167 563T199 588Q201 590 207 592T216 594Q227 591 252 586T304 580Q317 580 325 582T341 590Q350 597 361 607T379 624Q380 626 384 625T394 621T402 614T406 604Q406 598 393 585Q391 584 381 574T357 552T333 530T320 516Q317 512 310 509T301 506Q286 506 255 512T192 519Z"  />
<glyph unicode="&#xF6;" horiz-adv-x="512" d="M259 419Q311 419 351 400T419 350T460 282T475 210Q475 151 455 111T409 48Q382 23 345 6T256 -12Q210 -12 169 5T96 53Q64 85 51 126T37 202Q37 256 60 299T116 368Q142 389 181 404T259 419ZM244 376Q228 376 209 368T180 348Q176 343 169 332T156 305T145 266T140 217Q140 170 155 125T199 56Q206 51 225 41T270 31Q287 31 307 40T342 68Q356 87 362 121T369 200Q369 233 361 264T337 321T298 361T244 376ZM179 616Q192 616 201 610T216 595T224 579T227 566Q227 551 222 541T208 524T192 515T177 512Q160 512 143 524T126 563Q126 586 141 601T179 616ZM349 616Q362 616 371 610T385 595T392 579T394 566Q394 551 389 541T375 524T359 515T344 512Q327 512 310 524T293 563Q293 586 308 601T349 616Z"  />
<glyph unicode="&#xF7;" horiz-adv-x="646" d="M322 346Q299 346 282 362T265 403Q265 427 282 445T322 463Q348 463 365 445T382 403Q382 379 365 363T322 346ZM61 198Q58 198 55 204T52 218Q52 224 53 232T57 247T61 259T67 264L583 265Q587 265 590 261T594 249Q594 229 590 216T580 202L61 198ZM322 -3Q296 -3 280 15T263 59Q263 81 279 98T322 115Q347 115 363 98T380 59Q380 33 364 15T322 -3Z"  />
<glyph unicode="&#xF8;" horiz-adv-x="516" d="M267 419Q293 419 318 412T365 393Q366 393 370 393T375 394L397 421Q405 431 412 431Q417 431 424 426T435 416Q436 414 436 411T434 405L408 371Q407 369 407 367T410 362Q441 333 460 292T480 202Q480 172 472 146T452 99T426 62T398 36Q335 -12 257 -12Q228 -12 199 -4T144 17Q139 19 135 15L107 -18Q105 -20 102 -23T94 -26Q89 -26 81 -20T71 -9Q70 -7 71 -3T74 3L103 40Q105 42 101 49Q70 78 54 118T37 200Q37 257 60 297T113 363Q139 385 178 402T267 419ZM186 68Q205 48 226 39T270 30Q288 30 307 37T343 61Q360 79 371 112T382 194Q382 215 377 241T358 294Q358 296 356 297T351 294L184 79Q182 77 183 74T186 68ZM245 378Q228 378 211 371T178 349Q158 329 147 295T135 222Q135 196 141 166T156 117Q157 115 159 115T163 117L330 330Q332 333 331 336T328 341Q311 358 292 368T245 378Z"  />
<glyph unicode="&#xF9;" horiz-adv-x="520" d="M248 56Q269 56 289 63T317 76Q320 78 330 89T343 123Q344 135 345 161T346 218T347 277T347 324Q347 332 342 342T332 355Q324 358 315 361T298 368Q275 376 275 389Q275 394 282 400T301 407Q332 407 363 408T426 410Q429 410 433 402T437 386Q437 375 437 352T437 299T437 237T437 174T437 121T438 86Q439 59 445 53T454 47Q457 47 463 48T478 50T493 52T505 53Q507 54 510 47T514 36Q514 22 508 16T496 8Q477 6 451 2T410 -6Q396 -9 385 -11T365 -14Q361 -14 357 -8T353 4Q352 9 352 23T350 48Q350 50 347 52T341 53Q306 27 269 8T185 -12Q161 -12 139 -1T104 23Q96 31 89 47T82 80V321Q82 330 74 342T45 365Q37 370 30 375T23 389Q23 394 27 397T36 403T47 406T54 407Q62 407 79 408T113 409T144 411T161 412Q171 412 171 379Q171 363 171 334T171 270T171 202T172 143Q173 104 179 90T196 68Q207 60 222 58T248 56ZM196 655Q200 655 208 650T222 633Q228 622 237 602T255 561T271 521T283 490Q286 480 283 468T269 456Q260 456 251 461T237 473Q215 499 193 526T153 578Q146 588 143 597T140 610Q140 618 146 626T161 640T179 651T196 655Z"  />
<glyph unicode="&#xFA;" horiz-adv-x="520" d="M248 56Q269 56 289 63T317 76Q320 78 330 89T343 123Q344 135 345 161T346 218T347 277T347 324Q347 332 342 342T332 355Q324 358 315 361T298 368Q275 376 275 389Q275 394 282 400T301 407Q332 407 363 408T426 410Q429 410 433 402T437 386Q437 375 437 352T437 299T437 237T437 174T437 121T438 86Q439 59 445 53T454 47Q457 47 463 48T478 50T493 52T505 53Q507 54 510 47T514 36Q514 22 508 16T496 8Q477 6 451 2T410 -6Q396 -9 385 -11T365 -14Q361 -14 357 -8T353 4Q352 9 352 23T350 48Q350 50 347 52T341 53Q306 27 269 8T185 -12Q161 -12 139 -1T104 23Q96 31 89 47T82 80V321Q82 330 74 342T45 365Q37 370 30 375T23 389Q23 394 27 397T36 403T47 406T54 407Q62 407 79 408T113 409T144 411T161 412Q171 412 171 379Q171 363 171 334T171 270T171 202T172 143Q173 104 179 90T196 68Q207 60 222 58T248 56ZM305 660Q313 660 322 656T340 646T353 632T359 617Q359 609 347 591T318 551T283 510T254 479Q247 472 238 467T221 461Q213 461 211 472T213 500Q216 509 223 524T238 557T256 593T274 629Q282 643 291 651T305 660Z"  />
<glyph unicode="&#xFB;" horiz-adv-x="520" d="M248 56Q269 56 289 63T317 76Q320 78 330 89T343 123Q344 135 345 161T346 218T347 277T347 324Q347 332 342 342T332 355Q324 358 315 361T298 368Q275 376 275 389Q275 394 282 400T301 407Q332 407 363 408T426 410Q429 410 433 402T437 386Q437 375 437 352T437 299T437 237T437 174T437 121T438 86Q439 59 445 53T454 47Q457 47 463 48T478 50T493 52T505 53Q507 54 510 47T514 36Q514 22 508 16T496 8Q477 6 451 2T410 -6Q396 -9 385 -11T365 -14Q361 -14 357 -8T353 4Q352 9 352 23T350 48Q350 50 347 52T341 53Q306 27 269 8T185 -12Q161 -12 139 -1T104 23Q96 31 89 47T82 80V321Q82 330 74 342T45 365Q37 370 30 375T23 389Q23 394 27 397T36 403T47 406T54 407Q62 407 79 408T113 409T144 411T161 412Q171 412 171 379Q171 363 171 334T171 270T171 202T172 143Q173 104 179 90T196 68Q207 60 222 58T248 56ZM254 665Q260 665 270 654T292 622Q308 591 324 563T357 500Q359 496 360 490T361 478T357 468T347 464Q339 464 330 472T316 486Q299 508 284 526T255 564Q254 566 251 566T246 564Q231 542 217 525T186 484Q182 479 174 473T157 466Q149 466 146 477T148 499Q155 514 164 532T182 567T200 601T216 629Q227 646 236 655T254 665Z"  />
<glyph unicode="&#xFC;" horiz-adv-x="520" d="M248 56Q269 56 289 63T317 76Q320 78 330 89T343 123Q344 135 345 161T346 218T347 277T347 324Q347 332 342 342T332 355Q324 358 315 361T298 368Q275 376 275 389Q275 394 282 400T301 407Q332 407 363 408T426 410Q429 410 433 402T437 386Q437 375 437 352T437 299T437 237T437 174T437 121T438 86Q439 59 445 53T454 47Q457 47 463 48T478 50T493 52T505 53Q507 54 510 47T514 36Q514 22 508 16T496 8Q477 6 451 2T410 -6Q396 -9 385 -11T365 -14Q361 -14 357 -8T353 4Q352 9 352 23T350 48Q350 50 347 52T341 53Q306 27 269 8T185 -12Q161 -12 139 -1T104 23Q96 31 89 47T82 80V321Q82 330 74 342T45 365Q37 370 30 375T23 389Q23 394 27 397T36 403T47 406T54 407Q62 407 79 408T113 409T144 411T161 412Q171 412 171 379Q171 363 171 334T171 270T171 202T172 143Q173 104 179 90T196 68Q207 60 222 58T248 56ZM171 616Q184 616 193 610T208 595T216 579T219 566Q219 551 214 541T200 524T184 515T169 512Q152 512 135 524T118 563Q118 586 133 601T171 616ZM341 616Q354 616 363 610T377 595T384 579T386 566Q386 551 381 541T367 524T351 515T336 512Q319 512 302 524T285 563Q285 586 300 601T341 616Z"  />
<glyph unicode="&#xFD;" horiz-adv-x="453" d="M-8 396Q-8 401 -2 406T16 411Q20 411 35 411T69 409T103 408T128 407Q146 407 157 407T176 408Q201 408 201 392Q201 387 197 382T178 372Q163 367 162 361T165 339Q169 327 179 301T201 243T226 181T249 130Q251 126 255 127T260 130Q270 156 281 185T303 241T322 292T337 333Q342 347 337 355T311 371Q300 374 293 380T285 392Q285 400 292 404T311 409Q327 409 339 408T362 407Q369 407 379 407T401 409T422 410T440 411Q448 411 455 407T463 394Q463 381 438 372Q418 365 406 352T380 313Q370 292 355 256T323 180T292 104T269 47Q257 16 241 -23T211 -99T185 -165T169 -207Q168 -209 164 -214T152 -224T136 -232T118 -236Q93 -236 78 -220T62 -178Q62 -158 77 -141T117 -124H144Q149 -124 154 -117T163 -102Q164 -98 169 -88T179 -64T189 -36T198 -12Q200 -7 200 2T198 17Q193 31 187 45T174 77Q164 105 150 141T121 213T93 280T70 328Q59 349 45 358T18 373Q-8 382 -8 396ZM305 652Q313 652 322 648T340 638T353 624T359 609Q359 601 347 583T318 543T283 502T254 471Q247 464 238 459T221 453Q213 453 211 464T213 492Q216 501 223 516T238 549T256 585T274 621Q282 635 291 643T305 652Z"  />
<glyph unicode="&#xFE;" horiz-adv-x="507" d="M290 418Q329 418 362 402T419 359T457 298T471 226Q471 150 432 96T320 10Q310 5 296 2T267 -5T241 -9T225 -11Q182 -11 172 -8Q168 -8 165 -13T162 -24Q162 -55 162 -86T163 -143Q164 -157 168 -165T180 -179T198 -186T219 -190Q237 -193 242 -199T248 -211Q248 -219 241 -225T220 -231Q214 -231 186 -232T122 -235Q107 -236 92 -237T62 -239T36 -241T18 -242Q10 -242 -1 -238T-12 -222Q-12 -209 15 -201Q32 -196 42 -190T57 -177T63 -160T66 -137Q67 -116 68 -78T71 2T72 84T73 147Q73 253 73 330T73 457T73 534T72 565Q71 578 47 594Q25 607 25 618Q25 623 32 629T50 639Q55 641 65 644T87 652T111 660T131 668Q139 671 144 673T153 676Q156 676 162 671T168 656Q167 633 166 597T164 522T163 446T162 385Q162 377 170 381Q198 395 228 406T290 418ZM246 358Q232 358 214 357T174 341Q164 336 163 321Q162 309 162 290T162 250T162 209T162 173Q162 129 164 111T171 86Q187 66 211 52T256 38Q281 38 298 46T329 67Q346 85 359 115T372 195Q372 224 365 253T343 305T303 343T246 358Z"  />
<glyph unicode="&#xFF;" horiz-adv-x="453" d="M-8 396Q-8 401 -2 406T16 411Q20 411 35 411T69 409T103 408T128 407Q146 407 157 407T176 408Q201 408 201 392Q201 387 197 382T178 372Q163 367 162 361T165 339Q169 327 179 301T201 243T226 181T249 130Q251 126 255 127T260 130Q270 156 281 185T303 241T322 292T337 333Q342 347 337 355T311 371Q300 374 293 380T285 392Q285 400 292 404T311 409Q327 409 339 408T362 407Q369 407 379 407T401 409T422 410T440 411Q448 411 455 407T463 394Q463 381 438 372Q418 365 406 352T380 313Q370 292 355 256T323 180T292 104T269 47Q257 16 241 -23T211 -99T185 -165T169 -207Q168 -209 164 -214T152 -224T136 -232T118 -236Q93 -236 78 -220T62 -178Q62 -158 77 -141T117 -124H144Q149 -124 154 -117T163 -102Q164 -98 169 -88T179 -64T189 -36T198 -12Q200 -7 200 2T198 17Q193 31 187 45T174 77Q164 105 150 141T121 213T93 280T70 328Q59 349 45 358T18 373Q-8 382 -8 396ZM160 616Q173 616 182 610T197 595T205 579T208 566Q208 551 203 541T189 524T172 515T157 512Q140 512 124 524T107 563Q107 586 122 601T160 616ZM329 616Q342 616 351 610T365 595T373 579T375 566Q375 551 370 541T356 524T339 515T324 512Q307 512 291 524T274 563Q274 586 289 601T329 616Z"  />
<glyph unicode="&#x152;" horiz-adv-x="1053" d="M373 583Q342 583 311 572T257 541Q219 506 195 454T171 317Q171 263 187 212T235 121T310 57T410 32Q423 32 438 34T470 41T500 52T526 66Q564 94 590 150T616 297Q616 367 598 422T535 523Q510 548 469 565T373 583ZM822 609Q834 609 852 609T890 611T924 612T946 613Q949 613 954 608T960 599Q960 597 962 584T966 553T970 520T971 499Q971 488 965 482T951 475Q945 475 939 482T928 500Q911 535 902 547T880 562Q869 564 834 563T725 562Q721 562 719 556T716 547Q715 538 714 515T713 464T712 405T711 351Q711 347 715 340T724 333H791Q816 333 831 335T856 342T870 357T880 382Q885 392 891 398T902 405Q909 405 914 397T920 379Q920 367 919 349T917 317Q917 300 918 277T920 238Q919 213 902 213Q886 213 878 237Q873 252 869 260T859 272T843 279T817 282Q800 283 781 283T724 283Q719 283 715 275T711 259L714 97Q714 86 718 73T729 55Q732 52 761 47T841 42Q879 42 900 45T934 56T958 79T984 114Q998 133 1003 140T1017 148Q1026 148 1029 141T1032 119Q1032 110 1027 93T1016 58T1003 26T994 9Q989 1 978 -2T961 -5Q958 -5 943 -5T906 -4T858 -3T807 -2T759 -1T724 0Q701 0 673 -1T624 -2Q619 -2 614 2T609 19L612 74Q612 84 604 76Q560 29 501 6T375 -18Q306 -18 247 6T145 73T78 174T53 298Q53 344 63 382T89 452T128 507T173 552Q213 586 271 606T386 627Q452 627 511 601T612 529Q614 527 616 528T618 531Q618 548 617 562T616 587Q616 594 620 603T631 612Q651 612 678 611T726 609H822Z"  />
<glyph unicode="&#x153;" horiz-adv-x="742" d="M259 419Q310 419 346 400T406 356Q408 354 412 354T419 358Q441 380 478 399T556 419Q598 419 626 406T672 372T697 329T705 286Q705 270 694 258T672 246Q623 246 570 247T468 249Q464 249 460 246T454 240Q449 228 449 206Q449 176 456 150T480 103T520 72T579 60Q607 60 635 71T683 94Q686 96 691 92T697 82Q697 68 685 53Q659 24 620 6T538 -12Q485 -12 453 6T401 47Q397 53 390 48Q359 23 324 6T250 -12Q205 -12 166 4T99 50T54 117T37 199Q37 244 54 288T112 364Q140 387 178 403T259 419ZM245 377Q222 377 207 369T177 344Q163 327 152 292T140 218Q140 183 147 150T170 91T209 49T262 33Q279 33 296 38T327 58Q344 74 354 104T364 180Q364 209 359 243T339 307T302 357T245 377ZM538 380Q527 380 514 375T490 359T470 334T461 301Q461 299 463 296T471 290Q475 289 488 288T517 286T549 285T577 284Q617 284 617 307Q617 315 615 327T604 351T580 371T538 380Z"  />
<glyph unicode="&#x160;" horiz-adv-x="483" d="M276 627Q312 627 344 619T404 603Q409 602 412 593T416 575Q416 570 417 560T418 539T420 518T421 501Q421 465 399 465Q392 465 388 474T381 489Q350 587 257 587Q236 587 219 579T188 558T168 527T161 492Q161 470 166 453T184 421T218 390T271 356Q309 335 340 314T393 270T427 219T439 155Q439 130 431 109T412 70T386 41T360 20Q346 11 329 4T293 -8T256 -15T221 -18Q201 -18 179 -15T136 -8T99 3T73 16Q69 19 65 23T57 36Q48 56 45 83T41 128Q41 145 46 154T59 163Q70 163 75 155T86 136Q114 74 157 49T240 24Q255 24 272 30T304 48T328 78T338 123Q338 140 333 155T313 187T274 223T208 266Q182 281 157 299T113 341T81 393T69 458Q69 508 94 541T150 595Q174 609 206 618T276 627ZM254 663Q246 663 233 670T205 691Q192 702 166 724T107 775Q89 791 91 803T111 816Q119 816 130 812T149 805Q175 791 201 778T249 751Q255 749 261 749T269 751Q286 762 313 777T364 804Q371 808 380 811T401 814Q420 814 418 800T396 769Q389 764 378 754T354 733T326 709T299 688Q287 677 276 670T254 663Z"  />
<glyph unicode="&#x161;" horiz-adv-x="363" d="M195 419Q215 419 231 417T259 411Q267 409 276 407T292 402Q297 400 302 392T309 381Q310 378 310 371T311 356T311 339T311 325Q311 319 306 308T290 297Q287 297 280 303T265 323Q248 353 227 367T189 381Q180 381 171 377T153 366T140 349T134 325Q134 308 141 296T160 275T190 257T229 237Q250 226 267 215T298 189T318 157T326 118Q326 96 320 79T302 47T277 23T249 7Q226 -4 203 -8T161 -12Q114 -12 90 -4T57 13Q53 17 50 26T43 47T38 70T36 88Q36 108 41 114T55 120Q60 120 66 114T82 93Q105 59 129 44T175 29Q207 29 223 47T240 87Q240 101 232 115T204 142Q184 154 167 163T127 185Q114 192 101 202T78 225T61 256T54 296Q54 334 71 356T107 392Q116 398 127 402T151 411T175 417T195 419ZM189 458Q172 458 150 498Q134 528 119 557T86 623Q84 627 83 633T81 645T85 655T97 659Q105 659 114 651T126 637Q143 615 155 599T182 563Q190 550 198 563Q213 585 226 600T257 638Q262 643 270 650T286 657Q293 657 297 649T297 626Q290 609 281 591T262 556T243 522T226 494Q216 478 208 468T189 458Z"  />
<glyph unicode="&#x178;" horiz-adv-x="634" d="M-5 597Q-5 606 5 610T25 614Q32 614 46 613T75 612T107 610T134 609Q166 609 194 611T235 613Q245 613 253 609T262 596Q262 588 256 583T232 572Q212 567 212 559T219 533Q232 508 250 475T285 411T316 357T334 327Q338 323 340 323T347 326Q349 328 357 340T376 371T400 410T424 452T445 489T458 514Q472 543 470 554T438 573Q412 581 412 595Q412 612 446 612Q469 612 489 611T520 609Q543 609 567 611T612 614Q626 614 633 609T641 597Q641 591 634 584T612 573Q584 565 562 552T515 507Q499 486 477 453T433 386T395 324T373 283Q368 272 366 259T362 230Q361 216 361 196T361 155T361 114T361 83Q362 76 365 70T376 59T398 48T436 37Q447 34 453 28T459 16Q459 8 450 2T425 -4Q411 -4 381 -2T319 0Q301 0 283 0T248 -2T218 -3T196 -4Q165 -4 165 15Q165 25 176 30T201 40Q216 44 226 48T243 62T253 86T258 126Q259 138 259 154T260 186T260 215T260 237Q260 250 256 262T240 296Q229 318 212 351T175 417T137 478T109 520Q98 534 80 548T24 574Q7 579 1 585T-5 597ZM244 790Q260 790 270 783T287 766T295 747T298 732Q298 715 292 704T277 685T258 675T241 672Q222 672 203 686T184 729Q184 755 200 772T244 790ZM450 790Q465 790 475 783T491 766T499 747T501 732Q501 715 495 704T480 685T461 675T444 672Q425 672 406 686T387 729Q387 755 404 772T450 790Z"  />
<glyph unicode="&#x17D;" horiz-adv-x="617" d="M381 609Q390 609 408 609T447 611T488 613T522 615Q528 615 533 607T539 594Q538 591 532 581T516 557T496 528T477 501Q457 473 431 433T375 349T317 259T264 175T223 108T200 70Q198 65 199 59T204 52Q256 47 316 46T430 48Q459 50 486 66T539 125Q559 154 568 163T588 173Q604 173 598 138Q595 123 589 105T574 70T559 38T546 16Q540 7 530 1T502 -6Q452 -6 396 -5T292 -3T209 -1T166 0Q153 0 136 0T104 -2T78 -3T66 -4Q60 -4 50 0T40 11Q41 19 45 27T56 43Q83 80 117 130T187 235T257 342T319 439T364 512T384 549Q386 552 385 556T378 561Q364 561 338 561T282 562T220 563T164 564Q149 564 130 547T79 482Q70 468 61 464T39 459Q33 459 33 469T35 491Q36 494 40 506T49 534T60 569T69 604Q70 608 77 616T89 624Q113 619 136 617T176 613Q191 612 217 611T272 610T331 609T381 609ZM301 661Q293 661 280 668T253 689Q239 700 213 721T154 772Q136 788 138 801T158 814Q166 814 177 810T196 803Q222 789 249 775T297 749Q302 747 308 747T317 749Q325 754 336 761T360 775T386 789T411 802Q418 805 427 808T448 812Q467 812 465 798T443 767Q436 761 425 751T401 730T373 706T347 685Q334 675 323 668T301 661Z"  />
<glyph unicode="&#x17E;" horiz-adv-x="421" d="M248 407Q264 407 281 407T313 409T340 410T357 411Q363 411 367 407Q372 401 372 395T372 386Q366 378 354 361T318 308Q304 285 283 251T240 180T200 112T172 63V58Q172 53 174 52Q187 42 212 40T269 37Q279 37 302 49T358 97Q369 108 378 115T395 123Q399 123 403 114T405 97Q400 83 393 59T378 15Q375 7 368 2T360 -3Q331 -3 311 -3T272 -2T233 -1T184 0Q167 0 147 -1T108 -2T75 -4T57 -5Q50 -5 45 3T39 16Q39 21 51 39T77 76Q86 88 107 123T153 200T204 284T244 353Q246 356 245 359T241 363Q230 366 209 367T137 369Q120 368 105 355T67 316Q61 309 55 304T45 299Q38 299 34 305T30 316Q30 327 35 341T45 368Q56 398 58 411Q59 418 63 422T72 429Q77 432 82 427Q97 416 109 414T134 410Q142 409 174 408T248 407ZM215 452Q198 452 176 492Q160 522 145 551T112 617Q110 621 109 627T107 639T111 649T123 653Q131 653 140 645T152 631Q169 609 181 593T208 557Q216 544 224 557Q239 579 252 594T283 632Q288 637 296 644T312 651Q319 651 323 643T323 620Q316 603 307 585T288 550T269 516T252 488Q242 472 234 462T215 452Z"  />
<glyph unicode="&#x192;" horiz-adv-x="494" d="M391 649Q429 649 455 632T481 585Q481 570 475 559T461 540T443 528T426 524Q420 524 415 527T410 534Q410 542 410 552T408 570Q407 583 399 596T372 610Q344 610 318 557Q306 531 294 480T274 371Q273 366 276 363T281 360L382 363Q387 363 389 360T391 351Q391 346 390 339T386 326Q382 319 380 319L274 313Q265 311 262 304Q251 244 240 177T218 46Q207 -16 173 -58T99 -127Q73 -145 47 -155T-4 -165Q-17 -165 -30 -161T-53 -149T-70 -132T-77 -113Q-77 -99 -66 -85T-48 -64Q-45 -61 -40 -61T-29 -63Q-22 -68 -13 -75T7 -88T28 -99T48 -104Q57 -104 65 -101T81 -86T95 -54T108 2Q114 37 121 76T134 155T145 231T154 298Q154 300 153 304T146 308L73 307Q68 307 68 314Q68 322 69 331T74 347Q77 352 79 352L154 356Q159 356 162 360T166 368Q185 455 216 518T291 614Q312 630 337 639T391 649Z"  />
<glyph unicode="&#x2C6;" horiz-adv-x="400" d="M199 663Q205 663 215 652T237 620Q253 590 269 562T303 498Q305 494 306 488T307 476T303 466T293 462Q285 462 276 470T261 484Q244 507 230 525T201 562Q197 568 191 562Q176 541 163 523T131 482Q127 477 119 471T103 464Q94 464 91 475T93 497Q100 512 109 530T127 565T146 599T162 627Q173 644 182 653T199 663Z"  />
<glyph unicode="&#x2DC;" horiz-adv-x="400" d="M132 542Q123 542 112 534T92 517Q84 509 81 507T75 505Q67 505 61 512T55 527Q55 528 62 537T80 559T107 586T139 611Q141 613 147 615T156 617Q167 614 192 609T244 603Q257 603 265 605T281 613Q290 620 301 630T319 647Q320 649 324 648T334 644T342 637T346 627Q346 621 333 608Q331 607 321 597T297 575T273 553T260 539Q257 535 250 532T241 529Q226 529 195 535T132 542Z"  />
<glyph unicode="&#x2013;" horiz-adv-x="556" d="M491 254Q495 254 500 247T506 236Q507 226 505 216T500 198Q495 184 487 184H66Q60 184 55 187T50 199Q50 208 52 220T58 240Q63 252 70 252L491 254Z"  />
<glyph unicode="&#x2014;" horiz-adv-x="967" d="M902 253Q906 253 911 250T917 241Q917 233 916 220T912 198Q910 193 905 189T895 184H65Q55 184 53 190T51 201Q51 206 53 221T60 241Q62 246 67 248T77 251L902 253Z"  />
<glyph unicode="&#x2018;" horiz-adv-x="213" d="M127 450Q103 450 85 459T55 482T37 515T31 554Q31 588 48 612T87 653T130 676T159 684Q168 684 174 681T181 672Q181 661 175 656T159 645Q134 631 118 613T102 574Q102 557 116 549T152 533Q159 531 168 521T178 493Q178 480 164 465T127 450Z"  />
<glyph unicode="&#x2019;" horiz-adv-x="213" d="M86 678Q110 678 128 670T158 647T176 614T182 575Q182 541 166 517T128 476T86 453T57 445Q47 445 40 449T32 459Q32 466 37 472T50 482Q77 496 94 515T111 552Q111 573 97 580T63 595Q55 597 45 606T35 632Q35 647 49 662T86 678Z"  />
<glyph unicode="&#x201A;" horiz-adv-x="213" d="M86 127Q110 127 128 119T158 96T176 63T182 24Q182 -10 166 -34T128 -74T86 -97T57 -105Q47 -105 40 -101T32 -92Q32 -85 37 -79T50 -68Q77 -54 94 -36T111 1Q111 22 97 29T63 44Q55 46 45 55T35 81Q35 97 49 112T86 127Z"  />
<glyph unicode="&#x201C;" horiz-adv-x="401" d="M124 451Q101 451 84 459T55 482T37 515T31 554Q31 588 47 612T86 653T128 676T157 684Q171 684 176 680T181 670Q181 656 164 646Q137 632 120 613T102 574Q102 557 116 548T151 532Q159 530 168 521T178 495Q178 480 163 466T124 451ZM315 451Q292 451 274 459T244 482T226 515T219 554Q219 588 235 612T274 653T316 676T345 684Q356 684 362 680T368 670Q368 663 364 657T352 647Q324 633 307 614T289 574Q289 555 303 548T338 532Q346 530 356 522T366 496Q366 480 352 466T315 451Z"  />
<glyph unicode="&#x201D;" horiz-adv-x="401" d="M86 678Q109 678 127 670T157 647T175 614T182 575Q182 541 166 517T128 476T86 453T57 445Q46 445 40 449T33 459Q33 473 50 482Q76 499 93 517T111 555Q111 572 97 580T62 597Q54 599 45 607T35 632Q35 647 49 662T86 678ZM273 678Q296 678 314 670T344 647T363 614T370 575Q370 541 354 517T315 476T273 453T244 445Q235 445 228 449T221 459Q221 467 225 472T238 481Q265 495 282 515T299 555Q299 572 285 580T251 596Q243 598 233 606T222 632Q222 647 236 662T273 678Z"  />
<glyph unicode="&#x201E;" horiz-adv-x="401" d="M86 127Q109 127 127 119T157 96T175 63T182 24Q182 -10 166 -34T128 -74T86 -97T57 -105Q46 -105 40 -101T33 -91Q33 -78 50 -68Q76 -52 93 -34T111 4Q111 21 97 29T62 46Q54 48 45 56T35 81Q35 97 49 112T86 127ZM273 127Q296 127 314 119T344 96T363 63T370 24Q370 -10 354 -34T315 -74T273 -97T244 -105Q235 -105 228 -101T221 -92Q221 -83 225 -79T238 -69Q265 -55 282 -36T299 4Q299 22 285 30T251 46Q243 48 233 56T222 81Q222 96 236 111T273 127Z"  />
<glyph unicode="&#x2020;" horiz-adv-x="479" d="M234 620Q241 620 249 615T264 601T275 582T279 561Q279 539 274 502T264 411Q263 409 265 406T270 403Q307 405 332 409T384 413Q402 413 418 402T434 378Q434 365 418 353T381 341Q357 341 332 345T271 352Q263 352 263 345Q263 321 264 282T266 196T269 103T271 15T273 -54T274 -90Q274 -122 260 -135T234 -149Q224 -149 209 -136T194 -90Q194 -83 195 -54T197 15T199 104T202 198T204 283T206 345Q206 347 204 349T199 351Q161 349 131 345T84 341Q69 341 51 350T33 376Q33 390 50 401T87 413Q108 413 134 409T200 403Q202 403 204 405T205 411Q200 465 195 501T189 561Q189 571 193 581T204 600T219 614T234 620Z"  />
<glyph unicode="&#x2021;" horiz-adv-x="465" d="M228 620Q237 620 244 615T258 600T267 581T271 562Q271 540 270 510T266 427Q266 425 268 422T273 418Q296 419 323 423T380 427Q400 427 415 416T430 391Q430 378 414 367T379 356Q355 356 329 360T271 365Q268 366 266 363T263 355L261 238Q261 234 261 232T267 229Q300 230 325 233T381 237Q399 237 414 227T430 202Q430 188 414 178T377 168Q353 168 327 171T265 176Q261 176 260 173T259 168Q260 119 260 73T258 -10T257 -72T256 -104Q256 -133 247 -145T227 -158Q217 -158 208 -146T196 -104Q196 -97 196 -70T194 -5T193 77T192 166Q192 170 189 172T182 175Q152 174 129 171T79 168Q70 168 61 170T43 177T30 188T25 202Q25 216 42 226T78 237Q106 237 133 234T184 229Q187 229 189 232T191 239L190 357Q190 359 188 362T182 365Q162 364 132 360T73 356Q66 356 58 359T42 366T30 377T25 390Q25 402 41 414T77 427Q100 427 125 423T180 418Q183 418 185 421T188 428Q188 480 186 510T184 563Q184 572 188 582T198 600T212 614T228 620Z"  />
<glyph unicode="&#x2022;" horiz-adv-x="455" d="M227 336Q257 336 283 325T330 293T363 246T375 187Q375 156 363 129T330 81T282 48T226 36Q198 36 172 47T125 79T93 127T80 187Q80 220 93 247T128 294T175 325T227 336Z"  />
<glyph unicode="&#x2026;" horiz-adv-x="727" d="M119 125Q135 125 147 118T168 101T180 78T185 56Q185 28 167 8T119 -12Q107 -12 96 -8T74 4T58 25T52 57Q52 75 59 88T76 109T98 121T119 125ZM362 125Q378 125 390 118T410 101T422 78T427 56Q427 28 409 8T361 -12Q349 -12 338 -8T316 4T300 26T294 57Q294 75 301 88T318 109T341 121T362 125ZM606 125Q621 125 633 118T654 101T666 78T671 56Q671 28 653 8T605 -12Q594 -12 582 -8T560 4T544 25T538 57Q538 75 545 88T563 109T585 121T606 125Z"  />
<glyph unicode="&#x2030;" horiz-adv-x="1109" d="M196 602Q233 602 260 587T305 547T331 493T340 435Q340 401 330 368T301 309T253 266T186 250Q149 250 122 264T76 303T48 357T39 420Q39 457 49 490T80 548T129 587T196 602ZM183 561Q163 561 151 548T133 516T124 475T121 434Q121 413 125 388T138 341T161 305T198 290Q218 290 230 303T248 337T255 378T257 417Q257 436 254 460T243 507T220 545T183 561ZM610 583Q553 502 500 426T396 274T293 124T190 -29Q189 -30 185 -32T176 -32Q172 -30 164 -25T153 -17Q148 -13 148 -7T151 2Q255 155 358 304T560 596Q566 605 572 608T581 612Q585 612 595 605T608 592Q612 585 610 583ZM580 339Q617 339 644 323T690 283T717 228T726 170Q726 134 717 101T688 43T640 3T572 -12Q534 -12 506 3T460 42T434 96T425 157Q425 191 435 223T464 281T513 323T580 339ZM568 299Q549 299 537 286T518 254T509 212T506 170Q506 152 510 128T523 81T547 43T584 27Q604 27 616 41T634 74T641 115T643 154Q643 171 640 195T628 243T605 282T568 299ZM917 339Q955 339 982 323T1028 283T1054 228T1063 170Q1063 134 1054 101T1026 43T978 3T909 -12Q871 -12 844 3T798 42T772 96T763 157Q763 191 773 223T802 281T850 323T917 339ZM905 297Q886 297 874 285T855 253T846 212T843 170Q843 152 847 128T860 81T884 44T921 29Q941 29 953 42T971 75T979 116T981 154Q981 171 978 195T966 242T942 281T905 297Z"  />
<glyph unicode="&#x2039;" horiz-adv-x="449" d="M75 190Q67 195 68 206T75 221Q106 238 144 261T218 308T286 353T336 386Q350 396 357 399T372 402Q377 402 379 393T370 366Q361 353 341 335T296 296T245 255T197 218Q190 212 196 206Q220 188 247 166T300 122T345 79T374 45Q384 28 378 20T366 12Q364 12 356 14T336 25Q317 39 285 60T216 105T142 151T75 190Z"  />
<glyph unicode="&#x203A;" horiz-adv-x="449" d="M374 224Q381 219 381 208T375 193Q349 178 311 156T235 109T164 63T112 28Q100 19 93 16T79 12Q74 12 70 21T77 47Q86 60 108 80T157 121T211 162T258 196Q262 199 263 204T261 211Q239 227 212 248T158 292T110 333T80 365Q68 382 73 392T85 402Q87 402 95 400T115 390Q134 376 166 354T236 309T310 263T374 224Z"  />
<glyph unicode="&#x20AC;" horiz-adv-x="482" d="M433 581Q438 579 444 566T451 545V476Q451 462 445 455T433 447Q425 447 419 453T411 471Q406 488 398 504T377 534T348 555T312 563Q253 563 218 519T168 386Q168 384 170 381T174 377L361 380Q368 380 370 377T373 370Q373 360 367 346T351 332L171 334Q169 334 166 333T163 329Q163 326 163 319T163 305T163 292T163 283Q164 281 166 278T171 276L328 278Q339 278 339 266Q340 255 334 242T317 229L175 230Q171 230 169 227T168 222Q171 187 182 154T211 96T255 55T314 40Q336 40 351 46T379 63T399 86T415 110Q425 127 429 133T440 139Q448 139 452 131T456 114Q456 106 454 96T449 75T441 55T433 40Q430 36 421 27T405 13Q393 6 366 -1T293 -8Q202 -8 142 51T64 222Q63 224 61 227T56 231L13 232Q5 232 2 234T-1 245Q-1 253 6 263T20 275H54Q55 275 57 277T59 281Q59 289 59 305T60 330Q60 335 56 335Q46 336 41 336T34 337T30 337T25 338Q14 338 14 348Q14 356 21 366T37 376H60Q62 376 64 378T67 383Q70 396 77 417T96 463T128 512T173 557T234 589T314 602Q333 602 349 600T383 593Q396 590 408 587T433 581Z"  />
<glyph unicode="&#x2122;" horiz-adv-x="465" d="M20 564Q19 564 16 566T12 575Q12 576 12 581T13 594T14 609T15 619Q16 621 20 623T27 623Q30 621 34 618T49 614H144Q156 614 163 616T180 624Q182 625 186 623T190 618Q189 615 188 607T187 591T186 576T185 568Q185 565 183 562T177 558Q174 558 172 561T167 567Q163 574 160 583T145 594Q141 594 136 594T125 592Q120 592 120 585V501Q120 487 121 482T131 473Q136 471 139 471T148 468Q154 465 154 458Q154 455 150 453T141 450Q133 450 121 451T100 452Q91 452 86 452T77 451T70 451T59 450Q44 450 44 459Q44 461 47 464T54 469Q65 472 71 478T79 504L81 579Q81 587 79 589T76 592Q71 593 67 593T58 594Q43 594 39 586T29 569Q26 564 20 564ZM202 610Q202 612 205 614T213 616Q225 616 242 615T271 614Q274 614 277 613T282 610Q284 605 286 600T290 590Q295 579 305 559T325 524Q328 519 331 525Q338 538 350 561T369 604Q370 607 373 610T379 614Q380 614 388 614T406 615T424 615T435 616Q447 616 447 608Q447 606 445 604T440 601Q435 599 428 597T416 592Q414 590 413 578Q413 568 413 544T415 501Q416 484 417 480T422 473Q427 471 430 471T438 468Q440 467 443 465T446 460Q446 452 435 452H399Q390 452 381 452T365 451Q360 451 356 454T352 459Q352 461 355 464T362 468Q372 473 374 475T377 493Q379 520 379 542T378 567Q378 570 377 570T374 568Q371 562 366 551T354 526T342 500T333 478Q325 456 322 453Q317 448 312 453Q311 454 309 457Q307 460 302 473Q299 480 294 491T283 516T271 543T261 566Q260 570 259 570T256 566Q255 546 255 528T254 494Q254 482 260 477T283 466Q288 465 288 461Q288 458 285 455T278 451Q267 451 258 451T236 452Q226 452 219 452T206 451Q201 451 198 454T195 460Q195 462 198 463T205 467Q217 472 221 476T228 494Q229 502 230 514T233 539T235 560T236 573Q238 585 231 590Q227 593 223 595T210 599Q205 601 204 604T202 610Z"  />


</font>
</defs>
</svg>
